<?xml version="1.0" encoding="utf-8"?>
<!-- Generator: Adobe Illustrator 16.0.3, SVG Export Plug-In . SVG Version: 6.00 Build 0)  -->
<!DOCTYPE svg PUBLIC "-//W3C//DTD SVG 1.1//EN" "http://www.w3.org/Graphics/SVG/1.1/DTD/svg11.dtd">
<svg version="1.1" id="Ebene_1" xmlns="http://www.w3.org/2000/svg" xmlns:xlink="http://www.w3.org/1999/xlink" x="0px" y="0px"
	 width="756.905px" height="43.995px" viewBox="0 0 756.905 43.995" enable-background="new 0 0 756.905 43.995"
	 xml:space="preserve">
<g>
	<path fill-rule="evenodd" clip-rule="evenodd" fill="#7E82BE" d="M1,15.998c3.206,4.203,3.034,10.067,6.866,13.961
		c-0.267,0.394-0.535,0.787-0.802,1.18C4.589,31.709,3.304,28.91,1,28.997C1,24.664,1,20.331,1,15.998z"/>
	<path fill-rule="evenodd" clip-rule="evenodd" fill="#7E82BE" d="M757.905,31.996c-0.979,0.053-1.96,0.105-2.939,0.157
		c-0.892-0.355-1.179-1.115-1.321-1.973c1.42-2.728,2.841-5.455,4.261-8.183C757.905,25.331,757.905,28.663,757.905,31.996z"/>
	<path fill-rule="evenodd" clip-rule="evenodd" fill="#E77482" d="M1,28.997c2.304-0.087,3.589,2.713,6.064,2.143
		C7.06,32.06,7.055,32.982,7.05,33.904c-2.017,0.03-4.034,0.062-6.05,0.092C1,32.33,1,30.663,1,28.997z"/>
	<path fill-rule="evenodd" clip-rule="evenodd" fill="#7E82BE" d="M583.011,33.858c0.001,0-0.372,0.068-0.372,0.068
		s-0.368-0.088-0.37-0.088c-0.807-0.973-1.612-1.946-2.417-2.919c-2.148-4.701-3.137-9.908-6.188-14.215
		c0.123-1.184,0.246-2.367,0.369-3.55c3.486,1.758,4.207,5.34,5.637,8.475c1.287,2.82,1.558,6.147,4.116,8.337
		C583.527,31.263,583.27,32.561,583.011,33.858z"/>
	<path fill-rule="evenodd" clip-rule="evenodd" fill="#7E82BE" d="M142.088,13.154c3.486,1.758,4.207,5.34,5.637,8.475
		c1.286,2.819,1.557,6.147,4.116,8.337c-0.268,1.199-0.535,2.399-0.802,3.6c-1.043-0.882-2.087-1.765-3.131-2.646
		c-2.15-4.701-3.136-9.909-6.188-14.216C141.842,15.52,141.965,14.337,142.088,13.154z"/>
	<path fill-rule="evenodd" clip-rule="evenodd" fill="#7E82BE" d="M196.081,13.154c3.486,1.758,4.207,5.34,5.637,8.475
		c1.286,2.819,1.557,6.147,4.116,8.337c-0.268,1.199-0.535,2.399-0.802,3.6c-1.043-0.882-2.087-1.765-3.131-2.646
		c-2.15-4.701-3.136-9.909-6.188-14.216C195.835,15.52,195.958,14.337,196.081,13.154z"/>
	<path fill-rule="evenodd" clip-rule="evenodd" fill="#8082BE" d="M592.82,33.834c-0.264,0.076-0.532,0.108-0.807,0.099
		c-0.11-1.251-0.22-2.503-0.329-3.754c2.289-3.149,3.118-6.944,4.631-10.438c1.046-2.418,1.801-5.077,4.552-6.265
		c0.175,1.017,0.352,2.03,0.524,3.044c-2.059,4.787-4.112,9.572-6.166,14.359C594.424,31.865,593.622,32.85,592.82,33.834z"/>
	<path fill-rule="evenodd" clip-rule="evenodd" fill="#8082BE" d="M520.825,33.834c-0.266,0.08-0.537,0.116-0.813,0.111
		c-0.113-1.256-0.226-2.512-0.339-3.767c2.324-3.134,3.131-6.941,4.648-10.434c1.051-2.418,1.803-5.08,4.555-6.269
		c0.175,1.017,0.351,2.03,0.523,3.043c-2.06,4.786-4.113,9.572-6.169,14.358C522.429,31.864,521.627,32.849,520.825,33.834z"/>
	<path fill-rule="evenodd" clip-rule="evenodd" fill="#8082BE" d="M106.876,33.834c-0.265,0.08-0.536,0.116-0.813,0.111
		c-0.113-1.256-0.226-2.512-0.339-3.767c2.324-3.134,3.13-6.941,4.648-10.434c1.05-2.418,1.802-5.081,4.555-6.269
		c0.174,1.016,0.35,2.029,0.522,3.042c-2.059,4.787-4.114,9.573-6.169,14.36C108.479,31.865,107.678,32.849,106.876,33.834z"/>
	<path fill-rule="evenodd" clip-rule="evenodd" fill="#8082BE" d="M16.893,33.834c-0.267,0.079-0.539,0.115-0.818,0.111
		c-0.113-1.256-0.226-2.512-0.338-3.767c2.323-3.134,3.13-6.941,4.647-10.434c1.05-2.418,1.802-5.081,4.555-6.269
		c0.175,1.017,0.352,2.03,0.523,3.044c-2.058,4.787-4.112,9.572-6.166,14.359C18.495,31.865,17.693,32.85,16.893,33.834z"/>
	<path fill-rule="evenodd" clip-rule="evenodd" fill="#8082BE" d="M394.845,33.834c-0.267,0.079-0.538,0.115-0.816,0.111
		c-0.113-1.256-0.226-2.512-0.339-3.767c2.323-3.134,3.13-6.941,4.647-10.434c1.051-2.418,1.803-5.081,4.555-6.269
		c0.175,1.017,0.352,2.03,0.524,3.044c-2.058,4.787-4.112,9.572-6.166,14.359C396.448,31.865,395.646,32.85,394.845,33.834z"/>
	<path fill-rule="evenodd" clip-rule="evenodd" fill="#7E82BE" d="M736.014,13.154c3.486,1.759,4.204,5.342,5.638,8.476
		c1.288,2.817,1.544,6.152,4.122,8.33c-0.268,0.393-0.533,0.786-0.801,1.179c-1.024-0.098-2.05-0.195-3.075-0.293
		c-2.326-4.607-3.158-9.875-6.253-14.142C735.768,15.52,735.891,14.337,736.014,13.154z"/>
	<path fill-rule="evenodd" clip-rule="evenodd" fill="#7E82BE" d="M682.021,13.154c3.486,1.759,4.204,5.342,5.638,8.476
		c1.288,2.817,1.544,6.152,4.122,8.33c-0.268,0.393-0.534,0.786-0.802,1.179c-1.025-0.098-2.051-0.195-3.077-0.293
		c-2.325-4.606-3.158-9.873-6.252-14.14C681.773,15.521,681.897,14.337,682.021,13.154z"/>
	<path fill-rule="evenodd" clip-rule="evenodd" fill="#7E82BE" d="M88.094,13.154c3.487,1.759,4.205,5.342,5.638,8.476
		c1.288,2.817,1.544,6.152,4.123,8.33c-0.268,0.393-0.534,0.786-0.802,1.179c-1.026-0.098-2.051-0.195-3.078-0.293
		c-2.325-4.606-3.158-9.873-6.251-14.14C87.848,15.521,87.971,14.337,88.094,13.154z"/>
	<path fill-rule="evenodd" clip-rule="evenodd" fill="#7E82BE" d="M466.047,13.154c3.487,1.759,4.205,5.342,5.639,8.476
		c1.287,2.817,1.543,6.152,4.122,8.33c-0.268,0.393-0.534,0.786-0.802,1.179c-1.026-0.098-2.052-0.195-3.077-0.293
		c-2.325-4.606-3.158-9.873-6.253-14.14C465.8,15.521,465.923,14.337,466.047,13.154z"/>
	<path fill-rule="evenodd" clip-rule="evenodd" fill="#7E82BE" d="M376.059,13.154c3.487,1.759,4.204,5.342,5.638,8.476
		c1.288,2.817,1.544,6.152,4.123,8.33c-0.268,0.393-0.534,0.786-0.802,1.179c-1.025-0.098-2.051-0.195-3.077-0.293
		c-2.325-4.606-3.158-9.874-6.252-14.141C375.812,15.521,375.936,14.337,376.059,13.154z"/>
	<path fill-rule="evenodd" clip-rule="evenodd" fill="#7E82BE" d="M304.067,13.154c3.487,1.759,4.205,5.342,5.638,8.476
		c1.288,2.817,1.543,6.152,4.123,8.33c-0.268,0.393-0.534,0.786-0.802,1.179c-1.026-0.098-2.052-0.195-3.078-0.293
		c-2.325-4.606-3.158-9.873-6.252-14.14C303.82,15.521,303.943,14.337,304.067,13.154z"/>
	<path fill-rule="evenodd" clip-rule="evenodd" fill="#7E82BE" d="M502.043,13.155c3.486,1.758,4.204,5.342,5.638,8.476
		c1.288,2.816,1.544,6.151,4.122,8.329c-0.268,0.393-0.533,0.786-0.801,1.179c-1.022-0.098-2.046-0.194-3.069-0.292
		c-2.223-4.655-3.217-9.854-6.257-14.147C501.799,15.518,501.921,14.336,502.043,13.155z"/>
	<path fill-rule="evenodd" clip-rule="evenodd" fill="#8083BE" d="M213.732,30.178c2.287-3.15,3.117-6.944,4.628-10.438
		c1.047-2.418,1.802-5.078,4.553-6.263c0.176,1.017,0.353,2.03,0.525,3.044c-2.006,4.795-4.006,9.589-6.007,14.384
		c-1.109,0.05-2.218,0.1-3.328,0.149C213.862,30.813,213.738,30.52,213.732,30.178z"/>
	<path fill-rule="evenodd" clip-rule="evenodd" fill="#8083BE" d="M699.65,30.178c2.322-3.134,3.13-6.941,4.647-10.434
		c1.051-2.417,1.802-5.081,4.555-6.267c0.175,1.016,0.352,2.029,0.523,3.042c-2.074,4.771-4.144,9.542-6.214,14.313
		c-1.04,0.078-2.08,0.157-3.12,0.235C699.795,30.823,699.664,30.526,699.65,30.178z"/>
	<path fill-rule="evenodd" clip-rule="evenodd" fill="#8083BE" d="M483.678,30.178c2.322-3.135,3.129-6.942,4.647-10.435
		c1.051-2.417,1.798-5.084,4.56-6.264c0.172,1.013,0.346,2.022,0.515,3.031c-2.075,4.774-4.147,9.548-6.218,14.322
		c-1.037,0.079-2.075,0.157-3.112,0.235C483.822,30.823,483.691,30.526,483.678,30.178z"/>
	<path fill-rule="evenodd" clip-rule="evenodd" fill="#8083BE" d="M321.698,30.178c2.322-3.135,3.129-6.941,4.646-10.434
		c1.051-2.417,1.802-5.081,4.555-6.267c0.175,1.017,0.352,2.03,0.524,3.043c-2.074,4.771-4.144,9.542-6.213,14.312
		c-1.041,0.078-2.082,0.157-3.122,0.235C321.843,30.823,321.712,30.526,321.698,30.178z"/>
	<path fill-rule="evenodd" clip-rule="evenodd" fill="#8083BE" d="M159.739,30.178c2.287-3.15,3.117-6.944,4.628-10.438
		c1.047-2.418,1.801-5.078,4.553-6.263c0.175,1.016,0.352,2.029,0.523,3.042c-2.075,4.771-4.145,9.541-6.216,14.311
		c-1.039,0.073-2.078,0.147-3.117,0.222C159.868,30.811,159.744,30.52,159.739,30.178z"/>
	<path fill-rule="evenodd" clip-rule="evenodd" fill="#48484C" d="M25.467,16.521c-0.176-1.014-0.353-2.027-0.527-3.044
		c3.544-4.695,5.279-4.783,9.16-0.465c-0.01,0.988-0.02,1.978-0.029,2.967C31.425,19.689,28.572,20.103,25.467,16.521z
		 M31.973,14.24c-0.173-1.474-1.013-2.301-2.59-2.167c-1.324,0.112-2.101,0.991-2.14,2.242c-0.047,1.512,0.893,2.535,2.376,2.539
		C31.106,16.857,31.955,15.878,31.973,14.24z"/>
	<path fill-rule="evenodd" clip-rule="evenodd" fill="#48484C" d="M43.154,13.008c3.693-4.214,5.153-4.213,8.943,0.004
		c-0.01,0.988-0.02,1.978-0.029,2.967c-3.828,4.085-5.147,4.086-8.801,0.005C43.229,14.992,43.192,14,43.154,13.008z M49.957,14.091
		c-0.221-1.427-1.119-2.189-2.674-2.004c-1.321,0.157-2.075,1.083-2.05,2.323c0.03,1.476,0.957,2.51,2.479,2.438
		C49.206,16.775,50.01,15.782,49.957,14.091z"/>
	<path fill-rule="evenodd" clip-rule="evenodd" fill="#48484C" d="M61.152,13.008c3.693-4.214,5.153-4.213,8.943,0.004
		c-0.01,0.988-0.02,1.978-0.029,2.967c-3.828,4.085-5.147,4.086-8.801,0.005C61.227,14.992,61.189,14,61.152,13.008z M65.374,12.038
		c-1.418,0.296-2.34,1.162-2.104,2.694c0.224,1.449,1.216,2.363,2.764,2.082c1.234-0.224,1.975-1.106,1.922-2.438
		C67.893,12.789,66.99,12.051,65.374,12.038z"/>
	<path fill-rule="evenodd" clip-rule="evenodd" fill="#46464A" d="M88.094,13.154c-0.123,1.183-0.247,2.367-0.368,3.55
		c-3.112,3.194-5.943,3.087-8.457-0.723c-0.038-0.991-0.076-1.981-0.114-2.971C82.804,8.783,84.526,8.811,88.094,13.154z
		 M85.981,14.458c-0.097-1.579-0.908-2.454-2.483-2.403c-1.316,0.043-2.151,0.864-2.26,2.136c-0.131,1.537,0.776,2.558,2.253,2.657
		C85.009,16.949,85.854,15.978,85.981,14.458z"/>
	<path fill-rule="evenodd" clip-rule="evenodd" fill="#48484C" d="M115.454,16.519c-0.176-1.013-0.352-2.026-0.526-3.042
		c3.544-4.695,5.279-4.783,9.16-0.465c-0.01,0.988-0.019,1.976-0.028,2.964C121.414,19.689,118.56,20.098,115.454,16.519z
		 M121.961,14.24c-0.174-1.474-1.013-2.301-2.591-2.167c-1.323,0.112-2.1,0.991-2.139,2.242c-0.048,1.512,0.894,2.535,2.376,2.539
		C121.095,16.857,121.944,15.878,121.961,14.24z"/>
	<path fill-rule="evenodd" clip-rule="evenodd" fill="#46464A" d="M142.088,13.154c-0.123,1.183-0.246,2.366-0.367,3.548
		c-3.112,3.194-5.944,3.087-8.459-0.723c-0.037-0.99-0.075-1.98-0.113-2.969C136.797,8.783,138.52,8.811,142.088,13.154z
		 M139.955,13.874c-0.277-1.056-1.008-1.995-2.63-1.806c-1.332,0.155-2.094,1.043-2.104,2.288c-0.014,1.498,0.921,2.53,2.428,2.5
		C139.142,16.825,139.977,15.842,139.955,13.874z"/>
	<path fill-rule="evenodd" clip-rule="evenodd" fill="#48484C" d="M169.448,16.52c-0.176-1.013-0.353-2.026-0.527-3.042
		c3.545-4.696,5.28-4.783,9.161-0.466c-0.01,0.988-0.019,1.976-0.028,2.965C175.407,19.689,172.553,20.098,169.448,16.52z
		 M173.714,12.027c-1.582,0.091-2.531,0.965-2.489,2.45c0.041,1.457,0.99,2.459,2.54,2.37c1.259-0.073,2.078-0.881,2.165-2.211
		C176.031,13.061,175.229,12.214,173.714,12.027z"/>
	<path fill-rule="evenodd" clip-rule="evenodd" fill="#46464A" d="M196.081,13.154c-0.123,1.183-0.246,2.366-0.367,3.548
		c-3.112,3.194-5.944,3.087-8.459-0.723c-0.037-0.99-0.075-1.98-0.113-2.969C190.791,8.783,192.513,8.811,196.081,13.154z
		 M193.982,14.283c-0.15-1.364-0.897-2.298-2.498-2.231c-1.316,0.055-2.151,0.866-2.259,2.139c-0.131,1.537,0.776,2.558,2.252,2.657
		C192.996,16.949,193.841,15.978,193.982,14.283z"/>
	<path fill-rule="evenodd" clip-rule="evenodd" fill="#48484C" d="M223.443,16.521c-0.177-1.014-0.354-2.027-0.529-3.044
		c3.545-4.696,5.281-4.783,9.161-0.466c-0.01,0.988-0.02,1.978-0.029,2.967C229.4,19.689,226.547,20.103,223.443,16.521z
		 M227.707,12.027c-1.582,0.091-2.531,0.965-2.489,2.45c0.041,1.457,0.99,2.459,2.54,2.37c1.259-0.073,2.078-0.881,2.165-2.211
		C230.024,13.061,229.222,12.214,227.707,12.027z"/>
	<path fill-rule="evenodd" clip-rule="evenodd" fill="#48484C" d="M241.129,13.008c3.694-4.214,5.154-4.213,8.943,0.004
		c-0.01,0.988-0.02,1.978-0.029,2.967c-3.828,4.085-5.147,4.086-8.801,0.005C241.204,14.992,241.167,14,241.129,13.008z
		 M247.966,14.534c-0.063-1.458-0.735-2.443-2.335-2.485c-1.326-0.034-2.187,0.757-2.382,1.993c-0.24,1.52,0.604,2.573,2.075,2.78
		C246.866,17.04,247.706,16.091,247.966,14.534z"/>
	<path fill-rule="evenodd" clip-rule="evenodd" fill="#48484C" d="M259.127,13.008c3.694-4.214,5.153-4.213,8.943,0.004
		c-0.01,0.988-0.02,1.978-0.029,2.967c-3.828,4.085-5.146,4.086-8.8,0.005C259.202,14.992,259.165,14,259.127,13.008z
		 M263.626,16.917c1.445-0.276,2.363-1.042,2.298-2.625c-0.056-1.325-0.779-2.135-2.11-2.225c-1.575-0.107-2.524,0.793-2.596,2.271
		C261.143,15.843,262.136,16.678,263.626,16.917z"/>
	<path fill-rule="evenodd" clip-rule="evenodd" fill="#48484C" d="M277.125,13.008c3.694-4.214,5.154-4.213,8.943,0.004
		c-0.01,0.988-0.02,1.978-0.029,2.967c-3.828,4.085-5.147,4.086-8.801,0.005C277.2,14.992,277.163,14,277.125,13.008z
		 M281.384,16.898c1.529-0.097,2.464-0.831,2.54-2.393c0.063-1.31-0.583-2.211-1.899-2.416c-1.548-0.241-2.573,0.555-2.79,2.038
		C279.012,15.659,279.977,16.508,281.384,16.898z"/>
	<path fill-rule="evenodd" clip-rule="evenodd" fill="#46464A" d="M304.067,13.154c-0.124,1.183-0.247,2.367-0.369,3.55
		c-3.111,3.194-5.941,3.087-8.456-0.723c-0.038-0.991-0.076-1.981-0.114-2.971C298.777,8.783,300.5,8.811,304.067,13.154z
		 M299.697,12.022c-1.584,0.091-2.537,0.966-2.495,2.456c0.041,1.461,0.993,2.464,2.546,2.375c1.264-0.073,2.083-0.883,2.169-2.217
		C302.02,13.057,301.217,12.209,299.697,12.022z"/>
	<path fill-rule="evenodd" clip-rule="evenodd" fill="#48484C" d="M331.428,16.521c-0.177-1.013-0.354-2.026-0.528-3.043
		c3.545-4.696,5.281-4.783,9.161-0.466c-0.01,0.988-0.02,1.977-0.029,2.966C337.387,19.689,334.533,20.101,331.428,16.521z
		 M335.693,12.027c-1.582,0.091-2.531,0.965-2.489,2.45c0.041,1.457,0.99,2.459,2.54,2.37c1.26-0.073,2.078-0.881,2.165-2.211
		C338.01,13.061,337.209,12.214,335.693,12.027z"/>
	<path fill-rule="evenodd" clip-rule="evenodd" fill="#48484C" d="M349.116,13.008c3.694-4.214,5.153-4.213,8.943,0.004
		c-0.01,0.988-0.02,1.977-0.029,2.966c-3.828,4.085-5.146,4.086-8.8,0.005C349.191,14.991,349.154,13.999,349.116,13.008z
		 M355.939,14.364c-0.125-1.543-0.958-2.386-2.53-2.298c-1.318,0.073-2.123,0.921-2.203,2.182c-0.096,1.53,0.834,2.548,2.307,2.603
		C355.008,16.905,355.865,15.934,355.939,14.364z"/>
	<path fill-rule="evenodd" clip-rule="evenodd" fill="#46464A" d="M376.059,13.154c-0.123,1.183-0.247,2.366-0.368,3.55
		c-3.112,3.194-5.943,3.087-8.457-0.724c-0.038-0.99-0.076-1.98-0.114-2.97C370.768,8.783,372.491,8.811,376.059,13.154z
		 M371.333,12.033c-1.422,0.296-2.345,1.164-2.108,2.7c0.224,1.454,1.219,2.367,2.771,2.085c1.237-0.224,1.978-1.108,1.925-2.443
		C373.858,12.785,372.955,12.045,371.333,12.033z"/>
	<path fill-rule="evenodd" clip-rule="evenodd" fill="#48484C" d="M421.106,13.008c3.694-4.214,5.153-4.213,8.943,0.004
		c-0.01,0.988-0.02,1.978-0.029,2.967c-3.828,4.085-5.146,4.086-8.801,0.005C421.182,14.992,421.145,14,421.106,13.008z
		 M425.843,16.89c1.419-0.379,2.22-1.255,2.044-2.81c-0.152-1.342-1.006-2.054-2.305-2.024c-1.542,0.034-2.471,0.986-2.381,2.489
		C423.287,16.009,424.257,16.854,425.843,16.89z"/>
	<path fill-rule="evenodd" clip-rule="evenodd" fill="#48484C" d="M439.104,13.008c3.693-4.214,5.153-4.213,8.943,0.004
		c-0.01,0.988-0.02,1.978-0.029,2.967c-3.828,4.085-5.147,4.086-8.801,0.005C439.18,14.992,439.143,14,439.104,13.008z
		 M445.95,14.32c-0.136-1.347-0.86-2.298-2.453-2.267c-1.318,0.025-2.158,0.833-2.29,2.095c-0.161,1.529,0.725,2.559,2.197,2.689
		C444.927,16.972,445.773,16.012,445.95,14.32z"/>
	<path fill-rule="evenodd" clip-rule="evenodd" fill="#46464A" d="M466.047,13.154c-0.124,1.183-0.247,2.367-0.369,3.55
		c-3.11,3.194-5.941,3.087-8.456-0.723c-0.038-0.991-0.076-1.981-0.114-2.971C460.757,8.783,462.479,8.811,466.047,13.154z
		 M463.932,14.526c-0.066-1.603-0.862-2.494-2.437-2.476c-1.321,0.015-2.164,0.832-2.297,2.097
		c-0.162,1.533,0.726,2.565,2.202,2.695C462.929,16.978,463.775,16.016,463.932,14.526z"/>
	<path fill-rule="evenodd" clip-rule="evenodd" fill="#46464A" d="M493.404,16.511c-0.174-1.009-0.348-2.019-0.52-3.031
		c3.546-4.757,5.457-4.824,9.158-0.326c-0.122,1.183-0.244,2.364-0.365,3.545C498.852,19.701,496.09,19.756,493.404,16.511z
		 M497.672,16.915c1.427-0.313,2.327-1.095,2.225-2.685c-0.086-1.34-0.852-2.11-2.174-2.172c-1.58-0.074-2.518,0.863-2.545,2.34
		C495.151,15.886,496.134,16.741,497.672,16.915z"/>
	<path fill-rule="evenodd" clip-rule="evenodd" fill="#48484C" d="M529.403,16.52c-0.177-1.013-0.353-2.026-0.527-3.043
		c3.545-4.695,5.28-4.783,9.16-0.465c-0.01,0.988-0.02,1.977-0.029,2.966C535.361,19.689,532.509,20.101,529.403,16.52z
		 M533.522,12.014c-1.435,0.162-2.436,0.964-2.344,2.499c0.088,1.453,1.02,2.448,2.578,2.331c1.265-0.095,2.063-0.919,2.129-2.246
		C535.966,13.023,535.15,12.187,533.522,12.014z"/>
	<path fill-rule="evenodd" clip-rule="evenodd" fill="#48484C" d="M547.091,13.008c3.693-4.214,5.153-4.213,8.943,0.004
		c-0.01,0.988-0.02,1.977-0.029,2.966c-3.828,4.085-5.147,4.086-8.801,0.005C547.166,14.991,547.129,13.999,547.091,13.008z
		 M553.895,14.091c-0.222-1.427-1.119-2.189-2.675-2.004c-1.32,0.157-2.074,1.083-2.049,2.323c0.03,1.475,0.957,2.511,2.478,2.438
		C553.144,16.775,553.947,15.782,553.895,14.091z"/>
	<path fill-rule="evenodd" clip-rule="evenodd" fill="#46464A" d="M574.033,13.154c-0.123,1.183-0.246,2.366-0.367,3.55
		c-3.111,3.193-5.943,3.087-8.457-0.724c-0.038-0.99-0.076-1.98-0.114-2.97C568.743,8.783,570.466,8.811,574.033,13.154z
		 M571.918,14.526c-0.066-1.603-0.862-2.494-2.437-2.476c-1.321,0.015-2.164,0.832-2.297,2.097
		c-0.162,1.533,0.726,2.565,2.202,2.695C570.915,16.978,571.762,16.016,571.918,14.526z"/>
	<path fill-rule="evenodd" clip-rule="evenodd" fill="#48484C" d="M601.395,16.521c-0.176-1.014-0.353-2.027-0.527-3.044
		c3.545-4.695,5.279-4.783,9.16-0.465c-0.01,0.988-0.02,1.978-0.029,2.967C607.353,19.689,604.5,20.103,601.395,16.521z
		 M607.892,13.875c-0.278-1.053-1.006-1.991-2.626-1.802c-1.327,0.155-2.086,1.042-2.098,2.283c-0.014,1.494,0.92,2.525,2.421,2.494
		C607.079,16.819,607.913,15.839,607.892,13.875z"/>
	<path fill-rule="evenodd" clip-rule="evenodd" fill="#48484C" d="M619.082,13.008c3.693-4.214,5.153-4.213,8.943,0.004
		c-0.01,0.988-0.02,1.978-0.029,2.967c-3.828,4.085-5.147,4.086-8.801,0.005C619.157,14.992,619.12,14,619.082,13.008z
		 M625.9,14.608c-0.027-1.636-0.811-2.542-2.376-2.558c-1.313-0.014-2.173,0.795-2.334,2.049c-0.196,1.525,0.67,2.564,2.142,2.732
		C624.868,17.005,625.709,16.05,625.9,14.608z"/>
	<path fill-rule="evenodd" clip-rule="evenodd" fill="#48484C" d="M637.079,13.008c3.694-4.214,5.154-4.213,8.943,0.004
		c-0.01,0.988-0.02,1.978-0.029,2.967c-3.827,4.085-5.146,4.086-8.801,0.005C637.154,14.992,637.117,14,637.079,13.008z
		 M641.862,16.934c1.102-0.433,2.144-1.08,2.016-2.703c-0.104-1.335-0.854-2.105-2.173-2.167c-1.576-0.074-2.513,0.862-2.539,2.335
		C639.139,15.882,640.12,16.735,641.862,16.934z"/>
	<path fill-rule="evenodd" clip-rule="evenodd" fill="#48484C" d="M655.077,13.008c3.694-4.214,5.153-4.213,8.943,0.004
		c-0.01,0.988-0.02,1.978-0.029,2.967c-3.828,4.085-5.146,4.086-8.801,0.005C655.152,14.992,655.115,14,655.077,13.008z
		 M661.862,13.722c-0.337-0.959-1.094-1.886-2.694-1.634c-1.312,0.206-2.065,1.123-2.014,2.36c0.062,1.461,0.982,2.5,2.52,2.396
		C661.177,16.743,661.946,15.733,661.862,13.722z"/>
	<path fill-rule="evenodd" clip-rule="evenodd" fill="#46464A" d="M682.021,13.154c-0.123,1.183-0.247,2.367-0.369,3.55
		c-3.111,3.194-5.942,3.087-8.456-0.723c-0.038-0.991-0.076-1.981-0.114-2.971C676.729,8.783,678.452,8.811,682.021,13.154z
		 M679.874,13.782c-0.309-1.001-1.06-1.93-2.671-1.706c-1.322,0.184-2.079,1.089-2.054,2.333c0.029,1.479,0.957,2.516,2.482,2.443
		C679.132,16.781,679.937,15.785,679.874,13.782z"/>
	<path fill-rule="evenodd" clip-rule="evenodd" fill="#48484C" d="M709.38,16.52c-0.176-1.013-0.353-2.026-0.527-3.042
		c3.546-4.696,5.281-4.783,9.161-0.466c-0.01,0.988-0.02,1.976-0.028,2.964C715.339,19.688,712.485,20.098,709.38,16.52z
		 M715.912,14.283c-0.151-1.36-0.896-2.292-2.492-2.226c-1.313,0.055-2.146,0.866-2.253,2.134c-0.131,1.534,0.775,2.553,2.247,2.651
		C714.926,16.943,715.771,15.974,715.912,14.283z"/>
	<path fill-rule="evenodd" clip-rule="evenodd" fill="#46464A" d="M736.014,13.154c-0.123,1.183-0.246,2.366-0.367,3.548
		c-3.112,3.194-5.943,3.087-8.459-0.723c-0.038-0.99-0.075-1.98-0.113-2.969C730.723,8.783,732.445,8.811,736.014,13.154z
		 M731.288,12.033c-1.421,0.296-2.345,1.164-2.107,2.7c0.224,1.454,1.219,2.367,2.771,2.085c1.237-0.224,1.979-1.108,1.926-2.443
		C733.813,12.785,732.91,12.045,731.288,12.033z"/>
	<path fill-rule="evenodd" clip-rule="evenodd" fill="#494647" d="M744.973,31.138c0.268-0.393,0.533-0.786,0.801-1.179
		c2.713-3.049,5.322-2.419,7.873,0.222c0.141,0.856,0.428,1.616,1.319,1.972c-4.05,6.055-5.655,6.335-10.005,1.752
		C744.965,32.983,744.969,32.06,744.973,31.138z M751.859,31.716c-0.337-0.964-1.099-1.891-2.705-1.638
		c-1.316,0.206-2.072,1.124-2.021,2.367c0.062,1.468,0.985,2.507,2.529,2.404C751.173,34.749,751.942,33.735,751.859,31.716z"/>
	<path fill-rule="evenodd" clip-rule="evenodd" fill="#48484C" d="M403.42,16.521c-0.177-1.014-0.354-2.027-0.528-3.044
		c3.545-4.695,5.28-4.783,9.16-0.465c-0.01,0.988-0.02,1.978-0.029,2.967C409.378,19.689,406.524,20.103,403.42,16.521z
		 M409.951,14.283c-0.151-1.36-0.896-2.292-2.493-2.226c-1.313,0.055-2.146,0.866-2.253,2.134c-0.131,1.534,0.775,2.553,2.247,2.651
		C408.966,16.943,409.811,15.974,409.951,14.283z"/>
	<path fill-rule="evenodd" clip-rule="evenodd" fill="#494647" d="M385.018,31.138c0.268-0.393,0.534-0.786,0.802-1.179
		c2.711-3.049,5.321-2.418,7.872,0.22c0.111,1.255,0.224,2.511,0.337,3.767c-3.859,4.13-5.082,4.125-9.022-0.041
		C385.01,32.983,385.014,32.06,385.018,31.138z M389.61,34.922c1.453-0.274,2.37-1.045,2.305-2.633
		c-0.056-1.331-0.78-2.143-2.118-2.232c-1.579-0.106-2.533,0.795-2.605,2.279C387.118,33.847,388.113,34.684,389.61,34.922z"/>
	<path fill-rule="evenodd" clip-rule="evenodd" fill="#494647" d="M15.737,30.179c0.112,1.255,0.225,2.511,0.338,3.767
		c-3.86,4.131-5.079,4.126-9.024-0.042c0.005-0.922,0.009-1.844,0.014-2.765c0.267-0.393,0.535-0.786,0.802-1.18
		C10.576,26.916,13.185,27.535,15.737,30.179z M13.992,32.457c-0.096-1.582-0.908-2.458-2.485-2.406
		c-1.318,0.043-2.153,0.864-2.262,2.139c-0.131,1.538,0.776,2.561,2.255,2.659C13.021,34.95,13.866,33.977,13.992,32.457z"/>
	<path fill-rule="evenodd" clip-rule="evenodd" fill="#494647" d="M97.053,31.138c0.268-0.393,0.534-0.786,0.802-1.179
		c2.711-3.049,5.321-2.418,7.872,0.22c0.111,1.255,0.224,2.511,0.337,3.767c-3.859,4.131-5.082,4.125-9.022-0.041
		C97.045,32.983,97.049,32.06,97.053,31.138z M101.885,34.896c1.426-0.379,2.225-1.261,2.049-2.82
		c-0.152-1.348-1.008-2.06-2.313-2.029c-1.548,0.035-2.479,0.988-2.389,2.497C99.32,34.015,100.293,34.86,101.885,34.896z"/>
	<path fill-rule="evenodd" clip-rule="evenodd" fill="#46464A" d="M159.739,30.178c0.005,0.342,0.129,0.633,0.372,0.874
		c-0.013,0.97-0.024,1.939-0.036,2.91c-3.853,4.113-5.263,4.082-9.15-0.204l0.114-0.192c0.267-1.2,0.534-2.4,0.802-3.6
		C154.557,26.893,157.174,27.556,159.739,30.178z M155.36,30.031c-1.421,0.296-2.345,1.164-2.108,2.7
		c0.224,1.453,1.219,2.366,2.771,2.085c1.237-0.224,1.979-1.108,1.927-2.443C157.887,30.782,156.982,30.043,155.36,30.031z"/>
	<path fill-rule="evenodd" clip-rule="evenodd" fill="#46464A" d="M213.732,30.178c0.006,0.342,0.13,0.635,0.372,0.877
		c-0.012,0.968-0.023,1.937-0.035,2.905c-3.853,4.115-5.263,4.084-9.151-0.202l0.114-0.192c0.267-1.2,0.534-2.4,0.802-3.6
		C208.55,26.893,211.167,27.556,213.732,30.178z M211.956,32.238c-0.174-1.479-1.016-2.307-2.597-2.173
		c-1.327,0.112-2.106,0.992-2.146,2.247c-0.047,1.517,0.896,2.54,2.382,2.545C211.088,34.861,211.938,33.879,211.956,32.238z"/>
	<path fill-rule="evenodd" clip-rule="evenodd" fill="#494647" d="M321.698,30.178c0.014,0.348,0.145,0.645,0.392,0.89
		c-0.011,0.962-0.021,1.924-0.032,2.887c-3.898,4.117-5.106,4.111-9.043-0.05c0.004-0.922,0.008-1.845,0.012-2.767
		c0.268-0.393,0.534-0.786,0.802-1.179C316.538,26.916,319.146,27.536,321.698,30.178z M317.621,34.922
		c1.451-0.275,2.37-1.045,2.304-2.633c-0.056-1.331-0.781-2.143-2.118-2.232c-1.58-0.106-2.534,0.794-2.606,2.279
		C315.127,33.847,316.123,34.684,317.621,34.922z"/>
	<path fill-rule="evenodd" clip-rule="evenodd" fill="#494647" d="M483.678,30.178c0.014,0.348,0.145,0.645,0.392,0.89
		c-0.011,0.962-0.021,1.924-0.032,2.887c-3.898,4.117-5.105,4.111-9.043-0.05c0.004-0.922,0.008-1.845,0.012-2.767
		c0.268-0.393,0.534-0.786,0.802-1.179C478.518,26.916,481.125,27.536,483.678,30.178z M479.601,34.922
		c1.45-0.275,2.369-1.045,2.304-2.633c-0.056-1.331-0.781-2.143-2.117-2.232c-1.58-0.106-2.534,0.794-2.606,2.279
		C477.107,33.847,478.103,34.684,479.601,34.922z"/>
	<path fill-rule="evenodd" clip-rule="evenodd" fill="#494647" d="M511.002,31.138c0.268-0.393,0.533-0.786,0.801-1.179
		c2.712-3.049,5.322-2.418,7.872,0.22c0.111,1.255,0.224,2.511,0.337,3.767c-3.858,4.13-5.081,4.125-9.021-0.041
		C510.994,32.983,510.998,32.06,511.002,31.138z M515.905,30.039c-1.642-0.046-2.627,0.755-2.727,2.253
		c-0.101,1.521,0.873,2.513,2.359,2.575c1.244,0.053,2.161-0.718,2.332-2.045C518.068,31.287,517.394,30.322,515.905,30.039z"/>
	<path fill-rule="evenodd" clip-rule="evenodd" fill="#46464A" d="M591.685,30.179c0.109,1.251,0.219,2.503,0.329,3.754
		c-3.873,4.157-5.155,4.146-9.002-0.075c0.258-1.297,0.516-2.595,0.774-3.892C586.503,26.893,589.121,27.556,591.685,30.179z
		 M587.408,34.911c1.516-0.148,2.447-0.903,2.486-2.467c0.032-1.312-0.637-2.2-1.968-2.368c-1.553-0.195-2.568,0.607-2.744,2.108
		C585.001,33.724,585.984,34.554,587.408,34.911z"/>
	<path fill-rule="evenodd" clip-rule="evenodd" fill="#494647" d="M699.65,30.178c0.014,0.348,0.145,0.645,0.391,0.89
		c-0.01,0.962-0.021,1.924-0.031,2.887c-3.897,4.117-5.105,4.111-9.043-0.05c0.004-0.922,0.008-1.845,0.012-2.767
		c0.268-0.393,0.534-0.786,0.802-1.179C694.49,26.916,697.099,27.536,699.65,30.178z M697.905,32.524
		c-0.066-1.605-0.863-2.497-2.439-2.479c-1.322,0.016-2.167,0.832-2.3,2.099c-0.162,1.535,0.726,2.567,2.205,2.698
		C696.901,34.978,697.749,34.016,697.905,32.524z"/>
	<path fill-rule="evenodd" clip-rule="evenodd" fill="#7379B9" d="M565.095,13.01c0.038,0.99,0.076,1.98,0.112,2.97
		c-3.068-0.001-6.136-0.002-9.201-0.002c0.009-0.989,0.019-1.978,0.028-2.966C559.054,13.012,562.074,13.011,565.095,13.01z"/>
	<path fill-rule="evenodd" clip-rule="evenodd" fill="#7379B9" d="M133.148,13.01c0.038,0.989,0.076,1.979,0.112,2.968
		c-3.068-0.001-6.135-0.002-9.201-0.002c0.01-0.988,0.019-1.977,0.028-2.964C127.108,13.012,130.128,13.011,133.148,13.01z"/>
	<path fill-rule="evenodd" clip-rule="evenodd" fill="#7379B9" d="M619.082,13.008c0.038,0.992,0.075,1.984,0.111,2.975
		c-3.066-0.002-6.131-0.003-9.195-0.005c0.01-0.989,0.02-1.978,0.029-2.966C613.047,13.011,616.063,13.009,619.082,13.008z"/>
	<path fill-rule="evenodd" clip-rule="evenodd" fill="#7379B9" d="M637.079,13.008c0.038,0.992,0.075,1.984,0.111,2.975
		c-3.065-0.002-6.13-0.003-9.194-0.005c0.01-0.989,0.02-1.978,0.029-2.966C631.044,13.011,634.062,13.009,637.079,13.008z"/>
	<path fill-rule="evenodd" clip-rule="evenodd" fill="#7379B9" d="M655.077,13.008c0.038,0.992,0.075,1.984,0.111,2.975
		c-3.065-0.002-6.13-0.003-9.195-0.005c0.01-0.989,0.02-1.978,0.029-2.966C649.042,13.011,652.059,13.009,655.077,13.008z"/>
	<path fill-rule="evenodd" clip-rule="evenodd" fill="#7379B9" d="M673.081,13.01c0.038,0.99,0.076,1.98,0.112,2.97
		c-3.068-0.001-6.135-0.002-9.202-0.002c0.01-0.989,0.02-1.978,0.029-2.966C667.041,13.012,670.061,13.011,673.081,13.01z"/>
	<path fill-rule="evenodd" clip-rule="evenodd" fill="#7379B9" d="M79.155,13.01c0.038,0.99,0.076,1.98,0.112,2.97
		c-3.068-0.001-6.135-0.002-9.202-0.002c0.01-0.989,0.019-1.978,0.029-2.966C73.115,13.012,76.135,13.011,79.155,13.01z"/>
	<path fill-rule="evenodd" clip-rule="evenodd" fill="#7379B9" d="M295.128,13.01c0.038,0.99,0.076,1.98,0.112,2.97
		c-3.068-0.001-6.135-0.002-9.202-0.002c0.01-0.989,0.02-1.978,0.029-2.966C289.088,13.012,292.108,13.011,295.128,13.01z"/>
	<path fill-rule="evenodd" clip-rule="evenodd" fill="#7379B9" d="M547.091,13.008c0.038,0.991,0.075,1.983,0.111,2.974
		c-3.066-0.002-6.13-0.003-9.194-0.004c0.009-0.989,0.019-1.978,0.028-2.966C541.056,13.011,544.072,13.009,547.091,13.008z"/>
	<path fill-rule="evenodd" clip-rule="evenodd" fill="#7379B9" d="M43.154,13.008c0.038,0.992,0.075,1.984,0.111,2.975
		c-3.066-0.002-6.131-0.003-9.195-0.005c0.01-0.989,0.019-1.978,0.029-2.966C37.118,13.011,40.136,13.009,43.154,13.008z"/>
	<path fill-rule="evenodd" clip-rule="evenodd" fill="#7379B9" d="M349.116,13.008c0.038,0.991,0.075,1.983,0.111,2.974
		c-3.066-0.002-6.13-0.003-9.194-0.004c0.009-0.989,0.019-1.978,0.028-2.966C343.08,13.011,346.097,13.009,349.116,13.008z"/>
	<path fill-rule="evenodd" clip-rule="evenodd" fill="#7379B9" d="M367.119,13.01c0.038,0.99,0.076,1.98,0.112,2.969
		c-3.068-0.001-6.135-0.001-9.201-0.002c0.009-0.989,0.019-1.978,0.028-2.966C361.079,13.012,364.099,13.011,367.119,13.01z"/>
	<path fill-rule="evenodd" clip-rule="evenodd" fill="#7379B9" d="M259.127,13.008c0.038,0.992,0.075,1.984,0.111,2.975
		c-3.066-0.002-6.13-0.003-9.195-0.005c0.01-0.989,0.02-1.978,0.029-2.966C253.09,13.011,256.108,13.009,259.127,13.008z"/>
	<path fill-rule="evenodd" clip-rule="evenodd" fill="#7379B9" d="M412.022,15.978c0.01-0.989,0.02-1.978,0.029-2.966
		c3.019,0,6.035-0.002,9.055-0.003c0.038,0.991,0.075,1.983,0.111,2.975C418.151,15.981,415.088,15.979,412.022,15.978z"/>
	<path fill-rule="evenodd" clip-rule="evenodd" fill="#7379B9" d="M439.104,13.008c0.038,0.992,0.075,1.984,0.111,2.975
		c-3.066-0.002-6.13-0.003-9.195-0.005c0.01-0.989,0.02-1.978,0.029-2.966C433.069,13.011,436.086,13.009,439.104,13.008z"/>
	<path fill-rule="evenodd" clip-rule="evenodd" fill="#7379B9" d="M457.107,13.01c0.038,0.99,0.076,1.98,0.112,2.97
		c-3.067-0.001-6.135-0.002-9.201-0.002c0.01-0.989,0.02-1.978,0.029-2.966C451.067,13.012,454.088,13.011,457.107,13.01z"/>
	<path fill-rule="evenodd" clip-rule="evenodd" fill="#7379B9" d="M241.129,13.008c0.038,0.992,0.075,1.984,0.111,2.975
		c-3.066-0.002-6.13-0.003-9.195-0.005c0.01-0.989,0.02-1.978,0.029-2.966C235.094,13.011,238.111,13.009,241.129,13.008z"/>
	<path fill-rule="evenodd" clip-rule="evenodd" fill="#7379B9" d="M187.142,13.01c0.038,0.989,0.076,1.979,0.112,2.968
		c-3.068-0.001-6.135-0.002-9.201-0.002c0.01-0.988,0.019-1.977,0.028-2.964C181.102,13.012,184.122,13.011,187.142,13.01z"/>
	<path fill-rule="evenodd" clip-rule="evenodd" fill="#7379B9" d="M61.152,13.008c0.038,0.992,0.075,1.984,0.111,2.975
		c-3.066-0.002-6.13-0.003-9.195-0.005c0.01-0.989,0.019-1.978,0.029-2.966C55.116,13.011,58.134,13.009,61.152,13.008z"/>
	<path fill-rule="evenodd" clip-rule="evenodd" fill="#7379B9" d="M277.125,13.008c0.038,0.992,0.075,1.984,0.111,2.975
		c-3.066-0.002-6.13-0.003-9.195-0.005c0.01-0.989,0.02-1.978,0.029-2.966C271.089,13.011,274.106,13.009,277.125,13.008z"/>
	<path fill-rule="evenodd" clip-rule="evenodd" fill="#7379B9" d="M727.074,13.01c0.038,0.989,0.075,1.979,0.112,2.968
		c-3.068-0.001-6.135-0.002-9.201-0.002c0.009-0.988,0.019-1.977,0.028-2.964C721.034,13.012,724.054,13.011,727.074,13.01z"/>
	<path fill-rule="evenodd" clip-rule="evenodd" fill="#E77482" d="M313.026,31.138c-0.004,0.922-0.008,1.845-0.012,2.767
		c-32.982,0.019-65.964,0.038-98.947,0.057c0.013-0.97,0.024-1.938,0.036-2.906c1.109-0.05,2.219-0.1,3.33-0.149
		c30.839-0.02,61.677-0.04,92.515-0.061C310.975,30.943,312,31.041,313.026,31.138z"/>
	<path fill-rule="evenodd" clip-rule="evenodd" fill="#E77482" d="M690.979,31.138c-0.004,0.922-0.008,1.845-0.012,2.767
		c-32.715-0.023-65.43-0.047-98.146-0.07c0.802-0.984,1.604-1.97,2.404-2.954c30.892-0.012,61.784-0.023,92.677-0.035
		C688.928,30.943,689.953,31.041,690.979,31.138z"/>
	<path fill-rule="evenodd" clip-rule="evenodd" fill="#E77482" d="M97.053,31.138c-0.004,0.922-0.008,1.845-0.012,2.767
		c-26.716-0.023-53.432-0.047-80.148-0.07c0.8-0.984,1.602-1.97,2.403-2.954c24.893-0.012,49.786-0.023,74.68-0.035
		C95.002,30.943,96.027,31.041,97.053,31.138z"/>
	<path fill-rule="evenodd" clip-rule="evenodd" fill="#E77482" d="M475.006,31.138c-0.004,0.922-0.008,1.845-0.012,2.767
		c-26.715-0.023-53.432-0.047-80.148-0.07c0.801-0.984,1.603-1.97,2.403-2.954c24.893-0.012,49.786-0.023,74.68-0.035
		C472.954,30.943,473.979,31.041,475.006,31.138z"/>
	<path fill-rule="evenodd" clip-rule="evenodd" fill="#E77482" d="M322.058,33.955c0.011-0.963,0.021-1.925,0.032-2.887
		c1.04-0.078,2.081-0.157,3.121-0.235c18.91,0.005,37.82,0.009,56.73,0.013c1.026,0.098,2.052,0.195,3.077,0.293
		c-0.004,0.922-0.008,1.845-0.012,2.767C364.023,33.921,343.04,33.938,322.058,33.955z"/>
	<path fill-rule="evenodd" clip-rule="evenodd" fill="#E77483" d="M520.825,33.834c0.802-0.985,1.604-1.971,2.404-2.956
		c18.874,0.014,37.747,0.027,56.622,0.041c0.805,0.973,1.61,1.946,2.417,2.919C561.789,33.837,541.308,33.836,520.825,33.834z"/>
	<path fill-rule="evenodd" clip-rule="evenodd" fill="#E77482" d="M700.01,33.955c0.011-0.963,0.021-1.925,0.031-2.887
		c1.041-0.078,2.081-0.157,3.12-0.235c12.912,0.005,25.824,0.009,38.736,0.013c1.025,0.098,2.051,0.195,3.075,0.293
		c-0.004,0.922-0.008,1.845-0.012,2.767C729.977,33.921,714.993,33.938,700.01,33.955z"/>
	<path fill-rule="evenodd" clip-rule="evenodd" fill="#E77483" d="M205.032,33.566l-0.114,0.192
		c-14.949,0.068-29.896,0.137-44.844,0.204c0.013-0.971,0.024-1.94,0.037-2.91c1.039-0.074,2.078-0.148,3.117-0.222
		c12.89,0.03,25.781,0.06,38.673,0.089C202.944,31.801,203.988,32.684,205.032,33.566z"/>
	<path fill-rule="evenodd" clip-rule="evenodd" fill="#E77483" d="M151.039,33.566l-0.114,0.192
		c-14.682,0.025-29.364,0.052-44.047,0.077c0.8-0.986,1.602-1.971,2.403-2.956c12.875,0.014,25.75,0.026,38.627,0.04
		C148.951,31.801,149.995,32.684,151.039,33.566z"/>
	<path fill-rule="evenodd" clip-rule="evenodd" fill="#E77482" d="M511.002,31.138c-0.004,0.922-0.008,1.845-0.012,2.767
		c-8.984,0.017-17.969,0.033-26.953,0.05c0.011-0.963,0.021-1.925,0.032-2.887c1.037-0.078,2.075-0.156,3.112-0.234
		c6.917,0.004,13.834,0.008,20.751,0.013C508.956,30.944,509.979,31.041,511.002,31.138z"/>
	<path fill-rule="evenodd" clip-rule="evenodd" fill="#E8E8E8" d="M31.973,14.24c-0.018,1.639-0.866,2.618-2.354,2.614
		c-1.483-0.004-2.423-1.027-2.376-2.539c0.039-1.251,0.816-2.13,2.14-2.242C30.96,11.939,31.799,12.766,31.973,14.24z"/>
	<path fill-rule="evenodd" clip-rule="evenodd" fill="#E8E8E8" d="M49.957,14.091c0.053,1.691-0.751,2.684-2.245,2.756
		c-1.521,0.073-2.448-0.962-2.479-2.438c-0.025-1.24,0.729-2.166,2.05-2.323C48.838,11.901,49.736,12.664,49.957,14.091z"/>
	<path fill-rule="evenodd" clip-rule="evenodd" fill="#E8E8E8" d="M65.374,12.038c1.617,0.014,2.519,0.751,2.582,2.337
		c0.053,1.332-0.688,2.214-1.922,2.438c-1.548,0.281-2.541-0.632-2.764-2.082C63.033,13.2,63.955,12.333,65.374,12.038z"/>
	<path fill-rule="evenodd" clip-rule="evenodd" fill="#E8E8E8" d="M85.981,14.458c-0.127,1.52-0.973,2.492-2.49,2.391
		c-1.477-0.099-2.384-1.12-2.253-2.657c0.108-1.272,0.943-2.093,2.26-2.136C85.073,12.003,85.885,12.879,85.981,14.458z"/>
	<path fill-rule="evenodd" clip-rule="evenodd" fill="#E8E8E8" d="M121.961,14.24c-0.018,1.639-0.866,2.618-2.354,2.614
		c-1.483-0.004-2.424-1.027-2.376-2.539c0.039-1.251,0.816-2.13,2.139-2.242C120.949,11.939,121.788,12.766,121.961,14.24z"/>
	<path fill-rule="evenodd" clip-rule="evenodd" fill="#E8E8E8" d="M139.955,13.874c0.021,1.968-0.813,2.951-2.307,2.982
		c-1.507,0.031-2.441-1.002-2.428-2.5c0.011-1.245,0.772-2.133,2.104-2.288C138.947,11.879,139.678,12.818,139.955,13.874z"/>
	<path fill-rule="evenodd" clip-rule="evenodd" fill="#E8E8E8" d="M173.714,12.027c1.515,0.188,2.317,1.034,2.215,2.608
		c-0.087,1.33-0.905,2.139-2.165,2.211c-1.55,0.09-2.499-0.913-2.54-2.37C171.183,12.992,172.132,12.118,173.714,12.027z"/>
	<path fill-rule="evenodd" clip-rule="evenodd" fill="#E8E8E8" d="M193.982,14.283c-0.142,1.695-0.987,2.666-2.504,2.565
		c-1.477-0.099-2.383-1.12-2.252-2.657c0.108-1.272,0.943-2.083,2.259-2.139C193.085,11.985,193.832,12.919,193.982,14.283z"/>
	<path fill-rule="evenodd" clip-rule="evenodd" fill="#E8E8E8" d="M227.707,12.027c1.515,0.188,2.317,1.034,2.215,2.608
		c-0.087,1.33-0.905,2.139-2.165,2.211c-1.55,0.09-2.499-0.913-2.54-2.37C225.176,12.992,226.125,12.118,227.707,12.027z"/>
	<path fill-rule="evenodd" clip-rule="evenodd" fill="#E8E8E8" d="M247.966,14.534c-0.26,1.557-1.1,2.506-2.643,2.288
		c-1.471-0.208-2.315-1.261-2.075-2.78c0.195-1.236,1.056-2.027,2.382-1.993C247.231,12.091,247.902,13.076,247.966,14.534z"/>
	<path fill-rule="evenodd" clip-rule="evenodd" fill="#E8E8E8" d="M263.626,16.917c-1.49-0.239-2.483-1.074-2.409-2.579
		c0.072-1.478,1.021-2.378,2.596-2.271c1.331,0.09,2.055,0.9,2.11,2.225C265.989,15.875,265.071,16.641,263.626,16.917z"/>
	<path fill-rule="evenodd" clip-rule="evenodd" fill="#E8E8E8" d="M281.384,16.898c-1.407-0.391-2.372-1.24-2.149-2.771
		c0.217-1.483,1.242-2.278,2.79-2.038c1.316,0.205,1.962,1.106,1.899,2.416C283.848,16.067,282.913,16.802,281.384,16.898z"/>
	<path fill-rule="evenodd" clip-rule="evenodd" fill="#E8E8E8" d="M299.697,12.022c1.521,0.187,2.323,1.035,2.221,2.614
		c-0.086,1.333-0.905,2.144-2.169,2.217c-1.553,0.089-2.505-0.914-2.546-2.375C297.16,12.988,298.112,12.113,299.697,12.022z"/>
	<path fill-rule="evenodd" clip-rule="evenodd" fill="#E8E8E8" d="M335.693,12.027c1.516,0.188,2.317,1.034,2.215,2.608
		c-0.086,1.33-0.905,2.139-2.165,2.211c-1.55,0.09-2.499-0.913-2.54-2.37C333.163,12.992,334.111,12.118,335.693,12.027z"/>
	<path fill-rule="evenodd" clip-rule="evenodd" fill="#E8E8E8" d="M355.939,14.364c-0.074,1.57-0.931,2.541-2.426,2.486
		c-1.473-0.054-2.403-1.073-2.307-2.603c0.08-1.261,0.885-2.109,2.203-2.182C354.981,11.979,355.814,12.821,355.939,14.364z"/>
	<path fill-rule="evenodd" clip-rule="evenodd" fill="#E8E8E8" d="M371.333,12.033c1.622,0.012,2.525,0.751,2.588,2.342
		c0.053,1.335-0.688,2.219-1.925,2.443c-1.553,0.281-2.548-0.632-2.771-2.085C368.988,13.197,369.912,12.329,371.333,12.033z"/>
	<path fill-rule="evenodd" clip-rule="evenodd" fill="#E8E8E8" d="M425.843,16.89c-1.586-0.036-2.556-0.881-2.642-2.346
		c-0.09-1.502,0.839-2.455,2.381-2.489c1.299-0.029,2.152,0.682,2.305,2.024C428.063,15.635,427.262,16.511,425.843,16.89z"/>
	<path fill-rule="evenodd" clip-rule="evenodd" fill="#E8E8E8" d="M445.95,14.32c-0.177,1.692-1.023,2.652-2.546,2.517
		c-1.473-0.13-2.358-1.16-2.197-2.689c0.132-1.262,0.972-2.07,2.29-2.095C445.09,12.022,445.814,12.973,445.95,14.32z"/>
	<path fill-rule="evenodd" clip-rule="evenodd" fill="#E8E8E8" d="M463.932,14.526c-0.156,1.49-1.003,2.452-2.531,2.316
		c-1.477-0.13-2.364-1.162-2.202-2.695c0.133-1.265,0.976-2.082,2.297-2.097C463.069,12.032,463.865,12.923,463.932,14.526z"/>
	<path fill-rule="evenodd" clip-rule="evenodd" fill="#E8E8E8" d="M497.672,16.915c-1.538-0.174-2.521-1.029-2.494-2.517
		c0.027-1.478,0.965-2.414,2.545-2.34c1.322,0.062,2.088,0.832,2.174,2.172C499.999,15.82,499.099,16.602,497.672,16.915z"/>
	<path fill-rule="evenodd" clip-rule="evenodd" fill="#E8E8E8" d="M533.522,12.014c1.628,0.173,2.443,1.009,2.363,2.584
		c-0.066,1.327-0.864,2.151-2.129,2.246c-1.559,0.117-2.49-0.878-2.578-2.331C531.087,12.978,532.088,12.176,533.522,12.014z"/>
	<path fill-rule="evenodd" clip-rule="evenodd" fill="#E8E8E8" d="M553.895,14.091c0.053,1.691-0.751,2.684-2.246,2.756
		c-1.521,0.073-2.447-0.962-2.478-2.438c-0.025-1.24,0.729-2.166,2.049-2.323C552.775,11.901,553.673,12.664,553.895,14.091z"/>
	<path fill-rule="evenodd" clip-rule="evenodd" fill="#E8E8E8" d="M571.918,14.526c-0.156,1.49-1.003,2.452-2.531,2.316
		c-1.477-0.13-2.364-1.162-2.202-2.695c0.133-1.265,0.976-2.082,2.297-2.097C571.056,12.032,571.852,12.923,571.918,14.526z"/>
	<path fill-rule="evenodd" clip-rule="evenodd" fill="#E8E8E8" d="M607.892,13.875c0.021,1.963-0.813,2.944-2.303,2.975
		c-1.501,0.031-2.435-1-2.421-2.494c0.012-1.241,0.771-2.128,2.098-2.283C606.886,11.885,607.613,12.822,607.892,13.875z"/>
	<path fill-rule="evenodd" clip-rule="evenodd" fill="#E8E8E8" d="M625.9,14.608c-0.191,1.442-1.032,2.397-2.568,2.223
		c-1.472-0.167-2.338-1.207-2.142-2.732c0.161-1.253,1.021-2.063,2.334-2.049C625.09,12.066,625.873,12.972,625.9,14.608z"/>
	<path fill-rule="evenodd" clip-rule="evenodd" fill="#E8E8E8" d="M641.862,16.934c-1.742-0.199-2.724-1.052-2.696-2.535
		c0.026-1.474,0.963-2.41,2.539-2.335c1.319,0.062,2.068,0.832,2.173,2.167C644.006,15.854,642.964,16.501,641.862,16.934z"/>
	<path fill-rule="evenodd" clip-rule="evenodd" fill="#E8E8E8" d="M661.862,13.722c0.084,2.012-0.686,3.021-2.188,3.122
		c-1.537,0.104-2.458-0.935-2.52-2.396c-0.052-1.237,0.702-2.154,2.014-2.36C660.769,11.836,661.525,12.762,661.862,13.722z"/>
	<path fill-rule="evenodd" clip-rule="evenodd" fill="#E8E8E8" d="M679.874,13.782c0.063,2.003-0.742,2.999-2.242,3.07
		c-1.525,0.073-2.453-0.963-2.482-2.443c-0.025-1.244,0.731-2.149,2.054-2.333C678.814,11.852,679.565,12.78,679.874,13.782z"/>
	<path fill-rule="evenodd" clip-rule="evenodd" fill="#E8E8E8" d="M715.912,14.283c-0.141,1.691-0.986,2.66-2.498,2.559
		c-1.472-0.098-2.378-1.117-2.247-2.651c0.107-1.269,0.94-2.08,2.253-2.134C715.016,11.991,715.761,12.923,715.912,14.283z"/>
	<path fill-rule="evenodd" clip-rule="evenodd" fill="#E8E8E8" d="M731.288,12.033c1.622,0.012,2.525,0.751,2.589,2.342
		c0.053,1.335-0.688,2.219-1.926,2.443c-1.552,0.281-2.547-0.632-2.771-2.085C728.943,13.197,729.867,12.329,731.288,12.033z"/>
	<path fill-rule="evenodd" clip-rule="evenodd" fill="#E8E8E8" d="M751.859,31.716c0.083,2.019-0.687,3.032-2.196,3.134
		c-1.544,0.103-2.468-0.937-2.529-2.404c-0.052-1.243,0.704-2.161,2.021-2.367C750.761,29.826,751.522,30.752,751.859,31.716z"/>
	<path fill-rule="evenodd" clip-rule="evenodd" fill="#E8E8E8" d="M409.951,14.283c-0.141,1.69-0.985,2.66-2.499,2.559
		c-1.472-0.098-2.378-1.117-2.247-2.651c0.107-1.269,0.939-2.08,2.253-2.134C409.055,11.991,409.8,12.923,409.951,14.283z"/>
	<path fill-rule="evenodd" clip-rule="evenodd" fill="#E8E8E8" d="M389.61,34.922c-1.497-0.238-2.492-1.075-2.419-2.586
		c0.072-1.484,1.026-2.386,2.605-2.279c1.338,0.09,2.063,0.901,2.118,2.232C391.98,33.877,391.063,34.648,389.61,34.922z"/>
	<path fill-rule="evenodd" clip-rule="evenodd" fill="#E8E8E8" d="M13.992,32.457c-0.126,1.521-0.972,2.493-2.492,2.392
		c-1.479-0.099-2.386-1.121-2.255-2.659c0.108-1.274,0.944-2.096,2.262-2.139C13.084,29.999,13.896,30.875,13.992,32.457z"/>
	<path fill-rule="evenodd" clip-rule="evenodd" fill="#E8E8E8" d="M101.885,34.896c-1.592-0.036-2.565-0.881-2.653-2.353
		c-0.09-1.509,0.841-2.462,2.389-2.497c1.305-0.03,2.161,0.682,2.313,2.029C104.11,33.635,103.311,34.517,101.885,34.896z"/>
	<path fill-rule="evenodd" clip-rule="evenodd" fill="#E8E8E8" d="M155.36,30.031c1.622,0.013,2.526,0.751,2.59,2.342
		c0.053,1.335-0.689,2.22-1.927,2.443c-1.552,0.281-2.547-0.632-2.771-2.085C153.015,31.195,153.939,30.327,155.36,30.031z"/>
	<path fill-rule="evenodd" clip-rule="evenodd" fill="#E8E8E8" d="M211.956,32.238c-0.019,1.642-0.868,2.623-2.36,2.619
		c-1.487-0.005-2.429-1.028-2.382-2.545c0.04-1.255,0.819-2.135,2.146-2.247C210.94,29.931,211.782,30.759,211.956,32.238z"/>
	<path fill-rule="evenodd" clip-rule="evenodd" fill="#E8E8E8" d="M317.621,34.922c-1.498-0.238-2.493-1.075-2.42-2.586
		c0.072-1.485,1.026-2.386,2.606-2.279c1.336,0.09,2.062,0.901,2.118,2.232C319.99,33.877,319.071,34.647,317.621,34.922z"/>
	<path fill-rule="evenodd" clip-rule="evenodd" fill="#E8E8E8" d="M479.601,34.922c-1.498-0.238-2.493-1.075-2.42-2.586
		c0.072-1.485,1.026-2.386,2.606-2.279c1.336,0.09,2.062,0.901,2.117,2.232C481.97,33.877,481.051,34.647,479.601,34.922z"/>
	<path fill-rule="evenodd" clip-rule="evenodd" fill="#E8E8E8" d="M515.905,30.039c1.488,0.283,2.163,1.248,1.965,2.783
		c-0.171,1.327-1.088,2.098-2.332,2.045c-1.486-0.063-2.46-1.054-2.359-2.575C513.278,30.793,514.264,29.993,515.905,30.039z"/>
	<path fill-rule="evenodd" clip-rule="evenodd" fill="#E8E8E8" d="M587.408,34.911c-1.424-0.356-2.407-1.187-2.226-2.727
		c0.176-1.501,1.191-2.304,2.744-2.108c1.331,0.168,2,1.057,1.968,2.368C589.855,34.007,588.924,34.762,587.408,34.911z"/>
	<path fill-rule="evenodd" clip-rule="evenodd" fill="#E8E8E8" d="M697.905,32.524c-0.156,1.492-1.004,2.454-2.534,2.318
		c-1.479-0.131-2.367-1.163-2.205-2.698c0.133-1.267,0.978-2.083,2.3-2.099C697.042,30.027,697.839,30.918,697.905,32.524z"/>
</g>
</svg>
