<?xml version="1.0" encoding="utf-8"?>
<!-- Generator: Adobe Illustrator 16.0.3, SVG Export Plug-In . SVG Version: 6.00 Build 0)  -->
<!DOCTYPE svg PUBLIC "-//W3C//DTD SVG 1.1//EN" "http://www.w3.org/Graphics/SVG/1.1/DTD/svg11.dtd">
<svg version="1.1" id="Ebene_1" xmlns="http://www.w3.org/2000/svg" xmlns:xlink="http://www.w3.org/1999/xlink" x="0px" y="0px"
	 width="756.905px" height="28.996px" viewBox="0 0 756.905 28.996" enable-background="new 0 0 756.905 28.996"
	 xml:space="preserve">
<g>
	<path fill-rule="evenodd" clip-rule="evenodd" fill="#E77482" d="M750.856,14.089c2.35-0.03,4.699-0.061,7.049-0.091c0,1,0,2,0,3
		c-2.338-0.025-4.674-0.05-7.012-0.075C750.881,15.979,750.869,15.033,750.856,14.089z"/>
	<path fill-rule="evenodd" clip-rule="evenodd" fill="#4B4848" d="M12.979,16.927C8.92,21.45,8.087,21.346,2.117,15.565
		c5.864-5.81,6.634-5.915,10.826-1.479C12.955,15.033,12.966,15.979,12.979,16.927z M8.321,17.988
		c1.432-0.096,2.443-0.89,2.44-2.402c-0.003-1.475-0.951-2.481-2.481-2.445c-1.25,0.03-2.114,0.813-2.229,2.151
		C5.916,16.856,6.674,17.741,8.321,17.988z"/>
	<path fill-rule="evenodd" clip-rule="evenodd" fill="#4B4848" d="M48.974,16.927c-3.752,4.226-5.374,4.233-9.098,0.048
		c0.009-0.98,0.018-1.962,0.027-2.943c3.895-4.111,5.104-4.104,9.035,0.055C48.95,15.033,48.961,15.979,48.974,16.927z
		 M46.809,15.436c-0.341-1.404-1.105-2.456-2.668-2.279c-1.518,0.171-2.254,1.218-2.088,2.761c0.144,1.346,1.006,2.053,2.308,2.028
		C45.916,17.916,46.659,16.943,46.809,15.436z"/>
	<path fill-rule="evenodd" clip-rule="evenodd" fill="#4B4848" d="M57.9,14.031c3.895-4.111,5.104-4.104,9.036,0.055
		c0.012,0.947,0.023,1.894,0.036,2.841c-3.752,4.226-5.374,4.233-9.098,0.048C57.883,15.994,57.892,15.013,57.9,14.031z
		 M62.533,17.971c1.446-0.256,2.391-1.102,2.196-2.644c-0.184-1.46-1.165-2.385-2.716-2.157c-1.252,0.184-2.009,1.06-1.99,2.387
		C60.045,17.135,60.926,17.913,62.533,17.971z"/>
	<path fill-rule="evenodd" clip-rule="evenodd" fill="#4B4848" d="M84.969,16.927c-3.752,4.226-5.373,4.233-9.097,0.048
		c0.009-0.98,0.018-1.962,0.027-2.943c3.895-4.111,5.104-4.104,9.035,0.055C84.945,15.033,84.957,15.979,84.969,16.927z
		 M82.811,15.472c-0.327-1.412-1.078-2.478-2.644-2.319c-1.511,0.153-2.271,1.184-2.124,2.732c0.128,1.349,0.973,2.063,2.279,2.06
		C81.889,17.939,82.625,16.96,82.811,15.472z"/>
	<path fill-rule="evenodd" clip-rule="evenodd" fill="#4B4848" d="M102.967,16.927c-3.752,4.226-5.374,4.233-9.098,0.048
		c0.009-0.98,0.018-1.962,0.026-2.943c3.895-4.111,5.105-4.104,9.036,0.055C102.943,15.033,102.955,15.979,102.967,16.927z
		 M100.763,15.986c0.104-1.477-0.587-2.502-2.053-2.815c-1.319-0.281-2.262,0.49-2.596,1.68c-0.399,1.424,0.103,2.659,1.656,3.035
		C99.28,18.252,100.243,17.45,100.763,15.986z"/>
	<path fill-rule="evenodd" clip-rule="evenodd" fill="#4B4848" d="M111.893,14.031c3.895-4.111,5.105-4.104,9.036,0.055
		c0.012,0.947,0.023,1.894,0.035,2.841c-3.752,4.226-5.374,4.233-9.098,0.048C111.875,15.994,111.884,15.013,111.893,14.031z
		 M118.792,15.367c-0.374-1.388-1.158-2.422-2.72-2.203c-1.511,0.211-2.227,1.276-2.023,2.813c0.177,1.34,1.064,2.026,2.361,1.968
		C117.958,17.876,118.696,16.9,118.792,15.367z"/>
	<path fill-rule="evenodd" clip-rule="evenodd" fill="#4B4848" d="M138.962,16.927c-3.752,4.226-5.373,4.233-9.097,0.049
		c0.009-0.981,0.018-1.963,0.026-2.944c3.895-4.111,5.104-4.104,9.036,0.055C138.938,15.033,138.95,15.979,138.962,16.927z
		 M136.783,15.829c-0.047-1.573-0.843-2.609-2.324-2.684c-1.501-0.074-2.418,0.875-2.441,2.435c-0.02,1.316,0.664,2.183,1.995,2.342
		C135.583,18.109,136.415,17.229,136.783,15.829z"/>
	<path fill-rule="evenodd" clip-rule="evenodd" fill="#4B4848" d="M156.96,16.927c-3.752,4.226-5.374,4.233-9.098,0.049
		c0.009-0.981,0.018-1.963,0.026-2.944c3.895-4.111,5.105-4.104,9.036,0.055C156.937,15.033,156.948,15.979,156.96,16.927z
		 M152.18,13.043c-1.185,0.385-2.246,1.01-2.166,2.638c0.065,1.323,0.757,2.151,2.096,2.251c1.573,0.116,2.534-0.765,2.623-2.251
		C154.825,14.164,153.827,13.337,152.18,13.043z"/>
	<path fill-rule="evenodd" clip-rule="evenodd" fill="#4B4848" d="M165.887,14.031c3.895-4.111,5.104-4.104,9.036,0.055
		c0.012,0.947,0.023,1.894,0.035,2.841c-3.752,4.226-5.373,4.233-9.097,0.049C165.869,15.994,165.878,15.013,165.887,14.031z
		 M172.788,15.741c-0.115-1.549-0.925-2.59-2.411-2.604c-1.482-0.015-2.392,0.948-2.361,2.521c0.026,1.324,0.733,2.154,2.07,2.272
		C171.669,18.069,172.456,17.148,172.788,15.741z"/>
	<path fill-rule="evenodd" clip-rule="evenodd" fill="#4B4848" d="M183.884,14.031c3.895-4.111,5.105-4.104,9.036,0.055
		c0.012,0.947,0.023,1.894,0.035,2.841c-3.752,4.226-5.374,4.233-9.098,0.049C183.867,15.994,183.875,15.013,183.884,14.031z
		 M190.773,15.854c-0.031-1.567-0.807-2.607-2.292-2.704c-1.514-0.099-2.427,0.849-2.472,2.4c-0.037,1.31,0.638,2.191,1.966,2.367
		C189.542,18.125,190.388,17.257,190.773,15.854z"/>
	<path fill-rule="evenodd" clip-rule="evenodd" fill="#4B4848" d="M210.953,16.927c-3.752,4.226-5.374,4.233-9.098,0.049
		c0.009-0.981,0.018-1.963,0.026-2.944c3.895-4.111,5.105-4.104,9.036,0.055C210.93,15.033,210.941,15.979,210.953,16.927z
		 M208.784,15.741c-0.115-1.549-0.925-2.59-2.411-2.604c-1.482-0.015-2.392,0.948-2.361,2.521c0.026,1.324,0.733,2.154,2.07,2.272
		C207.665,18.069,208.452,17.148,208.784,15.741z"/>
	<path fill-rule="evenodd" clip-rule="evenodd" fill="#4B4848" d="M219.88,14.031c3.895-4.111,5.104-4.104,9.036,0.055
		c0.012,0.947,0.023,1.894,0.035,2.841c-3.752,4.226-5.373,4.233-9.097,0.049C219.862,15.994,219.871,15.013,219.88,14.031z
		 M224.266,13.042c-1.237,0.333-2.295,0.952-2.265,2.571c0.025,1.323,0.699,2.177,2.033,2.311c1.561,0.157,2.549-0.682,2.686-2.177
		C226.86,14.213,225.864,13.392,224.266,13.042z"/>
	<path fill-rule="evenodd" clip-rule="evenodd" fill="#4B4848" d="M246.949,16.927c-3.752,4.226-5.374,4.233-9.098,0.049
		c0.009-0.981,0.018-1.963,0.026-2.944c3.895-4.111,5.105-4.104,9.036,0.055C246.925,15.033,246.937,15.979,246.949,16.927z
		 M244.776,15.367c-0.374-1.388-1.158-2.422-2.719-2.203c-1.512,0.211-2.227,1.276-2.023,2.813c0.176,1.34,1.064,2.026,2.361,1.968
		C243.942,17.876,244.68,16.9,244.776,15.367z"/>
	<path fill-rule="evenodd" clip-rule="evenodd" fill="#4B4848" d="M255.875,14.031c3.895-4.111,5.105-4.104,9.036,0.055
		c0.012,0.947,0.023,1.894,0.035,2.841c-3.752,4.226-5.373,4.233-9.098,0.049C255.857,15.994,255.866,15.013,255.875,14.031z
		 M262.792,15.518c-0.299-1.433-1.055-2.498-2.61-2.367c-1.505,0.126-2.292,1.14-2.165,2.697c0.11,1.35,0.938,2.074,2.246,2.095
		C261.837,17.966,262.573,16.984,262.792,15.518z"/>
	<path fill-rule="evenodd" clip-rule="evenodd" fill="#4B4848" d="M273.873,14.031c3.895-4.111,5.105-4.104,9.036,0.055
		c0.012,0.947,0.023,1.894,0.035,2.841c-3.753,4.226-5.374,4.233-9.098,0.048C273.855,15.994,273.864,15.013,273.873,14.031z
		 M280.77,15.781c-0.083-1.56-0.883-2.599-2.369-2.641c-1.493-0.042-2.403,0.914-2.4,2.48c0.003,1.323,0.701,2.168,2.035,2.305
		C279.612,18.089,280.421,17.186,280.77,15.781z"/>
	<path fill-rule="evenodd" clip-rule="evenodd" fill="#4B4848" d="M291.871,14.031c3.895-4.111,5.105-4.104,9.036,0.055
		c0.012,0.947,0.023,1.894,0.035,2.841c-3.752,4.226-5.373,4.233-9.097,0.048C291.853,15.994,291.862,15.013,291.871,14.031z
		 M296.331,13.072c-1.454,0.264-2.381,1.024-2.33,2.608c0.043,1.323,0.752,2.151,2.091,2.251c1.573,0.116,2.534-0.766,2.623-2.251
		C298.808,14.164,297.809,13.337,296.331,13.072z"/>
	<path fill-rule="evenodd" clip-rule="evenodd" fill="#4B4848" d="M309.868,14.031c3.896-4.111,5.105-4.104,9.036,0.055
		c0.012,0.947,0.023,1.894,0.035,2.841c-3.752,4.226-5.373,4.233-9.098,0.048C309.851,15.994,309.859,15.013,309.868,14.031z
		 M316.775,15.436c-0.342-1.404-1.104-2.456-2.668-2.279c-1.518,0.171-2.254,1.218-2.089,2.761c0.144,1.346,1.006,2.053,2.308,2.028
		C315.882,17.916,316.625,16.943,316.775,15.436z"/>
	<path fill-rule="evenodd" clip-rule="evenodd" fill="#4B4848" d="M336.938,16.927c-3.753,4.226-5.373,4.233-9.098,0.048
		c0.009-0.98,0.018-1.962,0.026-2.943c3.896-4.111,5.104-4.104,9.036,0.055C336.914,15.033,336.926,15.979,336.938,16.927z
		 M334.765,15.367c-0.374-1.388-1.158-2.422-2.72-2.203c-1.511,0.211-2.227,1.276-2.022,2.813c0.177,1.34,1.064,2.026,2.36,1.968
		C333.931,17.876,334.669,16.9,334.765,15.367z"/>
	<path fill-rule="evenodd" clip-rule="evenodd" fill="#4B4848" d="M345.864,14.031c3.895-4.111,5.104-4.104,9.036,0.055
		c0.012,0.947,0.023,1.894,0.035,2.841c-3.753,4.226-5.374,4.233-9.098,0.048C345.847,15.994,345.855,15.013,345.864,14.031z
		 M352.761,15.781c-0.083-1.56-0.883-2.599-2.369-2.641c-1.493-0.042-2.403,0.914-2.4,2.48c0.003,1.323,0.701,2.168,2.035,2.305
		C351.604,18.089,352.412,17.186,352.761,15.781z"/>
	<path fill-rule="evenodd" clip-rule="evenodd" fill="#4B4848" d="M372.933,16.927c-3.752,4.226-5.373,4.233-9.098,0.048
		c0.009-0.98,0.018-1.962,0.026-2.943c3.896-4.111,5.105-4.104,9.036,0.055C372.909,15.033,372.921,15.979,372.933,16.927z
		 M370.77,15.436c-0.342-1.404-1.105-2.456-2.669-2.279c-1.518,0.171-2.254,1.218-2.089,2.761c0.144,1.346,1.006,2.053,2.308,2.028
		C369.875,17.916,370.619,16.943,370.77,15.436z"/>
	<path fill-rule="evenodd" clip-rule="evenodd" fill="#4B4848" d="M381.859,14.031c3.896-4.111,5.104-4.104,9.036,0.055
		c0.012,0.947,0.023,1.894,0.035,2.841c-3.753,4.226-5.373,4.233-9.098,0.048C381.842,15.994,381.851,15.013,381.859,14.031z
		 M386.047,17.959c1.648,0.013,2.609-0.836,2.66-2.32c0.051-1.491-0.911-2.494-2.421-2.502c-1.246-0.007-2.137,0.766-2.275,2.102
		C383.85,16.787,384.568,17.709,386.047,17.959z"/>
	<path fill-rule="evenodd" clip-rule="evenodd" fill="#4B4848" d="M408.929,16.927c-3.753,4.226-5.374,4.233-9.098,0.048
		c0.009-0.98,0.018-1.962,0.026-2.943c3.895-4.111,5.104-4.104,9.036,0.055C408.905,15.033,408.917,15.979,408.929,16.927z
		 M404.271,17.988c1.432-0.096,2.443-0.89,2.44-2.402c-0.003-1.475-0.951-2.481-2.481-2.445c-1.25,0.03-2.113,0.813-2.229,2.151
		C401.867,16.856,402.625,17.741,404.271,17.988z"/>
	<path fill-rule="evenodd" clip-rule="evenodd" fill="#4B4848" d="M417.855,14.031c3.895-4.111,5.104-4.104,9.035,0.055
		c0.012,0.947,0.023,1.894,0.035,2.841c-3.752,4.226-5.373,4.233-9.098,0.048C417.838,15.994,417.846,15.013,417.855,14.031z
		 M419.965,15.388c0.027,1.64,0.812,2.546,2.38,2.563c1.315,0.014,2.177-0.796,2.338-2.052c0.196-1.528-0.669-2.568-2.146-2.736
		C420.998,12.986,420.157,13.943,419.965,15.388z"/>
	<path fill-rule="evenodd" clip-rule="evenodd" fill="#4B4848" d="M444.924,16.927c-3.752,4.226-5.373,4.233-9.098,0.048
		c0.009-0.98,0.018-1.962,0.026-2.943c3.896-4.111,5.105-4.104,9.036,0.055C444.9,15.033,444.912,15.979,444.924,16.927z
		 M440.421,17.976c1.483-0.218,2.424-1.073,2.265-2.604c-0.151-1.46-1.123-2.401-2.676-2.208c-1.261,0.158-2.028,1.021-2.032,2.349
		C437.973,17.089,438.837,17.886,440.421,17.976z"/>
	<path fill-rule="evenodd" clip-rule="evenodd" fill="#4B4848" d="M453.851,14.031c3.895-4.111,5.104-4.104,9.036,0.055
		c0.012,0.947,0.023,1.894,0.035,2.841c-3.753,4.226-5.374,4.233-9.098,0.048C453.833,15.994,453.842,15.013,453.851,14.031z
		 M460.764,15.472c-0.327-1.411-1.078-2.478-2.644-2.319c-1.511,0.153-2.271,1.184-2.123,2.732c0.128,1.349,0.972,2.063,2.278,2.06
		C459.842,17.939,460.577,16.96,460.764,15.472z"/>
	<path fill-rule="evenodd" clip-rule="evenodd" fill="#4B4848" d="M480.919,16.927c-3.752,4.226-5.373,4.233-9.097,0.048
		c0.009-0.98,0.018-1.962,0.026-2.943c3.895-4.111,5.104-4.104,9.035,0.055C480.896,15.033,480.907,15.979,480.919,16.927z
		 M475.909,13.073c-1.055,0.457-2.09,1.115-1.93,2.746c0.133,1.349,0.919,2.087,2.229,2.12c1.571,0.04,2.509-0.916,2.494-2.393
		C478.688,14.079,477.717,13.205,475.909,13.073z"/>
	<path fill-rule="evenodd" clip-rule="evenodd" fill="#4B4848" d="M489.846,14.031c3.896-4.111,5.105-4.104,9.036,0.055
		c0.012,0.947,0.023,1.894,0.035,2.841c-3.752,4.226-5.373,4.233-9.098,0.048C489.828,15.994,489.837,15.013,489.846,14.031z
		 M494.069,13.1c-1.423,0.366-2.239,1.229-2.078,2.791c0.139,1.347,0.979,2.065,2.286,2.053c1.553-0.016,2.483-0.971,2.414-2.467
		C496.624,14.012,495.658,13.15,494.069,13.1z"/>
	<path fill-rule="evenodd" clip-rule="evenodd" fill="#4B4848" d="M507.844,14.031c3.895-4.111,5.104-4.104,9.036,0.055
		c0.012,0.947,0.023,1.894,0.035,2.841c-3.753,4.226-5.374,4.233-9.098,0.048C507.826,15.994,507.835,15.013,507.844,14.031z
		 M514.745,15.741c-0.115-1.549-0.925-2.59-2.411-2.604c-1.482-0.015-2.392,0.948-2.36,2.522c0.026,1.323,0.733,2.153,2.07,2.271
		C513.627,18.069,514.413,17.148,514.745,15.741z"/>
	<path fill-rule="evenodd" clip-rule="evenodd" fill="#4B4848" d="M534.912,16.927c-3.752,4.226-5.373,4.233-9.097,0.048
		c0.009-0.98,0.018-1.962,0.026-2.943c3.895-4.111,5.104-4.104,9.035,0.055C534.889,15.033,534.9,15.979,534.912,16.927z
		 M532.786,15.559c-0.265-1.27-0.915-2.436-2.453-2.427c-1.486,0.008-2.394,0.953-2.362,2.526c0.026,1.324,0.733,2.154,2.07,2.272
		C531.624,18.069,532.411,17.148,532.786,15.559z"/>
	<path fill-rule="evenodd" clip-rule="evenodd" fill="#4B4848" d="M552.91,16.927c-3.752,4.226-5.373,4.233-9.098,0.048
		c0.009-0.98,0.018-1.962,0.026-2.943c3.896-4.111,5.105-4.104,9.036,0.055C552.887,15.033,552.898,15.979,552.91,16.927z
		 M548.226,13.042c-1.237,0.333-2.295,0.952-2.265,2.571c0.025,1.323,0.699,2.177,2.033,2.311c1.562,0.157,2.549-0.682,2.686-2.177
		C550.819,14.212,549.823,13.392,548.226,13.042z"/>
	<path fill-rule="evenodd" clip-rule="evenodd" fill="#4B4848" d="M570.908,16.927c-3.753,4.226-5.373,4.233-9.098,0.048
		c0.009-0.98,0.018-1.962,0.026-2.943c3.896-4.111,5.104-4.104,9.036,0.055C570.885,15.033,570.896,15.979,570.908,16.927z
		 M568.781,15.559c-0.265-1.27-0.915-2.436-2.453-2.427c-1.485,0.008-2.393,0.953-2.361,2.526c0.026,1.324,0.733,2.154,2.07,2.272
		C567.619,18.069,568.406,17.148,568.781,15.559z"/>
	<path fill-rule="evenodd" clip-rule="evenodd" fill="#4B4848" d="M30.976,16.927c-3.752,4.226-5.374,4.233-9.098,0.049
		c0.009-0.981,0.018-1.963,0.027-2.944c3.895-4.111,5.104-4.104,9.036,0.055C30.952,15.033,30.964,15.979,30.976,16.927z
		 M28.796,15.829c-0.047-1.573-0.842-2.609-2.324-2.684c-1.5-0.074-2.417,0.875-2.441,2.435c-0.02,1.316,0.664,2.183,1.995,2.342
		C27.596,18.109,28.428,17.229,28.796,15.829z"/>
	<path fill-rule="evenodd" clip-rule="evenodd" fill="#4B4848" d="M606.903,16.927c-3.752,4.226-5.373,4.233-9.098,0.048
		c0.009-0.98,0.018-1.962,0.026-2.943c3.896-4.111,5.105-4.104,9.036,0.055C606.88,15.033,606.892,15.979,606.903,16.927z
		 M604.741,15.688c-0.165-1.52-0.958-2.567-2.462-2.547c-1.489,0.02-2.374,0.989-2.314,2.564c0.05,1.327,0.779,2.133,2.113,2.229
		C603.668,18.05,604.429,17.102,604.741,15.688z"/>
	<path fill-rule="evenodd" clip-rule="evenodd" fill="#4B4848" d="M615.83,14.031c3.896-4.111,5.105-4.104,9.036,0.055
		c0.012,0.947,0.023,1.894,0.035,2.841c-3.753,4.226-5.373,4.233-9.098,0.048C615.813,15.994,615.821,15.013,615.83,14.031z
		 M620.217,13.042c-1.237,0.333-2.295,0.952-2.265,2.571c0.025,1.323,0.699,2.177,2.033,2.311c1.561,0.157,2.549-0.682,2.686-2.177
		C622.811,14.212,621.813,13.392,620.217,13.042z"/>
	<path fill-rule="evenodd" clip-rule="evenodd" fill="#4B4848" d="M633.828,14.031c3.895-4.111,5.104-4.104,9.036,0.055
		c0.012,0.947,0.023,1.894,0.035,2.841c-3.753,4.226-5.374,4.233-9.098,0.048C633.811,15.994,633.819,15.013,633.828,14.031z
		 M638.05,13.1c-1.422,0.367-2.237,1.229-2.076,2.791c0.139,1.347,0.979,2.065,2.285,2.053c1.554-0.016,2.484-0.971,2.415-2.467
		C640.606,14.012,639.64,13.15,638.05,13.1z"/>
	<path fill-rule="evenodd" clip-rule="evenodd" fill="#4B4848" d="M651.826,14.031c3.895-4.111,5.104-4.104,9.035,0.055
		c0.012,0.947,0.023,1.894,0.035,2.841c-3.752,4.226-5.373,4.233-9.098,0.048C651.809,15.994,651.816,15.013,651.826,14.031z
		 M658.743,15.518c-0.299-1.433-1.055-2.498-2.61-2.367c-1.506,0.126-2.293,1.14-2.165,2.697c0.11,1.35,0.938,2.074,2.246,2.095
		C657.789,17.966,658.523,16.984,658.743,15.518z"/>
	<path fill-rule="evenodd" clip-rule="evenodd" fill="#4B4848" d="M579.835,14.031c3.895-4.111,5.104-4.104,9.036,0.055
		c0.012,0.947,0.023,1.894,0.035,2.841c-3.753,4.226-5.374,4.233-9.098,0.048C579.817,15.994,579.826,15.013,579.835,14.031z
		 M584.532,17.982c1.321-0.254,2.338-1.019,2.143-2.611c-0.18-1.46-1.13-2.401-2.684-2.208c-1.261,0.158-2.028,1.021-2.032,2.349
		C581.955,17.089,582.818,17.886,584.532,17.982z"/>
	<path fill-rule="evenodd" clip-rule="evenodd" fill="#4B4848" d="M687.821,14.031c3.895-4.111,5.104-4.104,9.036,0.055
		c0.012,0.947,0.023,1.894,0.035,2.841c-3.753,4.226-5.374,4.233-9.098,0.048C687.804,15.994,687.813,15.013,687.821,14.031z
		 M692.519,17.982c1.321-0.254,2.338-1.019,2.143-2.611c-0.18-1.46-1.13-2.401-2.684-2.208c-1.26,0.158-2.027,1.021-2.031,2.349
		C689.941,17.089,690.805,17.886,692.519,17.982z"/>
	<path fill-rule="evenodd" clip-rule="evenodd" fill="#4B4848" d="M714.89,16.927c-3.752,4.226-5.373,4.233-9.097,0.048
		c0.009-0.98,0.018-1.962,0.026-2.943c3.895-4.111,5.104-4.104,9.035,0.055C714.866,15.033,714.878,15.979,714.89,16.927z
		 M710.041,13.1c-1.422,0.367-2.238,1.229-2.077,2.791c0.139,1.347,0.979,2.065,2.286,2.053c1.554-0.016,2.484-0.971,2.415-2.467
		C712.598,14.012,711.631,13.15,710.041,13.1z"/>
	<path fill-rule="evenodd" clip-rule="evenodd" fill="#4B4848" d="M723.816,14.031c3.896-4.111,5.105-4.104,9.036,0.055
		c0.012,0.947,0.023,1.894,0.035,2.841c-3.752,4.226-5.373,4.233-9.098,0.048C723.799,15.994,723.808,15.013,723.816,14.031z
		 M730.731,15.615c-0.228-1.48-1.002-2.54-2.527-2.471c-1.49,0.068-2.346,1.045-2.252,2.621c0.079,1.34,0.851,2.105,2.172,2.173
		C729.715,18.019,730.452,17.046,730.731,15.615z"/>
	<path fill-rule="evenodd" clip-rule="evenodd" fill="#4B4848" d="M750.856,14.089c0.013,0.944,0.024,1.89,0.037,2.834
		c-3.761,4.229-5.38,4.238-9.105,0.052c0.009-0.98,0.018-1.962,0.026-2.943C745.711,9.919,746.917,9.927,750.856,14.089z
		 M748.729,15.116c-0.505-0.999-1.116-2.214-2.735-1.959c-1.51,0.238-2.227,1.283-2.022,2.819c0.177,1.34,1.064,2.026,2.36,1.968
		C747.879,17.875,748.617,16.9,748.729,15.116z"/>
	<path fill-rule="evenodd" clip-rule="evenodd" fill="#4B4848" d="M669.823,14.031c3.896-4.111,5.105-4.104,9.036,0.055
		c0.012,0.947,0.023,1.894,0.035,2.841c-3.752,4.226-5.373,4.233-9.098,0.048C669.806,15.994,669.814,15.013,669.823,14.031z
		 M671.934,15.388c0.027,1.64,0.812,2.546,2.38,2.563c1.315,0.014,2.176-0.796,2.337-2.052c0.196-1.528-0.669-2.568-2.145-2.736
		C672.967,12.986,672.126,13.943,671.934,15.388z"/>
	<path fill-rule="evenodd" clip-rule="evenodd" fill="#E77482" d="M417.855,14.031c-0.01,0.981-0.018,1.963-0.027,2.943
		c-2.967-0.016-5.934-0.031-8.899-0.048c-0.012-0.947-0.023-1.894-0.035-2.841C411.881,14.067,414.868,14.049,417.855,14.031z"/>
	<path fill-rule="evenodd" clip-rule="evenodd" fill="#E77482" d="M435.853,14.031c-0.009,0.981-0.018,1.963-0.026,2.943
		c-2.967-0.016-5.934-0.031-8.9-0.048c-0.012-0.947-0.023-1.894-0.035-2.841C429.879,14.067,432.866,14.049,435.853,14.031z"/>
	<path fill-rule="evenodd" clip-rule="evenodd" fill="#E77482" d="M453.851,14.031c-0.009,0.981-0.018,1.963-0.026,2.943
		c-2.968-0.016-5.934-0.031-8.9-0.048c-0.012-0.947-0.023-1.894-0.035-2.841C447.877,14.067,450.863,14.049,453.851,14.031z"/>
	<path fill-rule="evenodd" clip-rule="evenodd" fill="#E77482" d="M471.849,14.031c-0.009,0.981-0.018,1.963-0.026,2.943
		c-2.968-0.016-5.935-0.031-8.9-0.048c-0.012-0.947-0.023-1.894-0.035-2.841C465.874,14.067,468.861,14.049,471.849,14.031z"/>
	<path fill-rule="evenodd" clip-rule="evenodd" fill="#E77482" d="M507.844,14.031c-0.009,0.981-0.018,1.963-0.026,2.943
		c-2.968-0.016-5.934-0.031-8.9-0.048c-0.012-0.947-0.023-1.894-0.035-2.841C501.87,14.067,504.856,14.049,507.844,14.031z"/>
	<path fill-rule="evenodd" clip-rule="evenodd" fill="#E77482" d="M525.842,14.031c-0.009,0.981-0.018,1.963-0.026,2.943
		c-2.968-0.016-5.935-0.031-8.9-0.048c-0.012-0.947-0.023-1.894-0.035-2.841C519.867,14.067,522.854,14.049,525.842,14.031z"/>
	<path fill-rule="evenodd" clip-rule="evenodd" fill="#E77482" d="M543.839,14.031c-0.009,0.981-0.018,1.963-0.026,2.943
		c-2.967-0.016-5.934-0.031-8.9-0.048c-0.012-0.947-0.023-1.894-0.035-2.841C537.865,14.067,540.853,14.049,543.839,14.031z"/>
	<path fill-rule="evenodd" clip-rule="evenodd" fill="#E77482" d="M561.837,14.031c-0.009,0.981-0.018,1.963-0.026,2.943
		c-2.968-0.016-5.934-0.031-8.9-0.048c-0.012-0.947-0.023-1.894-0.035-2.841C555.863,14.067,558.85,14.049,561.837,14.031z"/>
	<path fill-rule="evenodd" clip-rule="evenodd" fill="#E77482" d="M579.835,14.031c-0.009,0.981-0.018,1.963-0.026,2.943
		c-2.968-0.016-5.934-0.031-8.9-0.048c-0.012-0.947-0.023-1.894-0.035-2.841C573.861,14.067,576.848,14.049,579.835,14.031z"/>
	<path fill-rule="evenodd" clip-rule="evenodd" fill="#E77482" d="M588.906,16.927c-0.012-0.947-0.023-1.894-0.035-2.841
		c2.987-0.019,5.975-0.037,8.962-0.056c-0.01,0.982-0.019,1.964-0.027,2.944C594.84,16.959,591.872,16.942,588.906,16.927z"/>
	<path fill-rule="evenodd" clip-rule="evenodd" fill="#E77482" d="M615.83,14.031c-0.009,0.981-0.018,1.963-0.026,2.943
		c-2.968-0.016-5.934-0.031-8.9-0.048c-0.012-0.947-0.023-1.894-0.035-2.841C609.856,14.067,612.844,14.049,615.83,14.031z"/>
	<path fill-rule="evenodd" clip-rule="evenodd" fill="#E77482" d="M633.828,14.031c-0.009,0.981-0.018,1.963-0.026,2.943
		c-2.968-0.016-5.934-0.031-8.9-0.048c-0.012-0.947-0.023-1.894-0.035-2.841C627.854,14.067,630.841,14.049,633.828,14.031z"/>
	<path fill-rule="evenodd" clip-rule="evenodd" fill="#E77482" d="M651.826,14.031c-0.01,0.981-0.018,1.963-0.027,2.943
		c-2.967-0.016-5.934-0.031-8.899-0.048c-0.012-0.947-0.023-1.894-0.035-2.841C645.852,14.067,648.839,14.049,651.826,14.031z"/>
	<path fill-rule="evenodd" clip-rule="evenodd" fill="#E77482" d="M669.823,14.031c-0.009,0.981-0.018,1.963-0.026,2.943
		c-2.967-0.016-5.934-0.031-8.9-0.048c-0.012-0.947-0.023-1.894-0.035-2.841C663.85,14.067,666.837,14.049,669.823,14.031z"/>
	<path fill-rule="evenodd" clip-rule="evenodd" fill="#E77482" d="M678.895,16.927c-0.012-0.947-0.023-1.894-0.035-2.841
		c2.988-0.019,5.975-0.037,8.963-0.056c-0.01,0.982-0.019,1.964-0.027,2.944C684.828,16.959,681.861,16.942,678.895,16.927z"/>
	<path fill-rule="evenodd" clip-rule="evenodd" fill="#E77482" d="M705.819,14.031c-0.009,0.981-0.018,1.963-0.026,2.943
		c-2.968-0.016-5.935-0.031-8.9-0.048c-0.012-0.947-0.023-1.894-0.035-2.841C699.845,14.067,702.832,14.049,705.819,14.031z"/>
	<path fill-rule="evenodd" clip-rule="evenodd" fill="#E77482" d="M723.816,14.031c-0.009,0.981-0.018,1.963-0.026,2.943
		c-2.967-0.016-5.934-0.031-8.9-0.048c-0.012-0.947-0.023-1.894-0.035-2.841C717.843,14.067,720.83,14.049,723.816,14.031z"/>
	<path fill-rule="evenodd" clip-rule="evenodd" fill="#E77482" d="M741.814,14.031c-0.009,0.981-0.018,1.963-0.026,2.943
		c-2.968-0.016-5.934-0.031-8.9-0.048c-0.012-0.947-0.023-1.894-0.035-2.841C735.841,14.067,738.827,14.049,741.814,14.031z"/>
	<path fill-rule="evenodd" clip-rule="evenodd" fill="#E77482" d="M489.846,14.031c-0.009,0.981-0.018,1.963-0.026,2.943
		c-2.967-0.016-5.934-0.031-8.9-0.048c-0.012-0.947-0.023-1.894-0.035-2.841C483.872,14.067,486.859,14.049,489.846,14.031z"/>
	<path fill-rule="evenodd" clip-rule="evenodd" fill="#E77482" d="M201.882,14.031c-0.009,0.981-0.018,1.963-0.026,2.944
		c-2.967-0.017-5.934-0.032-8.9-0.049c-0.012-0.947-0.023-1.894-0.035-2.841C195.908,14.067,198.895,14.049,201.882,14.031z"/>
	<path fill-rule="evenodd" clip-rule="evenodd" fill="#E77482" d="M21.905,14.031c-0.009,0.981-0.018,1.963-0.027,2.944
		c-2.967-0.017-5.934-0.032-8.9-0.049c-0.012-0.947-0.023-1.894-0.035-2.841C15.93,14.067,18.917,14.049,21.905,14.031z"/>
	<path fill-rule="evenodd" clip-rule="evenodd" fill="#E77482" d="M30.976,16.927c-0.012-0.947-0.024-1.894-0.036-2.841
		c2.988-0.019,5.976-0.037,8.962-0.056c-0.009,0.982-0.018,1.964-0.027,2.944C36.909,16.959,33.942,16.942,30.976,16.927z"/>
	<path fill-rule="evenodd" clip-rule="evenodd" fill="#E77482" d="M57.9,14.031c-0.009,0.981-0.018,1.963-0.027,2.943
		c-2.967-0.016-5.934-0.031-8.9-0.048c-0.012-0.947-0.023-1.894-0.035-2.841C51.926,14.067,54.913,14.049,57.9,14.031z"/>
	<path fill-rule="evenodd" clip-rule="evenodd" fill="#E77482" d="M75.898,14.031c-0.009,0.981-0.018,1.963-0.027,2.943
		c-2.967-0.016-5.934-0.031-8.9-0.048c-0.012-0.947-0.023-1.894-0.035-2.841C69.923,14.067,72.911,14.049,75.898,14.031z"/>
	<path fill-rule="evenodd" clip-rule="evenodd" fill="#E77482" d="M93.896,14.031c-0.009,0.981-0.018,1.963-0.026,2.943
		c-2.967-0.016-5.934-0.031-8.9-0.048c-0.012-0.947-0.023-1.894-0.035-2.841C87.922,14.067,90.909,14.049,93.896,14.031z"/>
	<path fill-rule="evenodd" clip-rule="evenodd" fill="#E77482" d="M111.893,14.031c-0.009,0.981-0.018,1.963-0.026,2.943
		c-2.967-0.016-5.934-0.031-8.9-0.048c-0.012-0.947-0.023-1.894-0.035-2.841C105.919,14.067,108.906,14.049,111.893,14.031z"/>
	<path fill-rule="evenodd" clip-rule="evenodd" fill="#E77482" d="M129.891,14.031c-0.009,0.981-0.018,1.963-0.026,2.944
		c-2.967-0.017-5.934-0.032-8.9-0.049c-0.012-0.947-0.023-1.894-0.035-2.841C123.917,14.067,126.904,14.049,129.891,14.031z"/>
	<path fill-rule="evenodd" clip-rule="evenodd" fill="#E77482" d="M147.889,14.031c-0.009,0.981-0.018,1.963-0.026,2.944
		c-2.967-0.017-5.934-0.032-8.9-0.049c-0.012-0.947-0.023-1.894-0.035-2.841C141.915,14.067,144.902,14.049,147.889,14.031z"/>
	<path fill-rule="evenodd" clip-rule="evenodd" fill="#E77482" d="M165.887,14.031c-0.009,0.981-0.018,1.963-0.026,2.944
		c-2.968-0.017-5.934-0.032-8.9-0.049c-0.012-0.947-0.023-1.894-0.035-2.841C159.913,14.067,162.899,14.049,165.887,14.031z"/>
	<path fill-rule="evenodd" clip-rule="evenodd" fill="#E77482" d="M183.884,14.031c-0.009,0.981-0.018,1.963-0.026,2.944
		c-2.967-0.017-5.934-0.032-8.9-0.049c-0.012-0.947-0.023-1.894-0.035-2.841C177.91,14.067,180.897,14.049,183.884,14.031z"/>
	<path fill-rule="evenodd" clip-rule="evenodd" fill="#E77482" d="M219.88,14.031c-0.009,0.981-0.018,1.963-0.026,2.944
		c-2.968-0.017-5.934-0.032-8.9-0.049c-0.012-0.947-0.023-1.894-0.035-2.841C213.906,14.067,216.893,14.049,219.88,14.031z"/>
	<path fill-rule="evenodd" clip-rule="evenodd" fill="#E77482" d="M237.877,14.031c-0.009,0.981-0.018,1.963-0.026,2.944
		c-2.967-0.017-5.934-0.032-8.9-0.049c-0.012-0.947-0.023-1.894-0.035-2.841C231.904,14.067,234.891,14.049,237.877,14.031z"/>
	<path fill-rule="evenodd" clip-rule="evenodd" fill="#E77482" d="M255.875,14.031c-0.009,0.981-0.018,1.963-0.026,2.944
		c-2.967-0.017-5.934-0.032-8.9-0.049c-0.012-0.947-0.023-1.894-0.035-2.841C249.901,14.067,252.888,14.049,255.875,14.031z"/>
	<path fill-rule="evenodd" clip-rule="evenodd" fill="#E77482" d="M273.873,14.031c-0.009,0.981-0.018,1.963-0.026,2.943
		c-2.967-0.016-5.934-0.031-8.9-0.048c-0.012-0.947-0.023-1.894-0.035-2.841C267.899,14.067,270.886,14.049,273.873,14.031z"/>
	<path fill-rule="evenodd" clip-rule="evenodd" fill="#E77482" d="M291.871,14.031c-0.009,0.981-0.018,1.963-0.026,2.943
		c-2.967-0.016-5.934-0.031-8.9-0.048c-0.012-0.947-0.023-1.894-0.035-2.841C285.897,14.067,288.884,14.049,291.871,14.031z"/>
	<path fill-rule="evenodd" clip-rule="evenodd" fill="#E77482" d="M309.868,14.031c-0.009,0.981-0.018,1.963-0.026,2.943
		c-2.967-0.016-5.934-0.031-8.9-0.048c-0.012-0.947-0.023-1.894-0.035-2.841C303.895,14.067,306.882,14.049,309.868,14.031z"/>
	<path fill-rule="evenodd" clip-rule="evenodd" fill="#E77482" d="M327.866,14.031c-0.009,0.981-0.018,1.963-0.026,2.943
		c-2.968-0.016-5.934-0.031-8.9-0.048c-0.012-0.947-0.023-1.894-0.035-2.841C321.893,14.067,324.879,14.049,327.866,14.031z"/>
	<path fill-rule="evenodd" clip-rule="evenodd" fill="#E77482" d="M345.864,14.031c-0.009,0.981-0.018,1.963-0.026,2.943
		c-2.968-0.016-5.935-0.031-8.9-0.048c-0.012-0.947-0.023-1.894-0.035-2.841C339.89,14.067,342.877,14.049,345.864,14.031z"/>
	<path fill-rule="evenodd" clip-rule="evenodd" fill="#E77482" d="M363.861,14.031c-0.009,0.981-0.018,1.963-0.026,2.943
		c-2.967-0.016-5.934-0.031-8.899-0.048c-0.012-0.947-0.023-1.894-0.035-2.841C357.888,14.067,360.875,14.049,363.861,14.031z"/>
	<path fill-rule="evenodd" clip-rule="evenodd" fill="#E77482" d="M381.859,14.031c-0.009,0.981-0.018,1.963-0.026,2.943
		c-2.968-0.016-5.934-0.031-8.9-0.048c-0.012-0.947-0.023-1.894-0.035-2.841C375.886,14.067,378.872,14.049,381.859,14.031z"/>
	<path fill-rule="evenodd" clip-rule="evenodd" fill="#E77482" d="M399.857,14.031c-0.009,0.981-0.018,1.963-0.026,2.943
		c-2.968-0.016-5.934-0.031-8.9-0.048c-0.012-0.947-0.023-1.894-0.035-2.841C393.884,14.067,396.87,14.049,399.857,14.031z"/>
	<path fill-rule="evenodd" clip-rule="evenodd" fill="#E8E8E8" d="M8.321,17.988c-1.646-0.247-2.405-1.132-2.27-2.696
		c0.115-1.339,0.979-2.121,2.229-2.151c1.53-0.036,2.478,0.971,2.481,2.445C10.764,17.099,9.753,17.893,8.321,17.988z"/>
	<path fill-rule="evenodd" clip-rule="evenodd" fill="#E8E8E8" d="M46.809,15.436c-0.15,1.508-0.894,2.48-2.449,2.51
		c-1.302,0.024-2.164-0.683-2.308-2.028c-0.166-1.543,0.571-2.59,2.088-2.761C45.704,12.979,46.468,14.031,46.809,15.436z"/>
	<path fill-rule="evenodd" clip-rule="evenodd" fill="#E8E8E8" d="M62.533,17.971c-1.607-0.058-2.487-0.836-2.51-2.414
		c-0.019-1.327,0.738-2.203,1.99-2.387c1.551-0.228,2.532,0.697,2.716,2.157C64.924,16.869,63.979,17.715,62.533,17.971z"/>
	<path fill-rule="evenodd" clip-rule="evenodd" fill="#E8E8E8" d="M82.811,15.472c-0.187,1.488-0.922,2.468-2.488,2.473
		c-1.306,0.004-2.151-0.711-2.279-2.06c-0.148-1.549,0.612-2.579,2.124-2.732C81.733,12.994,82.484,14.06,82.811,15.472z"/>
	<path fill-rule="evenodd" clip-rule="evenodd" fill="#E8E8E8" d="M100.763,15.986c-0.52,1.464-1.483,2.266-2.993,1.899
		c-1.554-0.376-2.056-1.611-1.656-3.035c0.334-1.189,1.276-1.961,2.596-1.68C100.176,13.484,100.866,14.51,100.763,15.986z"/>
	<path fill-rule="evenodd" clip-rule="evenodd" fill="#E8E8E8" d="M118.792,15.367c-0.096,1.533-0.834,2.509-2.382,2.577
		c-1.296,0.059-2.184-0.628-2.361-1.968c-0.204-1.536,0.512-2.602,2.023-2.813C117.634,12.945,118.418,13.979,118.792,15.367z"/>
	<path fill-rule="evenodd" clip-rule="evenodd" fill="#E8E8E8" d="M136.783,15.829c-0.368,1.399-1.2,2.28-2.77,2.093
		c-1.331-0.159-2.015-1.025-1.995-2.342c0.023-1.56,0.94-2.509,2.441-2.435C135.94,13.22,136.736,14.256,136.783,15.829z"/>
	<path fill-rule="evenodd" clip-rule="evenodd" fill="#E8E8E8" d="M152.18,13.043c1.646,0.294,2.645,1.121,2.553,2.638
		c-0.089,1.486-1.049,2.367-2.623,2.251c-1.339-0.1-2.031-0.928-2.096-2.251C149.935,14.053,150.996,13.428,152.18,13.043z"/>
	<path fill-rule="evenodd" clip-rule="evenodd" fill="#E8E8E8" d="M172.788,15.741c-0.332,1.407-1.119,2.328-2.702,2.189
		c-1.336-0.118-2.043-0.948-2.07-2.272c-0.031-1.573,0.879-2.536,2.361-2.521C171.863,13.151,172.673,14.192,172.788,15.741z"/>
	<path fill-rule="evenodd" clip-rule="evenodd" fill="#E8E8E8" d="M190.773,15.854c-0.385,1.402-1.23,2.271-2.797,2.063
		c-1.328-0.176-2.003-1.058-1.966-2.367c0.045-1.552,0.958-2.499,2.472-2.4C189.966,13.247,190.742,14.287,190.773,15.854z"/>
	<path fill-rule="evenodd" clip-rule="evenodd" fill="#E8E8E8" d="M208.784,15.741c-0.332,1.407-1.119,2.328-2.702,2.189
		c-1.336-0.118-2.043-0.948-2.07-2.272c-0.031-1.573,0.879-2.536,2.361-2.521C207.859,13.151,208.668,14.192,208.784,15.741z"/>
	<path fill-rule="evenodd" clip-rule="evenodd" fill="#E8E8E8" d="M224.266,13.042c1.598,0.35,2.594,1.171,2.455,2.705
		c-0.137,1.495-1.125,2.334-2.686,2.177c-1.334-0.134-2.008-0.987-2.033-2.311C221.971,13.994,223.029,13.375,224.266,13.042z"/>
	<path fill-rule="evenodd" clip-rule="evenodd" fill="#E8E8E8" d="M244.776,15.367c-0.096,1.533-0.833,2.509-2.381,2.577
		c-1.297,0.059-2.185-0.628-2.361-1.968c-0.204-1.536,0.511-2.602,2.023-2.813C243.618,12.945,244.402,13.979,244.776,15.367z"/>
	<path fill-rule="evenodd" clip-rule="evenodd" fill="#E8E8E8" d="M262.792,15.518c-0.22,1.467-0.955,2.448-2.529,2.425
		c-1.308-0.021-2.135-0.745-2.246-2.095c-0.128-1.558,0.659-2.571,2.165-2.697C261.738,13.02,262.494,14.085,262.792,15.518z"/>
	<path fill-rule="evenodd" clip-rule="evenodd" fill="#E8E8E8" d="M280.77,15.781c-0.349,1.404-1.157,2.308-2.734,2.145
		c-1.334-0.137-2.032-0.981-2.035-2.305c-0.003-1.566,0.907-2.522,2.4-2.48C279.887,13.183,280.687,14.222,280.77,15.781z"/>
	<path fill-rule="evenodd" clip-rule="evenodd" fill="#E8E8E8" d="M296.331,13.072c1.478,0.265,2.477,1.092,2.385,2.608
		c-0.089,1.485-1.05,2.367-2.623,2.251c-1.339-0.1-2.048-0.928-2.091-2.251C293.95,14.097,294.877,13.336,296.331,13.072z"/>
	<path fill-rule="evenodd" clip-rule="evenodd" fill="#E8E8E8" d="M316.775,15.436c-0.15,1.508-0.894,2.48-2.449,2.51
		c-1.302,0.024-2.164-0.683-2.308-2.028c-0.165-1.543,0.571-2.59,2.089-2.761C315.671,12.979,316.434,14.031,316.775,15.436z"/>
	<path fill-rule="evenodd" clip-rule="evenodd" fill="#E8E8E8" d="M334.765,15.367c-0.096,1.533-0.834,2.509-2.382,2.577
		c-1.296,0.059-2.184-0.628-2.36-1.968c-0.204-1.536,0.512-2.602,2.022-2.813C333.606,12.945,334.391,13.979,334.765,15.367z"/>
	<path fill-rule="evenodd" clip-rule="evenodd" fill="#E8E8E8" d="M352.761,15.781c-0.349,1.404-1.157,2.308-2.734,2.145
		c-1.334-0.137-2.032-0.981-2.035-2.305c-0.003-1.566,0.907-2.522,2.4-2.48C351.878,13.183,352.678,14.222,352.761,15.781z"/>
	<path fill-rule="evenodd" clip-rule="evenodd" fill="#E8E8E8" d="M370.77,15.436c-0.15,1.508-0.895,2.48-2.45,2.51
		c-1.302,0.024-2.164-0.683-2.308-2.028c-0.165-1.543,0.571-2.59,2.089-2.761C369.664,12.979,370.428,14.031,370.77,15.436z"/>
	<path fill-rule="evenodd" clip-rule="evenodd" fill="#E8E8E8" d="M386.047,17.959c-1.479-0.25-2.197-1.172-2.036-2.721
		c0.139-1.336,1.029-2.108,2.275-2.102c1.51,0.008,2.472,1.011,2.421,2.502C388.656,17.123,387.695,17.972,386.047,17.959z"/>
	<path fill-rule="evenodd" clip-rule="evenodd" fill="#E8E8E8" d="M404.271,17.988c-1.646-0.247-2.404-1.132-2.27-2.696
		c0.115-1.339,0.979-2.121,2.229-2.151c1.53-0.036,2.479,0.971,2.481,2.445C406.715,17.099,405.703,17.893,404.271,17.988z"/>
	<path fill-rule="evenodd" clip-rule="evenodd" fill="#E8E8E8" d="M419.965,15.388c0.192-1.444,1.033-2.401,2.572-2.226
		c1.477,0.168,2.342,1.208,2.146,2.736c-0.161,1.256-1.022,2.065-2.338,2.052C420.776,17.934,419.992,17.027,419.965,15.388z"/>
	<path fill-rule="evenodd" clip-rule="evenodd" fill="#E8E8E8" d="M440.421,17.976c-1.584-0.09-2.448-0.887-2.443-2.464
		c0.004-1.328,0.771-2.19,2.032-2.349c1.553-0.193,2.524,0.748,2.676,2.208C442.845,16.902,441.904,17.758,440.421,17.976z"/>
	<path fill-rule="evenodd" clip-rule="evenodd" fill="#E8E8E8" d="M460.764,15.472c-0.187,1.488-0.922,2.468-2.488,2.473
		c-1.307,0.004-2.15-0.711-2.278-2.06c-0.147-1.549,0.612-2.579,2.123-2.732C459.686,12.994,460.437,14.061,460.764,15.472z"/>
	<path fill-rule="evenodd" clip-rule="evenodd" fill="#E8E8E8" d="M475.909,13.073c1.808,0.132,2.779,1.006,2.793,2.474
		c0.015,1.477-0.923,2.433-2.494,2.393c-1.31-0.033-2.096-0.771-2.229-2.12C473.819,14.188,474.854,13.53,475.909,13.073z"/>
	<path fill-rule="evenodd" clip-rule="evenodd" fill="#E8E8E8" d="M494.069,13.1c1.589,0.051,2.555,0.912,2.622,2.377
		c0.069,1.496-0.861,2.451-2.414,2.467c-1.307,0.013-2.147-0.706-2.286-2.053C491.83,14.329,492.646,13.466,494.069,13.1z"/>
	<path fill-rule="evenodd" clip-rule="evenodd" fill="#E8E8E8" d="M514.745,15.741c-0.332,1.407-1.118,2.328-2.701,2.189
		c-1.337-0.118-2.044-0.948-2.07-2.271c-0.031-1.574,0.878-2.537,2.36-2.522C513.82,13.151,514.63,14.192,514.745,15.741z"/>
	<path fill-rule="evenodd" clip-rule="evenodd" fill="#E8E8E8" d="M532.786,15.559c-0.375,1.59-1.162,2.511-2.745,2.372
		c-1.337-0.118-2.044-0.948-2.07-2.272c-0.031-1.573,0.876-2.519,2.362-2.526C531.871,13.123,532.521,14.289,532.786,15.559z"/>
	<path fill-rule="evenodd" clip-rule="evenodd" fill="#E8E8E8" d="M548.226,13.042c1.598,0.35,2.594,1.17,2.454,2.705
		c-0.137,1.495-1.124,2.334-2.686,2.177c-1.334-0.134-2.008-0.987-2.033-2.311C545.931,13.994,546.988,13.375,548.226,13.042z"/>
	<path fill-rule="evenodd" clip-rule="evenodd" fill="#E8E8E8" d="M568.781,15.559c-0.375,1.59-1.162,2.511-2.744,2.372
		c-1.337-0.118-2.044-0.948-2.07-2.272c-0.031-1.573,0.876-2.519,2.361-2.526C567.866,13.123,568.517,14.289,568.781,15.559z"/>
	<path fill-rule="evenodd" clip-rule="evenodd" fill="#E8E8E8" d="M28.796,15.829c-0.368,1.399-1.2,2.28-2.77,2.093
		c-1.332-0.159-2.015-1.025-1.995-2.342c0.023-1.56,0.94-2.509,2.441-2.435C27.954,13.22,28.75,14.256,28.796,15.829z"/>
	<path fill-rule="evenodd" clip-rule="evenodd" fill="#E8E8E8" d="M604.741,15.688c-0.313,1.414-1.073,2.362-2.663,2.247
		c-1.334-0.097-2.063-0.902-2.113-2.229c-0.06-1.575,0.825-2.545,2.314-2.564C603.783,13.12,604.576,14.168,604.741,15.688z"/>
	<path fill-rule="evenodd" clip-rule="evenodd" fill="#E8E8E8" d="M620.217,13.042c1.597,0.35,2.594,1.17,2.454,2.705
		c-0.137,1.495-1.125,2.334-2.686,2.177c-1.334-0.134-2.008-0.987-2.033-2.311C617.922,13.994,618.979,13.375,620.217,13.042z"/>
	<path fill-rule="evenodd" clip-rule="evenodd" fill="#E8E8E8" d="M638.05,13.1c1.59,0.051,2.557,0.912,2.624,2.377
		c0.069,1.496-0.861,2.451-2.415,2.467c-1.307,0.013-2.146-0.706-2.285-2.053C635.813,14.329,636.628,13.467,638.05,13.1z"/>
	<path fill-rule="evenodd" clip-rule="evenodd" fill="#E8E8E8" d="M658.743,15.518c-0.22,1.467-0.954,2.448-2.529,2.425
		c-1.309-0.021-2.136-0.745-2.246-2.095c-0.128-1.558,0.659-2.571,2.165-2.697C657.688,13.02,658.444,14.085,658.743,15.518z"/>
	<path fill-rule="evenodd" clip-rule="evenodd" fill="#E8E8E8" d="M584.532,17.982c-1.714-0.097-2.577-0.894-2.573-2.471
		c0.004-1.328,0.771-2.19,2.032-2.349c1.554-0.193,2.504,0.748,2.684,2.208C586.87,16.964,585.854,17.729,584.532,17.982z"/>
	<path fill-rule="evenodd" clip-rule="evenodd" fill="#E8E8E8" d="M692.519,17.982c-1.714-0.097-2.577-0.894-2.572-2.471
		c0.004-1.328,0.771-2.19,2.031-2.349c1.554-0.193,2.504,0.748,2.684,2.208C694.856,16.964,693.84,17.729,692.519,17.982z"/>
	<path fill-rule="evenodd" clip-rule="evenodd" fill="#E8E8E8" d="M710.041,13.1c1.59,0.051,2.557,0.912,2.624,2.377
		c0.069,1.496-0.861,2.451-2.415,2.467c-1.307,0.013-2.147-0.706-2.286-2.053C707.803,14.329,708.619,13.467,710.041,13.1z"/>
	<path fill-rule="evenodd" clip-rule="evenodd" fill="#E8E8E8" d="M730.731,15.615c-0.279,1.431-1.017,2.403-2.607,2.323
		c-1.321-0.067-2.093-0.833-2.172-2.173c-0.094-1.576,0.762-2.553,2.252-2.621C729.729,13.075,730.504,14.135,730.731,15.615z"/>
	<path fill-rule="evenodd" clip-rule="evenodd" fill="#E8E8E8" d="M748.729,15.116c-0.111,1.784-0.85,2.759-2.397,2.828
		c-1.296,0.059-2.184-0.628-2.36-1.968c-0.204-1.536,0.513-2.581,2.022-2.819C747.612,12.902,748.224,14.117,748.729,15.116z"/>
	<path fill-rule="evenodd" clip-rule="evenodd" fill="#E8E8E8" d="M671.934,15.388c0.192-1.444,1.033-2.401,2.572-2.226
		c1.476,0.168,2.341,1.208,2.145,2.736c-0.161,1.256-1.021,2.065-2.337,2.052C672.745,17.934,671.961,17.027,671.934,15.388z"/>
</g>
</svg>
