<?xml version="1.0" encoding="utf-8"?>
<!-- Generator: Adobe Illustrator 16.0.3, SVG Export Plug-In . SVG Version: 6.00 Build 0)  -->
<!DOCTYPE svg PUBLIC "-//W3C//DTD SVG 1.1//EN" "http://www.w3.org/Graphics/SVG/1.1/DTD/svg11.dtd">
<svg version="1.1" id="Ebene_1" xmlns="http://www.w3.org/2000/svg" xmlns:xlink="http://www.w3.org/1999/xlink" x="0px" y="0px"
	 width="757px" height="154px" viewBox="0 0 757 154" enable-background="new 0 0 757 154" xml:space="preserve">
<g>
	<path fill-rule="evenodd" clip-rule="evenodd" fill="#80B44B" d="M258.945,145.009c-56.995-0.035-113.989-0.07-170.984-0.105
		c0.072-0.394,0.146-0.788,0.217-1.18c0.533-0.601,1.066-1.203,1.6-1.805c1.664,0.024,3.328,0.068,4.992,0.07
		c10.741,0.011,11.417-0.693,12.267-11.518c0.197-2.503-0.233-3.684-3.066-3.512c-3.981,0.241-7.983,0.14-11.976,0.184
		c-1.051,0.007-2.102,0.015-3.152,0.021c-4.268-0.694-8.986,1.136-12.769-2.278c-0.357-1.51-0.804-2.971-2.135-3.955
		c-0.956-2.815-1.938-5.622-2.861-8.448c-0.829-2.542-2.416-3.544-5.192-3.528c-18.407,0.104-36.814,0.113-55.221-0.009
		c-2.857-0.019-4.211,1.241-5.181,3.604C4.044,116.057,2.5,119.519,1,123c0-3,0-6,0-9c2.442-7.193,7.722-8.384,14.72-8.164
		c15.611,0.488,31.256,0.443,46.87,0.006c6.063-0.17,10.336,1.141,12.458,7.093c0.231,1.855,0.645,3.644,1.899,5.12
		c0.585,4.539,3.057,6.59,7.693,5.961c1.445-0.196,2.93-0.111,4.396-0.154c1.18,0.02,2.359,0.038,3.54,0.057
		c3.801,0.025,7.61-0.085,11.402,0.119c2.747,0.147,4.21-0.356,4.315-3.614c0.121-3.771,0.974-7.518,1.508-11.274
		c0.979,0.031,1.958,0.063,2.937,0.096c-0.527,3.923-1.021,7.851-1.596,11.767c-0.295,2.014,0.163,3.111,2.51,3.011
		c3.132-0.136,6.279-0.127,9.412,0.003c2.018,0.083,2.934-0.508,3.119-2.675c0.351-4.102,1.011-8.176,1.542-12.262
		c0.065-1.026,0.131-2.052,0.196-3.078c1.64-5.751,0.521-12.28,4.868-17.268c0.412,1.331,0.824,2.663,1.235,3.994
		c-2.145,4.121-2.047,8.723-2.814,13.138c-0.061,1.046-0.12,2.092-0.179,3.139c-0.513,3.451-0.75,6.973-1.609,10.336
		c-0.996,3.896,0.227,4.744,4.064,4.724c28.986-0.151,57.975-0.082,86.962-0.082c11.278,0,11.458,0.064,15.342-10.673
		c1.891-5.228,4.656-8.339,10.581-7.326c4.75,0.812,7.541-0.442,7.124-6.011c-0.222-2.95,0.313-5.957,0.507-8.938
		c1.034-0.86,0.946-1.979,0.723-3.13c0.325-2.464,0.575-4.941,0.99-7.39c1.783-10.525,1.801-10.522,12.353-10.534
		c0.979,0.822,0.871,1.918,0.763,3.015c-8.748,0.015-8.787,0.008-10.266,8.606c-0.359,2.09-0.368,4.24-0.538,6.363
		c-1.014,0.848-0.971,1.938-0.705,3.08c-0.364,3.628-0.523,7.292-1.153,10.873c-0.605,3.446,0.682,4.336,3.905,4.12
		c3.636-0.243,7.298-0.073,10.949-0.082c1.021,0.831,0.811,1.951,0.712,3.045c-3.963,0-7.939,0.203-11.885-0.065
		c-3.108-0.212-4.493,0.843-4.679,3.959c-0.324,5.431-0.842,10.851-1.277,16.275c-1.378,2.293-0.685,4.85-0.931,7.287
		c-1.028,2.84-3.341,6.356,2.843,5.394c1.02,0.046,2.038,0.093,3.058,0.139C258.891,143.001,258.918,144.005,258.945,145.009z
		 M241.167,127.751c-2.96,4.232-3.869,9.28-6.161,13.967c14.54,1.056,15.596,0.048,14.897-13.632
		c0.922-1.267,1.158-2.553,0.114-3.877c2.202-2.062,1.696-4.877,1.899-7.411c0.678-8.486,0.608-8.407-7.945-7.847
		c-2.183,0.144-3.382,1.053-4.122,2.906c-1.108,2.775-2.249,5.54-3.276,8.346c-1.723,4.706-4.507,7.004-10.041,6.936
		c-24.294-0.298-48.594-0.129-72.892-0.129c-7.156,0-14.313-0.012-21.469,0.01c-1.774,0.006-3.729-0.422-4.079,2.361
		c-0.514,4.088-1.267,8.146-1.981,12.609c1.973,0,3.785,0,5.598,0c31.121,0,62.243-0.12,93.362,0.121
		c5.001,0.039,7.535-1.514,9.129-6.186c1.461-4.28,2.18-9.212,6.732-11.824C241.011,125.318,241.089,126.535,241.167,127.751z
		 M117.865,127.008c-7.071,0-7.068,0-8.436,7.031c-0.348,1.791-0.736,3.575-1.076,5.368c-0.171,0.896-0.815,2.332,0.585,2.398
		c4.14,0.197,8.438,0.688,12.396-0.188c2.735-0.605,2.352-4.346,2.835-6.873C125.65,127.012,125.634,127.008,117.865,127.008z"/>
	<path fill-rule="evenodd" clip-rule="evenodd" fill="#E57583" d="M758,55c-42.398,0-84.796,0-127.305,0
		c0.94,5.147,1.826,9.992,2.71,14.838c-1.023,0.01-2.045,0.02-3.066,0.028c-0.762-3.736-1.543-7.47-2.278-11.212
		c-0.532-2.706-1.997-3.724-4.871-3.708c-26.945,0.149-53.892,0.161-80.838,0.212c-1.022-0.001-2.044-0.002-3.065-0.003
		c-40.622-0.05-81.25,0.29-121.859-0.417c-10.523-0.183-17.56,1.423-19.635,12.871c-0.532,2.935-2.761,5.784-6.333,5.286
		c-4.878-0.681-6.061,1.961-6.47,5.863c-0.26,2.473-0.607,4.937-0.916,7.404c-0.023,1.361-0.048,2.722-0.072,4.083
		c-1.73,3.423-0.844,7.134-1.18,10.71c-1.251,1.807-0.66,3.847-0.736,5.803c-0.313,2.795-0.628,5.591-0.942,8.385
		c-0.094,2.285-0.187,4.571-0.279,6.857c-2.689,7.301,1.408,13.093,4.26,19.162c-0.065,1.278-0.13,2.557-0.195,3.835
		c-21.001-0.021-42.003-0.042-63.005-0.063c-0.075-1.266-0.151-2.531-0.226-3.797c2.007-2.684,1.883-6.133,3.257-9.043
		c2.336-2.397,2.395-6.496,5.958-7.979c0.065,1.203,0.131,2.406,0.195,3.61c-2.61,4.369-4.161,9.129-5.833,14.268
		c15.628,0,30.612-0.054,45.597,0.049c2.729,0.019,3.845-0.994,4.255-3.62c0.564-3.608,1.7-7.146,0.619-10.837
		c0.067-1.122,0.134-2.244,0.201-3.366c2.619-3.132,1.809-6.926,2.032-10.52c0.274-1.807,0.548-3.614,0.822-5.421
		c0.146-2.854,0.291-5.707,0.437-8.56c1.235-2.319,0.553-4.831,0.725-7.258c0.331-2.351,0.663-4.701,0.994-7.052
		c0.289-2.104,0.578-4.208,0.867-6.312c1.153-3.516,0.036-9.181,5.742-8.901c5.522,0.27,7.337-2.563,8.743-6.81
		c0.73-2.206,1.654-4.35,2.52-6.51c1.392-3.472,3.763-5.086,7.708-4.954c7.323,0.243,14.66,0.077,21.991,0.068
		c37.152-0.049,74.304-0.103,111.456-0.153c1.012-0.001,2.022-0.001,3.034-0.002c27.995,0.065,55.991,0.172,83.987,0.188
		C670.67,52.049,714.335,52.011,758,52C758,53,758,54,758,55z M379.093,135.637c-1.099,2.525-1.923,4.278-1.039,6.044
		c0.351,0.702,2.197,0.693,2.604-0.109C381.662,139.586,380.018,138.138,379.093,135.637z"/>
	<path fill-rule="evenodd" clip-rule="evenodd" fill="#E57583" d="M705.361,127.197c-0.883,4.707-1.766,9.413-2.776,14.803
		c18.472,0,36.943,0,55.415,0c0,1,0,2,0,3c-120.027,0.002-240.056,0.005-360.083,0.004c-1.331,0-2.662-0.045-3.993-0.07
		c0.007-0.962,0.013-1.924,0.02-2.886c2.165-0.019,4.33-0.053,6.496-0.053c67.296-0.003,134.593-0.07,201.889,0.138
		c4.994,0.016,6.952-1.572,7.346-6.175c0.255-2.975,0.756-5.93,1.146-8.894c0.048-1.023,0.095-2.048,0.142-3.071
		c0.985-4.937,1.265-9.937,1.323-14.955c0.782-0.904,0.672-1.974,0.561-3.044c0.217-4.997,1.559-9.907,1.162-14.952
		c0.079-0.994,0.158-1.987,0.237-2.98c0.919-4.99,1.838-9.981,2.757-14.973c0.589-0.755,1.178-1.51,1.767-2.265
		c0.429,1.354,0.856,2.707,1.285,4.06c-1.424,4.247-2.191,8.597-2.042,13.089c-0.212,0.995-0.424,1.99-0.636,2.986
		c-0.414,5.006-0.828,10.013-1.242,15.02c-0.045,0.996-0.09,1.992-0.134,2.988c-0.578,4.995-1.157,9.99-1.735,14.985
		c-0.055,1.011-0.11,2.021-0.165,3.03c-0.509,3.444-0.661,6.993-1.621,10.308c-1.113,3.847-0.157,4.811,3.792,4.783
		c23.258-0.16,46.517-0.079,69.774-0.078c14.792,0,14.792,0,16.139-14.884C703.242,127.141,704.302,127.169,705.361,127.197z"/>
	<path fill-rule="evenodd" clip-rule="evenodd" fill="#F1A961" d="M545.346,33.903c56.075,0.032,112.15,0.066,168.226,0.096
		C728.381,34.007,743.19,34,758,34c0,1,0,2,0,3c-70.983,0-141.967-0.001-212.949-0.001
		C545.148,35.967,545.247,34.936,545.346,33.903z"/>
	<path fill-rule="evenodd" clip-rule="evenodd" fill="#8080FE" d="M758,19c-67.363-0.02-134.727-0.039-202.09-0.059
		c0.008-0.967,0.015-1.934,0.022-2.9C623.288,16.027,690.645,16.014,758,16C758,17,758,18,758,19z"/>
	<path fill-rule="evenodd" clip-rule="evenodd" fill="#8080FE" d="M630.339,69.866c1.021-0.009,2.043-0.019,3.066-0.028
		c33.891,0.055,67.779,0.11,101.668,0.161C742.716,70.01,750.357,70,758,70c0,1,0,2,0,3c-41.212,0.045-82.423,0.091-123.631,0.136
		c-1.095,0.003-2.194,0.006-3.293,0.01c-1.057-0.068-2.113-0.137-3.17-0.205c0.008-0.966,0.017-1.932,0.024-2.897
		C628.733,69.984,629.536,69.925,630.339,69.866z"/>
	<path fill-rule="evenodd" clip-rule="evenodd" fill="#7DB247" d="M645.962,88.05C683.308,88.033,720.654,88.017,758,88c0,1,0,2,0,3
		c-37.355-0.024-74.712-0.049-112.067-0.073C645.942,89.968,645.952,89.009,645.962,88.05z"/>
	<path fill-rule="evenodd" clip-rule="evenodd" fill="#3E9999" d="M758,109c-13.354-0.021-26.706-0.044-40.06-0.065
		c0.005-0.963,0.01-1.925,0.015-2.888c13.349-0.016,26.696-0.031,40.045-0.047C758,107,758,108,758,109z"/>
	<path fill-rule="evenodd" clip-rule="evenodd" fill="#3E9999" d="M1,142c6.906-0.041,13.812-0.082,20.719-0.123
		c0.825,1.081,1.698,2.1,3.101,2.447l-0.061,0.455C16.839,144.853,8.92,144.927,1,145C1,144,1,143,1,142z"/>
	<path fill-rule="evenodd" clip-rule="evenodd" fill="#3E9999" d="M7.064,127.763C4.16,131.771,3.731,136.912,1,141c0-5,0-10,0-15
		c2.252,0.32,3.614-2.103,5.832-1.896C6.911,125.322,6.988,126.543,7.064,127.763z"/>
	<path fill-rule="evenodd" clip-rule="evenodd" fill="#8282FE" d="M330.697,33.839c19.638,0.051,39.276,0.061,58.914,0.201
		c2.756,0.021,4.418-1,5.331-3.488c0.114-0.313,0.269-0.609,0.388-0.92c6.362-16.629,4.268-13.511,21.217-13.586
		c37.449-0.167,74.9-0.051,112.352-0.051c0.008,1,0.017,2,0.024,3c-37.947,0.004-75.895,0.008-113.842,0.011
		c-11.928,0.001-11.961-0.014-16.415,11.142c-1.835,4.596-4.475,7.074-10.048,6.991c-19.466-0.289-38.939-0.023-58.41,0.031
		c-1.015-0.004-2.029-0.009-3.044-0.013c-20.988-0.052-41.978-0.018-62.965-0.232c-3.755-0.039-6.226,1.146-8.342,4.186
		c-6.371,9.151-12.997,18.127-19.4,27.257c-2.445,3.487-5.543,4.723-9.776,4.703c-28.82-0.129-57.645,0.159-86.46-0.25
		c-6.095-0.086-8.625,2.2-10.305,7.414c-1.19,3.696-1.941,7.865-5.849,10.075c-0.135-1.007-0.269-2.014-0.403-3.021
		c1.51-3.688,3.114-7.341,4.505-11.074c1.639-4.4,4.313-6.368,9.358-6.33c29.455,0.224,58.913,0.037,88.369,0.197
		c3.956,0.021,6.61-1.234,8.795-4.385c5.686-8.197,11.61-16.229,17.222-24.478c3.427-5.037,7.371-7.551,13.983-7.408
		c20.624,0.445,41.265,0.073,61.898,0.019C328.762,33.832,329.729,33.836,330.697,33.839z"/>
	<path fill-rule="evenodd" clip-rule="evenodd" fill="#8282FE" d="M545.346,33.903c-0.099,1.032-0.197,2.063-0.295,3.096
		c-0.678,4.946-1.355,9.893-2.033,14.839c-1.012,0-2.022,0-3.034,0.001c0.498-4.923,0.996-9.847,1.494-14.771
		c0.136-1.014,0.271-2.028,0.405-3.042c0.834-4.879,1.668-9.759,2.578-15.079c-2.27,0-4.411,0-6.554,0
		c0.008-0.971,0.017-1.941,0.024-2.912c2.988-0.014,5.978-0.026,8.967-0.04c-0.064,1.676,0.144,3.29,1.091,4.732
		C546.068,24.911,546.044,29.475,545.346,33.903z"/>
	<path fill-rule="evenodd" clip-rule="evenodd" fill="#3E9999" d="M76.948,118.055c-1.255-1.477-1.668-3.265-1.899-5.12
		c1.321-4.855,3.863-7.972,9.529-6.971c2.157,0.382,3.443-1.024,4.162-2.828c1.223-3.07,2.291-6.201,3.425-9.306
		c1.268-1.791,2.536-3.584,3.805-5.377c0.322-0.112,0.644-0.226,0.966-0.339c0.053,1.214,0.104,2.43,0.155,3.645
		c-1.129,1.575-2.017,3.258-2.32,5.2c-1.966,3.858-3.521,7.87-4.518,12.09C79.964,108.884,79.964,108.884,76.948,118.055z"/>
	<path fill-rule="evenodd" clip-rule="evenodd" fill="#E67F8C" d="M95.969,88.453c-1.269,1.793-2.537,3.586-3.805,5.377
		c0.117-6.144,0.856-12.231,2.303-18.181c1.979-8.146,5.423-9.229,12.475-4.048c-1.042,0.634-1.979,1.673-2.977,1.735
		c-6.997,0.437-7.131,5.69-7.698,10.662C96.099,85.476,96.064,86.968,95.969,88.453z"/>
	<path fill-rule="evenodd" clip-rule="evenodd" fill="#80B44B" d="M330.697,33.839c-0.968-0.003-1.936-0.007-2.902-0.01
		c-0.019-3.825,0.463-7.594,1.139-11.356c1.625-9.045,4.394-10.266,12.81-4.41C331.396,19.198,330.799,26.367,330.697,33.839z"/>
	<path fill-rule="evenodd" clip-rule="evenodd" fill="#484646" d="M537.932,16.035c-0.008,0.971-0.017,1.941-0.024,2.912
		c-3.871,4.119-5.126,4.126-8.984,0.048c-0.008-1-0.017-2-0.024-3C532.729,11.782,534.119,11.789,537.932,16.035z M531.013,17.416
		c0.074,1.457,0.895,2.461,2.385,2.431c1.464-0.029,2.406-1.033,2.338-2.555c-0.057-1.256-0.843-2.117-2.153-2.213
		C532.021,14.965,531.18,15.793,531.013,17.416z"/>
	<path fill-rule="evenodd" clip-rule="evenodd" fill="#484646" d="M547.989,20.728c-0.947-1.442-1.155-3.057-1.091-4.732
		c3.834-4.215,5.225-4.208,9.034,0.046c-0.008,0.967-0.015,1.934-0.022,2.9C553.818,21.969,551.266,22.952,547.989,20.728z
		 M551.158,15.044c-1.483,0.234-2.234,1.115-2.096,2.67c0.12,1.334,0.993,2.104,2.228,2.127c1.509,0.028,2.468-0.964,2.446-2.439
		C553.715,15.924,552.77,15.068,551.158,15.044z"/>
	<path fill-rule="evenodd" clip-rule="evenodd" fill="#484646" d="M97.091,91.759c-0.052-1.215-0.104-2.431-0.156-3.645
		c3.627-4.397,5.172-4.41,9.003-0.071c-0.011,0.966-0.021,1.932-0.031,2.897C103.294,94.727,100.34,94.834,97.091,91.759z
		 M103.788,88.947c-0.467-0.996-1.109-2.075-2.728-1.868c-1.32,0.169-2.019,0.99-2.018,2.303c0.001,1.558,0.92,2.505,2.396,2.459
		C102.908,91.795,103.715,90.769,103.788,88.947z"/>
	<path fill-rule="evenodd" clip-rule="evenodd" fill="#484646" d="M123.664,87.288c0.135,1.008,0.269,2.015,0.404,3.021
		c-1.859,3.62-4.466,4.729-8.095,2.406c-0.372-0.591-0.743-1.182-1.115-1.772c0.015-0.982,0.03-1.965,0.045-2.947
		C117.522,84.023,120.462,84.02,123.664,87.288z M121.784,89.607c-0.105-1.526-0.857-2.492-2.389-2.546
		c-1.28-0.044-2.162,0.648-2.325,1.984c-0.188,1.532,0.539,2.578,2.039,2.773C120.659,92.021,121.437,90.994,121.784,89.607z"/>
	<path fill-rule="evenodd" clip-rule="evenodd" fill="#8080FE" d="M114.903,87.995c-0.015,0.982-0.03,1.965-0.045,2.947
		c-0.653,0.069-1.308,0.14-1.961,0.209c-2.331-0.07-4.661-0.141-6.991-0.211c0.011-0.966,0.021-1.932,0.031-2.897
		C108.926,88.027,111.915,88.011,114.903,87.995z"/>
	<path fill-rule="evenodd" clip-rule="evenodd" fill="#3E9999" d="M78.951,145.006c-14.724-0.116-29.449-0.232-44.172-0.349
		c0.001,0-0.037-0.349-0.037-0.349c0.781-0.808,1.562-1.616,2.342-2.424c8.311,0.039,16.652-0.338,24.922,0.26
		c5.754,0.416,8.352-1.722,8.927-7.124c0.088-0.823,0.3-1.634,0.455-2.45c1.157,1.271,1.713,2.733,1.767,4.485
		c0.112,3.643,1.983,5.408,5.712,4.962C78.896,143.014,78.924,144.01,78.951,145.006z"/>
	<path fill-rule="evenodd" clip-rule="evenodd" fill="#7DB247" d="M312.16,144.888c-8.718-0.012-17.436-0.024-26.154-0.036
		c-0.031-0.25-0.002-0.493,0.087-0.73c1-0.744,2-1.486,3-2.229c6.894-0.018,13.788-0.035,20.682-0.053
		C310.569,142.855,311.365,143.872,312.16,144.888z"/>
	<path fill-rule="evenodd" clip-rule="evenodd" fill="#E67F8C" d="M312.16,144.888c-0.795-1.016-1.591-2.032-2.385-3.048
		c-2.012-4.743-4.026-9.486-6.037-14.229c0.145-0.991,0.286-1.984,0.429-2.977c2.653,0.979,3.3,3.476,4.281,5.701
		c1.583,3.593,3.125,7.204,4.685,10.808c-0.112,1.267-0.225,2.533-0.336,3.8l-0.324,0.045L312.16,144.888z"/>
	<path fill-rule="evenodd" clip-rule="evenodd" fill="#484646" d="M34.743,144.309c0,0,0.038,0.349,0.037,0.349
		c-5.461,4.483-6.06,4.49-10.018,0.124c-0.002-0.002,0.058-0.457,0.059-0.46c0.105-1.061,0.209-2.119,0.314-3.178
		c2.909-3.018,5.781-2.771,8.624,0.099C33.886,142.329,33.841,143.471,34.743,144.309z M29.433,141.027
		c-1.55,0.122-2.413,0.911-2.39,2.481c0.019,1.322,0.79,2.169,2.045,2.312c1.543,0.175,2.504-0.765,2.635-2.22
		C31.86,142.084,30.917,141.236,29.433,141.027z"/>
	<path fill-rule="evenodd" clip-rule="evenodd" fill="#484646" d="M258.945,145.009c-0.027-1.004-0.055-2.008-0.081-3.013
		c0.188-0.253,0.279-0.537,0.272-0.853c3.299-3.169,6.246-2.925,8.823,0.909c-0.005,0.957-0.011,1.915-0.016,2.872
		C264.032,149.071,262.797,149.083,258.945,145.009z M265.777,143.663c-0.063-1.54-0.797-2.51-2.332-2.597
		c-1.284-0.072-2.178,0.603-2.37,1.929c-0.221,1.526,0.493,2.586,1.984,2.816C264.607,146.051,265.401,145.038,265.777,143.663z"/>
	<path fill-rule="evenodd" clip-rule="evenodd" fill="#484646" d="M286.093,144.122c-0.089,0.236-0.118,0.479-0.087,0.729
		c-3.947,4.231-5.191,4.252-9.046,0.15c-0.057-0.396-0.114-0.792-0.172-1.188c0.438-1.279,0.876-2.559,1.313-3.838
		c2.916-1.762,5.417-1.019,7.662,1.27C285.874,142.204,285.983,143.163,286.093,144.122z M283.778,143.208
		c-0.342-1.4-1.154-2.288-2.718-2.123c-1.321,0.141-2.018,0.984-2.017,2.297c0.001,1.558,0.919,2.505,2.395,2.459
		C282.908,145.795,283.715,144.769,283.778,143.208z"/>
	<path fill-rule="evenodd" clip-rule="evenodd" fill="#484646" d="M312.797,144.942c0.111-1.267,0.224-2.533,0.334-3.8
		c1.967-1.904,4.153-2.863,6.856-1.585c0.569,0.526,1.14,1.054,1.709,1.58c0.075,1.266,0.151,2.531,0.227,3.797
		C318.02,149.07,316.808,149.071,312.797,144.942z M319.772,143.157c-0.365-1.395-1.201-2.262-2.759-2.066
		c-1.318,0.166-1.999,1.035-1.972,2.339c0.033,1.544,0.949,2.487,2.441,2.404C318.954,145.751,319.743,144.726,319.772,143.157z"/>
	<path fill-rule="evenodd" clip-rule="evenodd" fill="#484646" d="M393.943,142.048c-0.007,0.962-0.013,1.924-0.02,2.886
		c-3.883,4.137-5.136,4.146-8.995,0.064c0.064-1.278,0.129-2.557,0.193-3.835C388.408,138,391.362,138.164,393.943,142.048z
		 M389.515,141.036c-1.579,0.07-2.46,0.847-2.477,2.411c-0.014,1.315,0.742,2.186,1.99,2.363c1.542,0.22,2.514-0.695,2.688-2.149
		C391.899,142.131,390.966,141.285,389.515,141.036z"/>
	<path fill-rule="evenodd" clip-rule="evenodd" fill="#484646" d="M78.951,145.006c-0.027-0.996-0.056-1.992-0.083-2.989
		c0.18-0.264,0.269-0.555,0.269-0.873c2.275-2.408,4.844-2.78,7.706-1.107c0.445,1.229,0.891,2.457,1.336,3.686
		c-0.072,0.394-0.146,0.788-0.218,1.182C84.043,149.077,82.801,149.091,78.951,145.006z M85.778,143.208
		c-0.342-1.399-1.154-2.289-2.718-2.123c-1.321,0.141-2.019,0.984-2.018,2.297c0.001,1.558,0.92,2.505,2.396,2.459
		C84.908,145.795,85.715,144.769,85.778,143.208z"/>
	<path fill-rule="evenodd" clip-rule="evenodd" fill="#7DB247" d="M276.788,143.813c0.058,0.396,0.115,0.793,0.172,1.188
		c-3.005-0.025-6.01-0.052-9.016-0.077c0.005-0.957,0.011-1.915,0.017-2.872c2.379-0.035,4.757-0.069,7.136-0.104
		C275.661,142.57,276.225,143.191,276.788,143.813z"/>
	<path fill-rule="evenodd" clip-rule="evenodd" fill="#3E9999" d="M615.999,108.967c0.044-0.996,0.089-1.992,0.134-2.988
		c20.463,0.007,40.926,0.133,61.387-0.07c4.593-0.045,7.077,1.734,8.649,5.809c1.489,3.858,2.598,7.899,4.9,11.414
		c0.016,0.311-0.035,0.61-0.152,0.897c-1.053-0.059-2.105-0.116-3.158-0.175c-1.305-3.224-2.771-6.394-3.872-9.686
		c-1.264-3.772-3.279-5.35-7.615-5.292C656.185,109.144,636.091,108.978,615.999,108.967z"/>
	<path fill-rule="evenodd" clip-rule="evenodd" fill="#7DB247" d="M705.361,127.197c-1.06-0.028-2.119-0.057-3.181-0.086
		c-0.75-0.062-1.499-0.123-2.247-0.185c0.009-0.959,0.019-1.917,0.027-2.876c1.013-0.063,2.025-0.127,3.037-0.19
		c1.179,0.024,2.358,0.048,3.538,0.071c6.794,0.019,13.588,0.037,20.383,0.056c0.009,1.003,0.019,2.007,0.027,3.011
		C719.751,127.064,712.557,127.131,705.361,127.197z"/>
	<path fill-rule="evenodd" clip-rule="evenodd" fill="#E67F8C" d="M706.536,123.932c-1.18-0.023-2.359-0.047-3.538-0.071
		c1.607-5.81,0.646-12.486,5.785-17.1c0.401,1.268,0.803,2.534,1.203,3.801C707.284,114.617,707.167,119.341,706.536,123.932z"/>
	<path fill-rule="evenodd" clip-rule="evenodd" fill="#7DB247" d="M617.375,90.959c0.212-0.996,0.424-1.991,0.636-2.986
		c5.395-0.025,10.788-0.051,16.183-0.076c0.866,0.706,1.731,1.412,2.598,2.117c0.09,0.306,0.13,0.618,0.119,0.937
		C630.398,90.953,623.887,90.956,617.375,90.959z"/>
	<path fill-rule="evenodd" clip-rule="evenodd" fill="#484646" d="M699.961,124.051c-0.009,0.959-0.019,1.917-0.027,2.876
		c-3.9,4.145-5.146,4.155-8.979,0.076c-0.013-0.991-0.026-1.982-0.039-2.975c0.118-0.287,0.169-0.587,0.153-0.897
		C694.381,120.085,697.371,120.138,699.961,124.051z M695.157,123.044c-1.482,0.235-2.233,1.115-2.095,2.669
		c0.119,1.335,0.993,2.105,2.228,2.128c1.509,0.028,2.468-0.964,2.446-2.439C697.715,123.924,696.77,123.068,695.157,123.044z"/>
	<path fill-rule="evenodd" clip-rule="evenodd" fill="#484646" d="M636.91,90.95c0.011-0.318-0.029-0.631-0.119-0.938
		c0.388-1.237,0.775-2.474,1.162-3.71c3.328-2.435,5.896-1.39,8.009,1.748c-0.01,0.958-0.02,1.917-0.029,2.876
		C642.016,95.08,640.761,95.083,636.91,90.95z M639.026,89.282c0.034,1.615,0.901,2.584,2.372,2.563
		c1.461-0.021,2.405-1.031,2.337-2.553c-0.057-1.257-0.843-2.117-2.153-2.213C640.021,86.965,639.18,87.793,639.026,89.282z"/>
	<path fill-rule="evenodd" clip-rule="evenodd" fill="#484646" d="M709.986,110.562c-0.4-1.267-0.802-2.533-1.203-3.801
		c3.106-5.015,5.179-5.176,9.172-0.714c-0.005,0.963-0.01,1.925-0.015,2.888C715.779,111.874,713.276,113.139,709.986,110.562z
		 M713.472,109.903c1.419-0.336,2.411-1.14,2.253-2.677c-0.154-1.492-1.144-2.309-2.689-2.137c-1.32,0.146-2.004,1.01-1.993,2.317
		C711.055,108.968,711.991,109.711,713.472,109.903z"/>
	<path fill-rule="evenodd" clip-rule="evenodd" fill="#F1AB65" d="M268.068,69.988c0.292-3.351-0.128-6.638-0.918-9.886
		c-0.478-1.963,0.12-4.644-2.914-5.044c-2.725-0.359-5.311-0.122-7.121,2.439c-4.032,5.704-8.023,11.441-12.205,17.035
		c-4.04,5.403-6.886,11.805-12.829,15.65c-0.137-0.965-0.273-1.928-0.409-2.892c7.189-8.499,13.213-17.854,19.433-27.041
		c3.965-5.857,8.413-8.661,15.918-8.452c19.729,0.547,39.483,0.136,59.227,0.107c1.007,0.003,2.015,0.006,3.022,0.008
		c16.805,0.025,33.651-0.648,50.399,0.335c10.332,0.605,16.754-1.707,18.859-12.538c0.752-3.867,3.593-5.815,8.077-5.801
		c45.092,0.145,90.184,0.104,135.275,0.116c-0.135,1.014-0.27,2.028-0.407,3.042c-42.131-0.02-84.26-0.04-126.389-0.059
		c-11.892-0.005-11.972-0.032-16.405,11.152c-1.953,4.928-4.963,7.059-10.575,6.975c-19.644-0.294-39.295-0.057-58.943-0.021
		c-1.02-0.006-2.04-0.012-3.06-0.018c-16.275-0.03-32.551-0.064-48.826-0.088c-7.451-0.011-7.43-0.004-6.501,7.135
		c0.342,2.624,0.146,5.326,1.169,7.849c0.034,1.018,0.069,2.034,0.104,3.052c0.37,4.982,0.74,9.966,1.109,14.949
		c0.064,1.004,0.13,2.009,0.195,3.014c0.304,4.993,0.607,9.986,0.911,14.98c-0.099,1.095-0.311,2.216,0.713,3.048
		c0.137,10.404,1.109,20.725,3.125,30.939c-0.438,1.279-0.876,2.559-1.314,3.838c-0.563-0.622-1.127-1.243-1.692-1.864
		c-1.718-10.919-2.919-21.891-3.36-32.94c0.099-1.094,0.31-2.214-0.713-3.045c0.222-5.029-0.159-10.016-1.072-14.964
		c-0.035-1.001-0.071-2.002-0.107-3.003c-0.337-4.998-0.674-9.996-1.012-14.994C268.939,71.906,269.047,70.811,268.068,69.988z"/>
	<path fill-rule="evenodd" clip-rule="evenodd" fill="#3E9999" d="M254.003,91.042c-12.766-0.168-12.879-0.214-17.661,11.583
		c-1.875,4.623-4.643,6.516-9.817,6.481c-31.83-0.208-63.662-0.098-95.493-0.094c0.06-1.047,0.119-2.093,0.18-3.139
		c32.235,0.043,64.47,0.061,96.703,0.17c2.806,0.01,4.667-1.129,5.125-3.671c2.237-12.42,9.875-16.521,21.688-14.462
		C254.949,89.063,255.037,90.182,254.003,91.042z"/>
	<path fill-rule="evenodd" clip-rule="evenodd" fill="#3E9999" d="M127.726,109.088c-4.997,0.053-9.994,0.105-14.989,0.157
		c-0.977-0.033-1.956-0.065-2.935-0.097c-5.259-0.055-10.519-0.109-15.778-0.164c0.042-1.007,0.085-2.013,0.127-3.02
		c5.313-0.024,10.627-0.049,15.939-0.073c1.093,0.022,2.186,0.044,3.277,0.065c4.852,0.018,9.704,0.035,14.555,0.053
		C127.856,107.036,127.791,108.062,127.726,109.088z"/>
	<path fill-rule="evenodd" clip-rule="evenodd" fill="#E67F8C" d="M94.15,105.965c-0.042,1.007-0.085,2.013-0.127,3.02
		c-0.479,4.979-0.959,9.956-1.443,14.935c-1.185-0.02-2.364-0.038-3.544-0.058c0.404-4.938,0.809-9.875,1.214-14.813
		c0.999-4.22,2.554-8.231,4.521-12.09C94.563,99.96,94.357,102.963,94.15,105.965z"/>
	<path fill-rule="evenodd" clip-rule="evenodd" fill="#E67F8C" d="M86.843,140.036c0.666-4.29,1.332-8.581,1.999-12.871
		c1.051-0.007,2.102-0.015,3.152-0.021c-0.738,4.926-1.476,9.851-2.215,14.775c-0.535,0.602-1.068,1.204-1.602,1.805
		C87.733,142.493,87.288,141.265,86.843,140.036z"/>
	<path fill-rule="evenodd" clip-rule="evenodd" fill="#484646" d="M249.903,128.086c-2.989,1.897-5.945,2.914-8.737-0.334
		c-0.077-1.217-0.155-2.434-0.233-3.649c3.643-4.346,5.342-4.326,9.085,0.105C251.062,125.533,250.825,126.819,249.903,128.086z
		 M247.824,125.451c-0.241-1.281-0.85-2.365-2.429-2.394c-1.282-0.023-2.163,0.652-2.326,1.988c-0.188,1.532,0.54,2.578,2.04,2.773
		C246.659,128.021,247.437,126.994,247.824,125.451z"/>
	<path fill-rule="evenodd" clip-rule="evenodd" fill="#484646" d="M141.908,90.931c-2.074,3.014-4.611,4.012-7.882,1.806
		c-0.412-1.331-0.824-2.663-1.236-3.994c3.12-4.988,5.185-5.144,9.169-0.693C141.942,89.01,141.925,89.971,141.908,90.931z
		 M137.433,87.027c-1.549,0.122-2.413,0.91-2.391,2.481c0.02,1.321,0.791,2.169,2.046,2.312c1.544,0.175,2.504-0.765,2.636-2.22
		C139.859,88.084,138.917,87.236,137.433,87.027z"/>
	<path fill-rule="evenodd" clip-rule="evenodd" fill="#3E9999" d="M258.027,87.973c3.939,0.008,7.878,0.017,11.816,0.024
		c0.035,1.001,0.071,2.002,0.106,3.003c-4.211,0.019-8.422,0.037-12.63,0.054C257.057,89.911,257.014,88.82,258.027,87.973z"/>
	<path fill-rule="evenodd" clip-rule="evenodd" fill="#E67F8C" d="M253.895,129.178c1.746,3.988,3.493,7.978,5.241,11.966
		c0.008,0.315-0.083,0.6-0.271,0.853c-1.02-0.045-2.038-0.092-3.057-0.138c-0.948-1.798-1.896-3.596-2.844-5.394
		C253.21,134.027,252.517,131.471,253.895,129.178z"/>
	<path fill-rule="evenodd" clip-rule="evenodd" fill="#3E9999" d="M76.073,124.887c-0.418,1.924-0.836,3.848-1.255,5.771
		c-0.713-1.512-1.427-3.025-2.141-4.539c0.499-1.709,0.145-3.626,1.26-5.188C75.269,121.916,75.716,123.377,76.073,124.887z"/>
	<path fill-rule="evenodd" clip-rule="evenodd" fill="#E67F8C" d="M637.953,86.303c-0.387,1.236-0.774,2.473-1.162,3.71
		c-0.866-0.704-1.731-1.41-2.6-2.115c-1.04-4.917-2.078-9.835-3.115-14.752c1.099-0.004,2.198-0.007,3.293-0.01
		C635.409,77.566,635.242,82.327,637.953,86.303z"/>
	<path fill-rule="evenodd" clip-rule="evenodd" fill="#80B44B" d="M329.163,55.115c-0.168,3.655-0.198,7.323-0.549,10.961
		c-0.291,3.016,0.663,4.03,3.809,3.981c11.482-0.178,23.002,0.461,34.441-0.254c7.777-0.485,12.827,1.58,14.961,9.294
		c-0.291,2.104-0.58,4.208-0.869,6.314c-0.989-2.251-2.229-4.431-2.913-6.772c-1.256-4.296-3.622-5.963-8.318-5.753
		c-9.298,0.417-18.627,0.123-27.943,0.123c-14.797,0-14.797,0-13.938,14.971c-0.974,0.895-0.799,1.997-0.565,3.11
		c-0.153,3.492-0.014,7.029-0.54,10.465c-0.566,3.702,0.794,4.536,4.248,4.497c13.659-0.156,27.321-0.014,40.981-0.108
		c2.646-0.019,4.932,0.451,6.834,2.335c-0.274,1.807-0.548,3.614-0.822,5.423c-1.628-1.627-1.595-4.766-5.066-4.738
		c-14.66,0.116-29.322,0.065-43.983,0.027c-1.796-0.005-2.801,0.497-2.892,2.476c-0.315,6.878-0.716,13.752-1.083,20.628
		c-1.374,2.91-1.25,6.359-3.257,9.043c-0.57-0.526-1.141-1.054-1.71-1.58c2.468-8.54,2.02-17.416,3.055-26.12
		c0.41-3.449-0.574-4.563-4.185-4.512c-14.625,0.208-29.254,0.102-43.881,0.11c-1.022-0.832-0.811-1.953-0.714-3.049
		c11.817,0,23.638,0.002,35.458,0.003c14.598,0,14.598,0,14.24-14.97c0.036-1.002,0.073-2.004,0.109-3.006
		c0.307-3.639,0.453-7.3,0.965-10.908c0.479-3.375-0.802-4.193-4.041-4.162c-16.313,0.157-32.63,0.089-48.945,0.101
		c-0.034-1.018-0.069-2.034-0.103-3.051c12.929-0.002,25.858,0.084,38.785-0.05c4.756-0.049,10.955,2.1,13.879-0.9
		c2.882-2.957,1.277-9.158,1.493-13.946C327.123,55.104,328.144,55.109,329.163,55.115z"/>
	<path fill-rule="evenodd" clip-rule="evenodd" fill="#7DB247" d="M610.819,127.064c-73.595-0.021-147.189-0.069-220.784,0.002
		c-4.249,0.004-7.553-0.757-9.172-5.064c0.093-2.287,0.186-4.573,0.279-6.858c1.852,7.638,6.758,9.086,14.274,9.052
		c71.847-0.329,143.696-0.2,215.544-0.202C610.914,125.017,610.867,126.041,610.819,127.064z"/>
	<path fill-rule="evenodd" clip-rule="evenodd" fill="#3E9999" d="M382.821,100.956c1.239,4.237,4.149,5.135,8.351,5.128
		c73.891-0.119,147.782-0.088,221.673-0.09c0.111,1.07,0.222,2.14-0.561,3.044c-73.945-0.012-147.893-0.03-221.84-0.015
		c-3.032,0-6.014,0.123-8.359-2.265C382.161,104.803,381.57,102.763,382.821,100.956z"/>
	<path fill-rule="evenodd" clip-rule="evenodd" fill="#8282FE" d="M542.352,55.158c-0.616,3.921-0.99,7.9-1.931,11.741
		c-0.66,2.697,0.265,3.143,2.59,3.121c7.296-0.07,14.593-0.024,21.889-0.023c0.009,0.999,0.017,1.998,0.024,2.997
		c-39.006-0.016-78.012-0.031-117.018-0.047c0.008-0.971,0.016-1.941,0.023-2.912c27.722-0.013,55.443-0.149,83.163,0.084
		c4.5,0.038,6.346-1.553,6.869-5.624c0.401-3.118,0.877-6.228,1.322-9.341C540.308,55.156,541.329,55.157,542.352,55.158z"/>
	<path fill-rule="evenodd" clip-rule="evenodd" fill="#80B44B" d="M384.073,86.163c5.605,3.71,9.188,2.568,11.783-3.521
		c1.887-4.427,2.349-9.701,7.076-12.54c0.044,1.222,0.087,2.444,0.131,3.666c-2.673,4.34-4.006,9.184-5.827,14.21
		c20.259,0,39.97,0,59.682,0c0.009,1.01,0.019,2.02,0.027,3.03c-22.202,0.001-44.405,0.011-66.608-0.012
		c-2.128-0.002-4.327,0.38-6.335-0.749C384.025,88.885,384.05,87.524,384.073,86.163z"/>
	<path fill-rule="evenodd" clip-rule="evenodd" fill="#3E9999" d="M327.843,87.98c14.333,0.007,28.668,0.151,42.997-0.068
		c4.087-0.063,7.129,0.921,9.122,4.549c-0.172,2.428,0.511,4.939-0.725,7.259c-0.69-1.687-1.48-3.34-2.049-5.066
		c-0.91-2.763-2.635-3.745-5.595-3.712c-14.772,0.163-29.547,0.121-44.318,0.15C327.044,89.978,326.869,88.875,327.843,87.98z"/>
	<path fill-rule="evenodd" clip-rule="evenodd" fill="#484646" d="M339.927,126.931c-2.628,3.735-5.569,3.982-8.82,0.796
		c-0.063-1.204-0.129-2.407-0.194-3.61c3.577-4.284,5.288-4.297,9.033-0.064C339.938,125.012,339.933,125.971,339.927,126.931z
		 M337.777,125.663c-0.063-1.54-0.797-2.51-2.331-2.597c-1.284-0.072-2.178,0.603-2.37,1.929c-0.222,1.526,0.492,2.587,1.983,2.816
		C336.607,128.051,337.401,127.038,337.777,125.663z"/>
	<path fill-rule="evenodd" clip-rule="evenodd" fill="#484646" d="M375.745,127.586c-3.155,3.122-6.121,3.387-8.807-0.583
		c-0.009-1.006-0.018-2.012-0.025-3.019c3.771-4.199,5.474-4.155,9.033,0.234C375.879,125.342,375.813,126.464,375.745,127.586z
		 M373.804,125.452c-0.235-1.452-0.972-2.428-2.538-2.384c-1.296,0.037-2.111,0.766-2.21,2.108
		c-0.113,1.556,0.695,2.548,2.184,2.655C372.774,127.944,373.533,126.889,373.804,125.452z"/>
	<path fill-rule="evenodd" clip-rule="evenodd" fill="#484646" d="M744.937,123.974c1.613-2.481,3.614-3.979,6.644-2.362
		c1.686,0.899,3.217,2.799,3.111,4.18c-0.127,1.669-2.082,3.182-3.939,3.875c-2.717,1.014-4.372-0.648-5.79-2.657
		C744.953,125.997,744.945,124.985,744.937,123.974z M749.633,127.925c1.172-0.432,2.285-1.113,2.097-2.698
		c-0.178-1.491-1.148-2.309-2.694-2.137c-1.32,0.146-2.004,1.01-1.994,2.317C747.055,126.968,747.991,127.711,749.633,127.925z"/>
	<path fill-rule="evenodd" clip-rule="evenodd" fill="#484646" d="M726.946,126.998c-0.009-1.004-0.019-2.008-0.027-3.011
		c3.825-4.215,5.186-4.205,9.046,0.064c-0.007,0.958-0.015,1.915-0.021,2.872C732.027,131.072,730.789,131.083,726.946,126.998z
		 M731.211,127.89c1.55-0.116,2.518-0.976,2.529-2.438c0.012-1.47-0.918-2.422-2.478-2.381c-1.296,0.034-2.104,0.767-2.209,2.108
		C728.933,126.747,729.793,127.557,731.211,127.89z"/>
	<path fill-rule="evenodd" clip-rule="evenodd" fill="#7DB247" d="M735.943,126.924c0.007-0.957,0.015-1.914,0.021-2.872
		c2.99-0.026,5.981-0.053,8.972-0.078c0.009,1.012,0.017,2.023,0.025,3.035C741.955,126.98,738.949,126.952,735.943,126.924z"/>
	<path fill-rule="evenodd" clip-rule="evenodd" fill="#7DB247" d="M519.961,88.051c31.426,0.004,62.852,0.008,94.28,0.011
		c-0.076,0.993-0.155,1.986-0.234,2.98c-31.357-0.038-62.716-0.076-94.073-0.114C519.942,89.969,519.952,89.01,519.961,88.051z"/>
	<path fill-rule="evenodd" clip-rule="evenodd" fill="#7DB247" d="M614.264,123.952c13.552,0.012,27.104,0.024,40.656,0.035
		c0.009,1.004,0.018,2.007,0.026,3.011c-13.616-0.005-27.232-0.011-40.849-0.016C614.153,125.973,614.209,124.963,614.264,123.952z"
		/>
	<path fill-rule="evenodd" clip-rule="evenodd" fill="#484646" d="M627.906,72.94c-2.028,3.033-4.6,3.869-7.854,1.943
		c-0.428-1.353-0.855-2.706-1.284-4.059c0.092-0.229,0.102-0.464,0.029-0.701c3.78-4.317,5.372-4.331,9.134-0.081
		C627.923,71.009,627.914,71.975,627.906,72.94z M625.8,71.407c-0.257-1.439-0.999-2.404-2.571-2.336
		c-1.304,0.056-2.09,0.808-2.175,2.143c-0.101,1.563,0.741,2.54,2.221,2.621C624.795,73.918,625.566,72.869,625.8,71.407z"/>
	<path fill-rule="evenodd" clip-rule="evenodd" fill="#8282FE" d="M618.797,70.124c0.072,0.237,0.063,0.472-0.029,0.701
		c-0.589,0.754-1.178,1.509-1.767,2.264c-2.365-0.047-4.729-0.095-7.095-0.142c0.008-0.971,0.016-1.94,0.023-2.911
		C612.885,70.065,615.841,70.095,618.797,70.124z"/>
	<path fill-rule="evenodd" clip-rule="evenodd" fill="#E67F8C" d="M34.743,144.309c-0.901-0.838-0.857-1.979-0.984-3.066
		c1.742-4.28,3.457-8.572,5.242-12.835c0.786-1.879,2.092-3.354,3.916-4.328c0.075,1.224,0.149,2.448,0.222,3.673
		c-2.807,4.373-3.901,9.479-6.052,14.133C36.304,142.692,35.523,143.501,34.743,144.309z"/>
	<path fill-rule="evenodd" clip-rule="evenodd" fill="#E67F8C" d="M25.134,141.144c-0.104,1.059-0.209,2.117-0.314,3.178
		c-1.403-0.345-2.276-1.363-3.101-2.444c-1.995-4.756-3.989-9.511-5.981-14.267c0.145-0.991,0.287-1.984,0.429-2.977
		c3.161,1.296,3.638,4.438,4.828,7.072C22.409,134.836,23.757,137.996,25.134,141.144z"/>
	<path fill-rule="evenodd" clip-rule="evenodd" fill="#E67F8C" d="M72.678,126.119c0.713,1.514,1.427,3.027,2.141,4.539
		c0.958,3.692,2.305,7.226,4.317,10.485c0.001,0.318-0.088,0.609-0.268,0.873c-3.729,0.447-5.601-1.318-5.713-4.961
		c-0.054-1.752-0.609-3.214-1.768-4.48c-0.544-1.649-1.087-3.304-1.63-4.958c0.137-0.994,0.273-1.988,0.41-2.982
		C71.004,125.129,71.841,125.624,72.678,126.119z"/>
	<path fill-rule="evenodd" clip-rule="evenodd" fill="#484646" d="M43.138,127.752c-0.074-1.225-0.148-2.449-0.223-3.673
		c3.605-4.242,5.3-4.248,9.029-0.027c-0.008,0.96-0.016,1.92-0.023,2.88C49.314,130.637,46.389,130.935,43.138,127.752z
		 M49.777,125.663c-0.063-1.54-0.797-2.51-2.332-2.597c-1.284-0.072-2.178,0.603-2.37,1.929c-0.221,1.526,0.492,2.587,1.983,2.816
		C48.608,128.051,49.401,127.038,49.777,125.663z"/>
	<path fill-rule="evenodd" clip-rule="evenodd" fill="#484646" d="M70.167,124.635c-0.137,0.994-0.273,1.988-0.407,2.983
		c-3.171,3.042-6.154,3.37-8.831-0.624c-0.006-1.003-0.011-2.006-0.017-3.01C64.813,119.641,66.593,119.766,70.167,124.635z
		 M67.83,125.471c-0.245-1.232-0.79-2.353-2.383-2.409c-1.287-0.046-2.178,0.607-2.37,1.934c-0.221,1.526,0.492,2.587,1.983,2.816
		C66.608,128.051,67.401,127.038,67.83,125.471z"/>
	<path fill-rule="evenodd" clip-rule="evenodd" fill="#484646" d="M16.167,124.634c-0.142,0.992-0.285,1.985-0.429,2.977
		c-2.841,3.04-5.733,3.003-8.674,0.152c-0.076-1.22-0.153-2.44-0.231-3.658C10.751,119.624,12.547,119.726,16.167,124.634z
		 M11.515,123.036c-1.58,0.07-2.46,0.846-2.477,2.411c-0.014,1.315,0.742,2.186,1.99,2.363c1.542,0.22,2.514-0.695,2.688-2.149
		C13.899,124.131,12.965,123.285,11.515,123.036z"/>
	<path fill-rule="evenodd" clip-rule="evenodd" fill="#E57583" d="M60.913,123.984c0.005,1.004,0.011,2.007,0.017,3.011
		c-3.002-0.021-6.005-0.042-9.008-0.063c0.008-0.96,0.016-1.92,0.023-2.88C54.934,124.029,57.923,124.007,60.913,123.984z"/>
	<path fill-rule="evenodd" clip-rule="evenodd" fill="#80B44B" d="M330.208,37.17c-0.311,4.915-0.622,9.83-0.935,14.745
		c-1.01-0.003-2.018-0.006-3.024-0.009c0.306-4.917,0.61-9.834,0.915-14.75C328.179,37.161,329.193,37.166,330.208,37.17z"/>
	<path fill-rule="evenodd" clip-rule="evenodd" fill="#E7E7E7" d="M531.013,17.416c0.167-1.623,1.008-2.451,2.569-2.337
		c1.311,0.096,2.097,0.957,2.153,2.213c0.068,1.521-0.874,2.525-2.338,2.555C531.907,19.877,531.087,18.873,531.013,17.416z"/>
	<path fill-rule="evenodd" clip-rule="evenodd" fill="#E7E7E7" d="M551.158,15.044c1.611,0.024,2.557,0.88,2.578,2.357
		c0.021,1.476-0.938,2.468-2.446,2.439c-1.234-0.022-2.107-0.793-2.228-2.127C548.924,16.159,549.675,15.278,551.158,15.044z"/>
	<path fill-rule="evenodd" clip-rule="evenodd" fill="#E7E7E7" d="M103.788,88.947c-0.073,1.821-0.88,2.848-2.35,2.894
		c-1.476,0.046-2.395-0.901-2.396-2.459c-0.001-1.313,0.697-2.134,2.018-2.303C102.679,86.872,103.321,87.951,103.788,88.947z"/>
	<path fill-rule="evenodd" clip-rule="evenodd" fill="#80B44B" d="M110.09,105.892c0.708-4.957,1.253-9.945,2.808-14.74
		c0.653-0.069,1.308-0.14,1.961-0.209c0.372,0.591,0.743,1.182,1.115,1.772c-1.906,4.211-2.154,8.747-2.603,13.243
		C112.275,105.936,111.183,105.914,110.09,105.892z"/>
	<path fill-rule="evenodd" clip-rule="evenodd" fill="#E7E7E7" d="M121.784,89.607c-0.348,1.387-1.125,2.413-2.675,2.212
		c-1.5-0.195-2.227-1.241-2.039-2.773c0.163-1.336,1.045-2.028,2.325-1.984C120.927,87.115,121.679,88.081,121.784,89.607z"/>
	<path fill-rule="evenodd" clip-rule="evenodd" fill="#E67F8C" d="M295.118,127.75c-2.764,4.393-3.906,9.476-6.025,14.143
		c-1,0.742-2,1.484-3,2.229c-0.109-0.958-0.219-1.917-0.327-2.877c0.94-2.29,1.826-4.604,2.828-6.866
		c1.646-3.71,2.226-8.088,6.321-10.298C294.982,125.304,295.051,126.527,295.118,127.75z"/>
	<path fill-rule="evenodd" clip-rule="evenodd" fill="#484646" d="M294.915,124.08c3.808-4.458,5.648-4.348,9.253,0.557
		c-0.144,0.989-0.285,1.982-0.43,2.974c-2.828,2.978-5.7,3.088-8.621,0.14C295.051,126.527,294.982,125.304,294.915,124.08z
		 M301.8,125.407c-0.257-1.439-0.999-2.404-2.571-2.337c-1.304,0.057-2.09,0.809-2.175,2.144c-0.101,1.563,0.741,2.54,2.221,2.621
		C300.795,127.918,301.566,126.869,301.8,125.407z"/>
	<path fill-rule="evenodd" clip-rule="evenodd" fill="#E7E7E7" d="M29.433,141.027c1.484,0.209,2.427,1.057,2.29,2.573
		c-0.131,1.455-1.091,2.395-2.635,2.22c-1.255-0.143-2.027-0.989-2.045-2.312C27.021,141.938,27.883,141.149,29.433,141.027z"/>
	<path fill-rule="evenodd" clip-rule="evenodd" fill="#E7E7E7" d="M265.777,143.663c-0.376,1.375-1.17,2.388-2.718,2.148
		c-1.491-0.23-2.205-1.29-1.984-2.816c0.192-1.326,1.086-2.001,2.37-1.929C264.98,141.153,265.714,142.123,265.777,143.663z"/>
	<path fill-rule="evenodd" clip-rule="evenodd" fill="#E7E7E7" d="M283.778,143.208c-0.063,1.561-0.87,2.587-2.34,2.633
		c-1.476,0.046-2.394-0.901-2.395-2.459c-0.001-1.313,0.695-2.156,2.017-2.297C282.624,140.92,283.437,141.808,283.778,143.208z"/>
	<path fill-rule="evenodd" clip-rule="evenodd" fill="#E7E7E7" d="M319.772,143.157c-0.029,1.568-0.818,2.594-2.289,2.677
		c-1.492,0.083-2.408-0.86-2.441-2.404c-0.027-1.304,0.653-2.173,1.972-2.339C318.571,140.896,319.407,141.763,319.772,143.157z"/>
	<path fill-rule="evenodd" clip-rule="evenodd" fill="#E7E7E7" d="M389.515,141.036c1.451,0.249,2.385,1.095,2.201,2.625
		c-0.174,1.454-1.146,2.369-2.688,2.149c-1.248-0.178-2.004-1.048-1.99-2.363C387.055,141.883,387.936,141.106,389.515,141.036z"/>
	<path fill-rule="evenodd" clip-rule="evenodd" fill="#E7E7E7" d="M85.778,143.208c-0.063,1.561-0.87,2.587-2.34,2.633
		c-1.476,0.046-2.395-0.901-2.396-2.459c-0.001-1.313,0.696-2.156,2.018-2.297C84.624,140.919,85.437,141.809,85.778,143.208z"/>
	<path fill-rule="evenodd" clip-rule="evenodd" fill="#7DB247" d="M681.96,124.052c1.933-0.066,3.866-0.132,5.799-0.198
		c1.053,0.059,2.105,0.116,3.158,0.175c0.012,0.992,0.025,1.983,0.038,2.975c-3.008-0.025-6.016-0.051-9.022-0.076
		C681.942,125.969,681.951,125.01,681.96,124.052z"/>
	<path fill-rule="evenodd" clip-rule="evenodd" fill="#E7E7E7" d="M695.157,123.044c1.612,0.024,2.558,0.88,2.579,2.357
		c0.021,1.476-0.938,2.468-2.446,2.439c-1.234-0.022-2.108-0.793-2.228-2.128C692.924,124.159,693.675,123.279,695.157,123.044z"/>
	<path fill-rule="evenodd" clip-rule="evenodd" fill="#E7E7E7" d="M639.026,89.282c0.153-1.489,0.994-2.317,2.556-2.203
		c1.311,0.096,2.097,0.956,2.153,2.213c0.068,1.521-0.876,2.531-2.337,2.553C639.928,91.866,639.061,90.897,639.026,89.282z"/>
	<path fill-rule="evenodd" clip-rule="evenodd" fill="#E7E7E7" d="M713.472,109.903c-1.48-0.192-2.417-0.936-2.43-2.496
		c-0.011-1.308,0.673-2.171,1.993-2.317c1.546-0.172,2.535,0.645,2.689,2.137C715.883,108.764,714.891,109.567,713.472,109.903z"/>
	<path fill-rule="evenodd" clip-rule="evenodd" fill="#484646" d="M195.908,90.931c-3.866,4.136-5.127,4.144-8.984,0.054
		c-0.008-0.992-0.016-1.986-0.022-2.979c3.834-4.229,5.201-4.222,9.058,0.044C195.942,89.01,195.925,89.971,195.908,90.931z
		 M193.777,88.872c-0.504-0.938-1.145-2.03-2.765-1.788c-1.315,0.197-1.998,1.042-1.971,2.346c0.033,1.544,0.949,2.487,2.441,2.404
		C192.954,91.751,193.743,90.726,193.777,88.872z"/>
	<path fill-rule="evenodd" clip-rule="evenodd" fill="#484646" d="M159.908,90.931c-3.866,4.136-5.127,4.144-8.985,0.054
		c-0.007-0.993-0.015-1.985-0.022-2.979c3.834-4.229,5.202-4.223,9.059,0.043C159.942,89.01,159.925,89.971,159.908,90.931z
		 M157.794,89.346c-0.288-1.418-1.035-2.373-2.614-2.272c-1.314,0.083-2.064,0.865-2.13,2.189c-0.076,1.569,0.799,2.532,2.273,2.576
		C156.824,91.884,157.61,90.842,157.794,89.346z"/>
	<path fill-rule="evenodd" clip-rule="evenodd" fill="#484646" d="M177.909,90.931c-3.867,4.136-5.128,4.144-8.986,0.054
		c-0.007-0.993-0.015-1.985-0.022-2.979c3.834-4.229,5.202-4.223,9.059,0.043C177.942,89.01,177.926,89.97,177.909,90.931z
		 M173.433,87.027c-1.549,0.122-2.412,0.911-2.39,2.481c0.019,1.322,0.79,2.169,2.045,2.312c1.544,0.175,2.504-0.765,2.636-2.22
		C175.859,88.084,174.917,87.236,173.433,87.027z"/>
	<path fill-rule="evenodd" clip-rule="evenodd" fill="#484646" d="M213.908,90.931c-3.866,4.136-5.127,4.144-8.985,0.054
		c-0.007-0.993-0.015-1.985-0.022-2.979c3.834-4.229,5.202-4.223,9.059,0.043C213.942,89.01,213.925,89.971,213.908,90.931z
		 M211.777,88.872c-0.504-0.938-1.145-2.03-2.765-1.788c-1.315,0.197-1.998,1.042-1.971,2.346c0.033,1.544,0.949,2.487,2.441,2.404
		C210.954,91.751,211.743,90.726,211.777,88.872z"/>
	<path fill-rule="evenodd" clip-rule="evenodd" fill="#484646" d="M231.672,87.292c0.136,0.964,0.272,1.927,0.409,2.892
		c-3.364,4.927-5.16,5.084-9.158,0.801c-0.007-0.993-0.015-1.985-0.022-2.979C225.519,84.016,228.464,84.035,231.672,87.292z
		 M229.832,89.301c-0.342-1.219-0.966-2.301-2.566-2.235c-1.297,0.053-2.111,0.769-2.21,2.111c-0.113,1.556,0.695,2.548,2.184,2.655
		C228.774,91.943,229.533,90.889,229.832,89.301z"/>
	<path fill-rule="evenodd" clip-rule="evenodd" fill="#F1A961" d="M204.9,88.006c0.008,0.993,0.016,1.985,0.022,2.979
		c-3.005-0.019-6.01-0.036-9.014-0.054c0.016-0.96,0.033-1.921,0.05-2.882C198.939,88.034,201.92,88.021,204.9,88.006z"/>
	<path fill-rule="evenodd" clip-rule="evenodd" fill="#F1A961" d="M222.9,88.006c0.008,0.993,0.016,1.985,0.022,2.979
		c-3.005-0.019-6.01-0.036-9.014-0.054c0.016-0.96,0.033-1.921,0.05-2.882C216.939,88.034,219.92,88.021,222.9,88.006z"/>
	<path fill-rule="evenodd" clip-rule="evenodd" fill="#F1A961" d="M177.909,90.931c0.017-0.961,0.033-1.921,0.05-2.882
		c2.98-0.015,5.962-0.03,8.942-0.045c0.007,0.994,0.015,1.988,0.022,2.98C183.918,90.967,180.914,90.948,177.909,90.931z"/>
	<path fill-rule="evenodd" clip-rule="evenodd" fill="#F1A961" d="M168.9,88.006c0.008,0.993,0.016,1.985,0.022,2.979
		c-3.005-0.019-6.01-0.036-9.014-0.054c0.016-0.96,0.033-1.921,0.05-2.882C162.939,88.034,165.92,88.021,168.9,88.006z"/>
	<path fill-rule="evenodd" clip-rule="evenodd" fill="#F1A961" d="M150.9,88.006c0.008,0.993,0.016,1.985,0.022,2.979
		c-3.005-0.019-6.01-0.036-9.014-0.054c0.016-0.96,0.033-1.921,0.05-2.882C144.939,88.034,147.92,88.021,150.9,88.006z"/>
	<path fill-rule="evenodd" clip-rule="evenodd" fill="#3E9999" d="M323.961,91.021c-16.87-0.005-33.74-0.009-50.608-0.013
		c-0.064-1.005-0.13-2.01-0.194-3.014c16.971,0.007,33.94,0.014,50.911,0.021C324.034,89.017,323.997,90.019,323.961,91.021z"/>
	<path fill-rule="evenodd" clip-rule="evenodd" fill="#E7E7E7" d="M247.824,125.451c-0.388,1.543-1.165,2.569-2.715,2.368
		c-1.5-0.195-2.228-1.241-2.04-2.773c0.163-1.336,1.044-2.012,2.326-1.988C246.975,123.086,247.583,124.17,247.824,125.451z"/>
	<path fill-rule="evenodd" clip-rule="evenodd" fill="#E7E7E7" d="M137.433,87.027c1.484,0.209,2.427,1.057,2.291,2.573
		c-0.132,1.455-1.092,2.395-2.636,2.22c-1.255-0.143-2.026-0.99-2.046-2.312C135.02,87.938,135.884,87.149,137.433,87.027z"/>
	<path fill-rule="evenodd" clip-rule="evenodd" fill="#484646" d="M519.961,88.051c-0.009,0.959-0.019,1.918-0.027,2.877
		c-3.897,4.145-5.146,4.155-8.973,0.081c-0.008-1.012-0.017-2.023-0.024-3.035C514.747,83.771,516.11,83.783,519.961,88.051z
		 M515.472,91.903c1.419-0.336,2.411-1.14,2.253-2.677c-0.154-1.492-1.144-2.309-2.689-2.137c-1.32,0.146-2.004,1.01-1.994,2.317
		C513.055,90.968,513.991,91.711,515.472,91.903z"/>
	<path fill-rule="evenodd" clip-rule="evenodd" fill="#484646" d="M492.937,87.974c3.812-4.203,5.172-4.191,9.028,0.078
		c-0.007,0.958-0.014,1.915-0.021,2.873c-3.911,4.148-5.154,4.16-8.982,0.084C492.953,89.997,492.944,88.985,492.937,87.974z
		 M496.897,87.04c-1.133,0.312-1.998,1.091-1.838,2.674c0.134,1.333,0.996,2.104,2.23,2.127c1.509,0.028,2.468-0.964,2.446-2.439
		C499.715,87.924,498.77,87.068,496.897,87.04z"/>
	<path fill-rule="evenodd" clip-rule="evenodd" fill="#484646" d="M474.937,87.974c3.812-4.203,5.172-4.191,9.028,0.078
		c-0.007,0.958-0.014,1.915-0.021,2.873c-3.911,4.148-5.154,4.16-8.982,0.084C474.953,89.997,474.944,88.985,474.937,87.974z
		 M479.075,87.052c-1.473,0.266-2.178,1.191-2.004,2.727c0.149,1.326,1.051,2.091,2.282,2.068c1.485-0.026,2.449-1.011,2.379-2.51
		C481.662,87.854,480.701,87.034,479.075,87.052z"/>
	<path fill-rule="evenodd" clip-rule="evenodd" fill="#484646" d="M456.918,87.979c3.834-4.205,5.19-4.194,9.047,0.073
		c-0.007,0.958-0.014,1.915-0.021,2.873c-3.911,4.146-5.146,4.158-8.998,0.084C456.937,89.998,456.927,88.988,456.918,87.979z
		 M463.83,89.471c-0.245-1.233-0.79-2.353-2.384-2.409c-1.287-0.046-2.179,0.607-2.371,1.934c-0.221,1.526,0.493,2.586,1.984,2.816
		C462.607,92.051,463.401,91.038,463.83,89.471z"/>
	<path fill-rule="evenodd" clip-rule="evenodd" fill="#7DB247" d="M501.943,90.925c0.008-0.958,0.015-1.915,0.021-2.873
		c2.99-0.026,5.981-0.053,8.972-0.078c0.008,1.012,0.017,2.023,0.024,3.035C507.955,90.98,504.949,90.953,501.943,90.925z"/>
	<path fill-rule="evenodd" clip-rule="evenodd" fill="#7DB247" d="M465.943,90.925c0.008-0.958,0.015-1.915,0.021-2.873
		c2.99-0.026,5.981-0.053,8.972-0.078c0.008,1.012,0.017,2.023,0.024,3.035C471.955,90.98,468.949,90.953,465.943,90.925z"/>
	<path fill-rule="evenodd" clip-rule="evenodd" fill="#7DB247" d="M483.943,90.925c0.008-0.958,0.015-1.915,0.021-2.873
		c2.99-0.026,5.981-0.053,8.972-0.078c0.008,1.012,0.017,2.023,0.024,3.035C489.955,90.98,486.949,90.953,483.943,90.925z"/>
	<path fill-rule="evenodd" clip-rule="evenodd" fill="#484646" d="M411.914,72.939c-2.619,3.82-5.593,3.848-8.852,0.829
		c-0.043-1.222-0.086-2.444-0.13-3.666c3.636-4.373,5.187-4.383,9.003-0.06C411.928,71.009,411.921,71.974,411.914,72.939z
		 M409.778,71.208c-0.342-1.4-1.155-2.289-2.718-2.123c-1.321,0.141-2.019,0.984-2.018,2.297c0.001,1.558,0.92,2.505,2.396,2.459
		C408.908,73.795,409.715,72.769,409.778,71.208z"/>
	<path fill-rule="evenodd" clip-rule="evenodd" fill="#484646" d="M429.914,72.939c-3.878,4.128-5.132,4.136-8.985,0.054
		c-0.008-0.998-0.017-1.997-0.025-2.996c3.829-4.217,5.217-4.21,9.032,0.046C429.928,71.009,429.921,71.974,429.914,72.939z
		 M427.794,71.537c-0.168-1.492-0.91-2.461-2.458-2.473c-1.292-0.01-2.141,0.702-2.271,2.041c-0.151,1.54,0.604,2.564,2.104,2.721
		C426.72,73.988,427.478,72.942,427.794,71.537z"/>
	<path fill-rule="evenodd" clip-rule="evenodd" fill="#484646" d="M447.906,72.947c-3.872,4.118-5.128,4.125-8.978,0.046
		c-0.008-0.998-0.017-1.997-0.025-2.996c3.825-4.214,5.214-4.208,9.026,0.039C447.922,71.006,447.914,71.977,447.906,72.947z
		 M445.83,71.471c-0.245-1.232-0.79-2.353-2.384-2.409c-1.287-0.046-2.178,0.607-2.37,1.934c-0.222,1.526,0.492,2.587,1.983,2.816
		C444.607,74.051,445.401,73.038,445.83,71.471z"/>
	<path fill-rule="evenodd" clip-rule="evenodd" fill="#8080FE" d="M420.903,69.997c0.009,0.999,0.018,1.998,0.025,2.996
		c-3.005-0.019-6.01-0.036-9.015-0.054c0.007-0.966,0.014-1.931,0.021-2.896C414.925,70.028,417.914,70.013,420.903,69.997z"/>
	<path fill-rule="evenodd" clip-rule="evenodd" fill="#8080FE" d="M438.903,69.997c0.009,0.999,0.018,1.998,0.025,2.996
		c-3.005-0.019-6.01-0.036-9.015-0.054c0.007-0.966,0.014-1.931,0.021-2.896C432.925,70.028,435.914,70.013,438.903,69.997z"/>
	<path fill-rule="evenodd" clip-rule="evenodd" fill="#484646" d="M573.914,72.938c-3.877,4.127-5.128,4.136-8.99,0.057
		c-0.008-1-0.016-1.999-0.024-2.998c3.836-4.214,5.221-4.207,9.035,0.048C573.928,71.01,573.921,71.974,573.914,72.938z
		 M571.8,71.407c-0.257-1.439-0.999-2.404-2.571-2.336c-1.304,0.056-2.09,0.808-2.175,2.143c-0.101,1.563,0.741,2.54,2.221,2.621
		C570.795,73.918,571.566,72.869,571.8,71.407z"/>
	<path fill-rule="evenodd" clip-rule="evenodd" fill="#484646" d="M591.914,72.938c-3.878,4.129-5.131,4.137-8.984,0.056
		c-0.009-0.999-0.017-1.998-0.025-2.997c3.829-4.216,5.215-4.208,9.03,0.048C591.928,71.01,591.921,71.974,591.914,72.938z
		 M585.026,71.282c0.034,1.615,0.901,2.584,2.372,2.563c1.461-0.021,2.405-1.031,2.337-2.553c-0.057-1.256-0.843-2.117-2.153-2.213
		C586.021,68.965,585.18,69.793,585.026,71.282z"/>
	<path fill-rule="evenodd" clip-rule="evenodd" fill="#484646" d="M609.93,70.036c-0.008,0.971-0.016,1.94-0.023,2.911
		c-3.872,4.118-5.128,4.125-8.977,0.047c-0.009-0.999-0.017-1.998-0.025-2.997C604.729,65.785,606.117,65.791,609.93,70.036z
		 M607.794,71.346c-0.288-1.418-1.035-2.373-2.614-2.272c-1.314,0.083-2.064,0.864-2.13,2.189c-0.076,1.569,0.799,2.532,2.273,2.576
		C606.824,73.884,607.61,72.842,607.794,71.346z"/>
	<path fill-rule="evenodd" clip-rule="evenodd" fill="#8080FE" d="M582.904,69.997c0.009,0.999,0.017,1.998,0.025,2.997
		c-3.006-0.019-6.011-0.037-9.016-0.056c0.007-0.965,0.014-1.929,0.021-2.894C576.925,70.028,579.915,70.013,582.904,69.997z"/>
	<path fill-rule="evenodd" clip-rule="evenodd" fill="#8080FE" d="M600.904,69.997c0.009,0.999,0.017,1.998,0.025,2.997
		c-3.006-0.019-6.011-0.037-9.016-0.056c0.007-0.965,0.014-1.929,0.021-2.894C594.925,70.028,597.915,70.013,600.904,69.997z"/>
	<path fill-rule="evenodd" clip-rule="evenodd" fill="#484646" d="M357.927,126.931c-3.89,4.135-5.134,4.145-8.988,0.072
		c-0.009-1.006-0.018-2.012-0.026-3.019c3.834-4.205,5.209-4.194,9.033,0.067C357.938,125.012,357.933,125.971,357.927,126.931z
		 M355.777,125.663c-0.063-1.54-0.797-2.51-2.331-2.597c-1.284-0.072-2.178,0.603-2.37,1.929c-0.222,1.526,0.492,2.587,1.983,2.816
		C354.607,128.051,355.401,127.038,355.777,125.663z"/>
	<path fill-rule="evenodd" clip-rule="evenodd" fill="#E57583" d="M348.912,123.984c0.009,1.007,0.018,2.013,0.026,3.019
		c-3.004-0.024-6.008-0.048-9.012-0.072c0.006-0.96,0.012-1.919,0.019-2.879C342.934,124.029,345.923,124.007,348.912,123.984z"/>
	<path fill-rule="evenodd" clip-rule="evenodd" fill="#E57583" d="M357.927,126.931c0.006-0.96,0.012-1.919,0.019-2.879
		c2.989-0.022,5.979-0.046,8.968-0.067c0.008,1.007,0.017,2.013,0.025,3.019C363.935,126.979,360.931,126.955,357.927,126.931z"/>
	<path fill-rule="evenodd" clip-rule="evenodd" fill="#E7E7E7" d="M337.777,125.663c-0.376,1.375-1.17,2.388-2.718,2.148
		c-1.491-0.229-2.205-1.29-1.983-2.816c0.192-1.326,1.086-2.001,2.37-1.929C336.98,123.153,337.714,124.123,337.777,125.663z"/>
	<path fill-rule="evenodd" clip-rule="evenodd" fill="#E7E7E7" d="M373.804,125.452c-0.271,1.437-1.029,2.492-2.564,2.38
		c-1.488-0.107-2.297-1.1-2.184-2.655c0.099-1.343,0.914-2.071,2.21-2.108C372.832,123.024,373.568,124,373.804,125.452z"/>
	<path fill-rule="evenodd" clip-rule="evenodd" fill="#E7E7E7" d="M749.633,127.925c-1.642-0.214-2.578-0.957-2.592-2.518
		c-0.01-1.308,0.674-2.171,1.994-2.317c1.546-0.172,2.517,0.646,2.694,2.137C751.918,126.812,750.805,127.493,749.633,127.925z"/>
	<path fill-rule="evenodd" clip-rule="evenodd" fill="#E7E7E7" d="M731.211,127.89c-1.418-0.333-2.278-1.143-2.157-2.711
		c0.104-1.342,0.913-2.074,2.209-2.108c1.56-0.041,2.489,0.911,2.478,2.381C733.729,126.914,732.761,127.773,731.211,127.89z"/>
	<path fill-rule="evenodd" clip-rule="evenodd" fill="#484646" d="M654.946,126.998c-0.009-1.004-0.018-2.007-0.026-3.011
		c3.824-4.214,5.185-4.204,9.044,0.065c-0.007,0.957-0.014,1.914-0.021,2.871C660.027,131.072,658.789,131.083,654.946,126.998z
		 M657.026,125.282c0.034,1.615,0.901,2.584,2.371,2.563c1.463-0.021,2.406-1.031,2.338-2.553c-0.057-1.257-0.843-2.117-2.153-2.213
		C658.021,122.965,657.18,123.793,657.026,125.282z"/>
	<path fill-rule="evenodd" clip-rule="evenodd" fill="#484646" d="M681.96,124.052c-0.009,0.958-0.018,1.917-0.027,2.875
		c-3.896,4.144-5.146,4.155-8.971,0.082c-0.009-1.012-0.017-2.023-0.025-3.034C676.747,119.772,678.109,119.784,681.96,124.052z
		 M677.294,123.008c-1.362,0.188-2.29,0.908-2.254,2.501c0.03,1.322,0.793,2.169,2.048,2.312c1.544,0.175,2.504-0.765,2.636-2.22
		C679.859,124.084,678.917,123.236,677.294,123.008z"/>
	<path fill-rule="evenodd" clip-rule="evenodd" fill="#7DB247" d="M672.937,123.975c0.009,1.011,0.017,2.022,0.025,3.034
		c-3.007-0.028-6.013-0.057-9.019-0.085c0.007-0.957,0.014-1.914,0.021-2.871C666.955,124.026,669.945,124,672.937,123.975z"/>
	<path fill-rule="evenodd" clip-rule="evenodd" fill="#E7E7E7" d="M625.8,71.407c-0.233,1.462-1.005,2.511-2.525,2.428
		c-1.479-0.081-2.321-1.058-2.221-2.621c0.085-1.335,0.871-2.087,2.175-2.143C624.801,69.003,625.543,69.968,625.8,71.407z"/>
	<path fill-rule="evenodd" clip-rule="evenodd" fill="#E7E7E7" d="M49.777,125.663c-0.376,1.375-1.169,2.388-2.718,2.148
		c-1.491-0.229-2.205-1.29-1.983-2.816c0.192-1.326,1.085-2.001,2.37-1.929C48.98,123.153,49.714,124.123,49.777,125.663z"/>
	<path fill-rule="evenodd" clip-rule="evenodd" fill="#E7E7E7" d="M67.83,125.471c-0.428,1.567-1.222,2.58-2.77,2.341
		c-1.491-0.229-2.205-1.29-1.983-2.816c0.192-1.326,1.083-1.979,2.37-1.934C67.04,123.118,67.585,124.238,67.83,125.471z"/>
	<path fill-rule="evenodd" clip-rule="evenodd" fill="#E7E7E7" d="M11.515,123.036c1.451,0.249,2.385,1.095,2.202,2.625
		c-0.174,1.454-1.146,2.369-2.688,2.149c-1.248-0.178-2.004-1.048-1.99-2.363C9.054,123.882,9.935,123.106,11.515,123.036z"/>
	<path fill-rule="evenodd" clip-rule="evenodd" fill="#E7E7E7" d="M301.8,125.407c-0.233,1.462-1.005,2.511-2.525,2.428
		c-1.479-0.081-2.321-1.058-2.221-2.621c0.085-1.335,0.871-2.087,2.175-2.144C300.801,123.003,301.543,123.968,301.8,125.407z"/>
	<path fill-rule="evenodd" clip-rule="evenodd" fill="#E7E7E7" d="M193.777,88.872c-0.034,1.854-0.823,2.879-2.294,2.962
		c-1.492,0.083-2.408-0.86-2.441-2.404c-0.027-1.304,0.655-2.148,1.971-2.346C192.633,86.842,193.273,87.935,193.777,88.872z"/>
	<path fill-rule="evenodd" clip-rule="evenodd" fill="#E7E7E7" d="M157.794,89.346c-0.184,1.496-0.97,2.538-2.471,2.493
		c-1.475-0.044-2.35-1.007-2.273-2.576c0.065-1.324,0.815-2.106,2.13-2.189C156.759,86.973,157.506,87.928,157.794,89.346z"/>
	<path fill-rule="evenodd" clip-rule="evenodd" fill="#E7E7E7" d="M173.433,87.027c1.484,0.209,2.427,1.057,2.291,2.573
		c-0.132,1.455-1.092,2.395-2.636,2.22c-1.255-0.143-2.026-0.989-2.045-2.312C171.021,87.938,171.884,87.149,173.433,87.027z"/>
	<path fill-rule="evenodd" clip-rule="evenodd" fill="#E7E7E7" d="M211.777,88.872c-0.034,1.854-0.823,2.879-2.294,2.962
		c-1.492,0.083-2.408-0.86-2.441-2.404c-0.027-1.304,0.655-2.148,1.971-2.346C210.633,86.842,211.273,87.935,211.777,88.872z"/>
	<path fill-rule="evenodd" clip-rule="evenodd" fill="#E7E7E7" d="M229.832,89.301c-0.299,1.588-1.058,2.643-2.593,2.531
		c-1.488-0.107-2.297-1.1-2.184-2.655c0.099-1.343,0.913-2.059,2.21-2.111C228.866,87,229.49,88.082,229.832,89.301z"/>
	<path fill-rule="evenodd" clip-rule="evenodd" fill="#E7E7E7" d="M515.472,91.903c-1.48-0.192-2.417-0.936-2.431-2.496
		c-0.01-1.308,0.674-2.171,1.994-2.317c1.546-0.172,2.535,0.645,2.689,2.137C517.883,90.764,516.891,91.567,515.472,91.903z"/>
	<path fill-rule="evenodd" clip-rule="evenodd" fill="#E7E7E7" d="M496.897,87.04c1.872,0.028,2.817,0.884,2.839,2.361
		c0.021,1.476-0.938,2.468-2.446,2.439c-1.234-0.022-2.097-0.794-2.23-2.127C494.899,88.131,495.765,87.352,496.897,87.04z"/>
	<path fill-rule="evenodd" clip-rule="evenodd" fill="#E7E7E7" d="M479.075,87.052c1.626-0.018,2.587,0.802,2.657,2.285
		c0.07,1.499-0.894,2.483-2.379,2.51c-1.231,0.022-2.133-0.742-2.282-2.068C476.897,88.243,477.603,87.317,479.075,87.052z"/>
	<path fill-rule="evenodd" clip-rule="evenodd" fill="#E7E7E7" d="M463.83,89.471c-0.429,1.567-1.223,2.58-2.771,2.341
		c-1.491-0.23-2.205-1.29-1.984-2.816c0.192-1.326,1.084-1.979,2.371-1.934C463.04,87.118,463.585,88.237,463.83,89.471z"/>
	<path fill-rule="evenodd" clip-rule="evenodd" fill="#E7E7E7" d="M409.778,71.208c-0.063,1.561-0.87,2.587-2.34,2.633
		c-1.476,0.046-2.395-0.901-2.396-2.459c-0.001-1.313,0.696-2.156,2.018-2.297C408.623,68.919,409.437,69.808,409.778,71.208z"/>
	<path fill-rule="evenodd" clip-rule="evenodd" fill="#E7E7E7" d="M427.794,71.537c-0.316,1.405-1.074,2.451-2.625,2.289
		c-1.501-0.156-2.256-1.181-2.104-2.721c0.131-1.339,0.979-2.051,2.271-2.041C426.884,69.076,427.626,70.045,427.794,71.537z"/>
	<path fill-rule="evenodd" clip-rule="evenodd" fill="#E7E7E7" d="M445.83,71.471c-0.429,1.567-1.223,2.58-2.771,2.341
		c-1.491-0.229-2.205-1.29-1.983-2.816c0.192-1.326,1.083-1.979,2.37-1.934C445.04,69.118,445.585,70.238,445.83,71.471z"/>
	<path fill-rule="evenodd" clip-rule="evenodd" fill="#E7E7E7" d="M571.8,71.407c-0.233,1.462-1.005,2.511-2.525,2.428
		c-1.479-0.081-2.321-1.058-2.221-2.621c0.085-1.335,0.871-2.087,2.175-2.143C570.801,69.003,571.543,69.968,571.8,71.407z"/>
	<path fill-rule="evenodd" clip-rule="evenodd" fill="#E7E7E7" d="M585.026,71.282c0.153-1.489,0.994-2.317,2.556-2.203
		c1.311,0.096,2.097,0.957,2.153,2.213c0.068,1.521-0.876,2.531-2.337,2.553C585.928,73.866,585.061,72.897,585.026,71.282z"/>
	<path fill-rule="evenodd" clip-rule="evenodd" fill="#E7E7E7" d="M607.794,71.346c-0.184,1.496-0.97,2.538-2.471,2.493
		c-1.475-0.044-2.35-1.007-2.273-2.576c0.065-1.325,0.815-2.106,2.13-2.189C606.759,68.973,607.506,69.928,607.794,71.346z"/>
	<path fill-rule="evenodd" clip-rule="evenodd" fill="#E7E7E7" d="M355.777,125.663c-0.376,1.375-1.17,2.388-2.718,2.148
		c-1.491-0.229-2.205-1.29-1.983-2.816c0.192-1.326,1.086-2.001,2.37-1.929C354.98,123.153,355.714,124.123,355.777,125.663z"/>
	<path fill-rule="evenodd" clip-rule="evenodd" fill="#E7E7E7" d="M657.026,125.282c0.153-1.489,0.994-2.317,2.556-2.203
		c1.311,0.096,2.097,0.956,2.153,2.213c0.068,1.521-0.875,2.532-2.338,2.553C657.928,127.866,657.061,126.897,657.026,125.282z"/>
	<path fill-rule="evenodd" clip-rule="evenodd" fill="#E7E7E7" d="M677.294,123.008c1.623,0.229,2.565,1.076,2.43,2.593
		c-0.132,1.455-1.092,2.395-2.636,2.22c-1.255-0.143-2.018-0.989-2.048-2.312C675.004,123.916,675.932,123.195,677.294,123.008z"/>
</g>
</svg>
