<?xml version="1.0" encoding="utf-8"?>
<!-- Generator: Adobe Illustrator 16.0.0, SVG Export Plug-In . SVG Version: 6.00 Build 0)  -->
<!DOCTYPE svg PUBLIC "-//W3C//DTD SVG 1.1//EN" "http://www.w3.org/Graphics/SVG/1.1/DTD/svg11.dtd">
<svg version="1.1" id="Ebene_1" xmlns="http://www.w3.org/2000/svg" xmlns:xlink="http://www.w3.org/1999/xlink" x="0px" y="0px"
	 width="722.834px" height="155.906px" viewBox="0 0 722.834 155.906" enable-background="new 0 0 722.834 155.906"
	 xml:space="preserve">
<line fill="none" stroke="#3C3C3C" stroke-width="5" stroke-linecap="round" x1="388" y1="122.767" x2="491.533" y2="97.237"/>
<g>
	<ellipse fill="#8EBFF2" stroke="#3C3C3C" stroke-width="5" stroke-linecap="round" cx="485.5" cy="98.992" rx="17.5" ry="17.5"/>
</g>
<link  type="text/css" xmlns="" id="dark-mode-general-link" rel="stylesheet"></link>
<link  type="text/css" xmlns="" id="dark-mode-custom-link" rel="stylesheet"></link>
<g transform="translate(0, 18)">
	<line fill="none" stroke="#808080" stroke-dasharray="10" x1="0" y1="52.5" x2="720" y2="52.5"/>
	<g>
		<line fill="none" stroke="#000000" stroke-width="5" stroke-linecap="round" x1="88" y1="10.5" x2="288" y2="10.5"/>
		<line fill="none" stroke="#000000" stroke-width="5" stroke-linecap="round" x1="388" y1="108.194" x2="488" y2="108.712"/>
		<line fill="none" stroke="#000000" stroke-width="5" stroke-linecap="round" x1="288" y1="8.453" x2="388" y2="108.453"/>
		<g>
			<ellipse fill="#FDE438" stroke="#000000" stroke-width="5" stroke-linecap="round" cx="88" cy="10.5" rx="17.5" ry="17.5"/>
			<ellipse fill="#FDE438" stroke="#000000" stroke-width="5" stroke-linecap="round" cx="188" cy="10.5" rx="17.5" ry="17.5"/>
			<ellipse fill="#FDE438" stroke="#000000" stroke-width="5" stroke-linecap="round" cx="288" cy="10.5" rx="17.5" ry="17.5"/>
		</g>
		<g>
			<ellipse fill="#2FA1F4" stroke="#000000" stroke-width="5" stroke-linecap="round" cx="388" cy="108.453" rx="17.5" ry="17.5"/>
			
				<ellipse fill="#2FA1F4" stroke="#000000" stroke-width="5" stroke-linecap="round" cx="485.5" cy="109.502" rx="17.5" ry="17.5"/>
		</g>
	</g>
</g>
<text transform="matrix(1 0 0 1 3 36.25)" fill="#5A5A5A" font-family="'Consolas'" font-size="18">main</text>
<text transform="matrix(1 0 0 1 512.5 133.25)" fill="#5A5A5A" font-family="'Consolas'" font-size="18">feature</text>
<text transform="matrix(1 0 0 1 512.5 101.7148)" fill="#5A5A5A" font-family="'Consolas'" font-size="18">origin/feature</text>
</svg>
